<?xml version="1.0" encoding="UTF-8" standalone="no"?>
<svg
   xmlns:dc="http://purl.org/dc/elements/1.1/"
   xmlns:cc="http://creativecommons.org/ns#"
   xmlns:rdf="http://www.w3.org/1999/02/22-rdf-syntax-ns#"
   xmlns:svg="http://www.w3.org/2000/svg"
   xmlns="http://www.w3.org/2000/svg"
   xmlns:sodipodi="http://sodipodi.sourceforge.net/DTD/sodipodi-0.dtd"
   xmlns:inkscape="http://www.inkscape.org/namespaces/inkscape"
   version="1.1"
   id="svg34"
   width="1200"
   height="120"
   viewBox="0 0 1200 120"
   sodipodi:docname="header1.svg"
   inkscape:version="1.0.1 (3bc2e813f5, 2020-09-07)">
  <metadata
     id="metadata40">
    <rdf:RDF>
      <cc:Work
         rdf:about="">
        <dc:format>image/svg+xml</dc:format>
        <dc:type
           rdf:resource="http://purl.org/dc/dcmitype/StillImage" />
        <dc:title></dc:title>
      </cc:Work>
    </rdf:RDF>
  </metadata>
  <defs
     id="defs38" />
  <sodipodi:namedview
     pagecolor="#ffffff"
     bordercolor="#666666"
     borderopacity="1"
     objecttolerance="10"
     gridtolerance="10"
     guidetolerance="10"
     inkscape:pageopacity="0"
     inkscape:pageshadow="2"
     inkscape:window-width="1920"
     inkscape:window-height="1017"
     id="namedview36"
     showgrid="false"
     inkscape:zoom="1.5611448"
     inkscape:cx="836.83617"
     inkscape:cy="3.5995236"
     inkscape:window-x="-8"
     inkscape:window-y="-8"
     inkscape:window-maximized="1"
     inkscape:current-layer="g4276"
     inkscape:document-rotation="0"
     units="px" />
  <g
     inkscape:groupmode="layer"
     inkscape:label="Image"
     id="g42">
    <path
       style="font-variation-settings:normal;vector-effect:none;fill:#fae8d1;fill-opacity:1;stroke-width:0.915077;stroke-linecap:butt;stroke-linejoin:miter;stroke-miterlimit:4;stroke-dasharray:none;stroke-dashoffset:0;stroke-opacity:1;stop-color:#000000"
       d=""
       id="path4234" />
    <path
       style="font-variation-settings:normal;vector-effect:none;fill:#fae8d1;fill-opacity:1;stroke-width:0.457539;stroke-linecap:butt;stroke-linejoin:miter;stroke-miterlimit:4;stroke-dasharray:none;stroke-dashoffset:0;stroke-opacity:1;stop-color:#000000"
       d=""
       id="path4246" />
    <path
       style="font-variation-settings:normal;vector-effect:none;fill:#fae8d1;fill-opacity:1;stroke-width:0.323529;stroke-linecap:butt;stroke-linejoin:miter;stroke-miterlimit:4;stroke-dasharray:none;stroke-dashoffset:0;stroke-opacity:1;stop-color:#000000"
       d=""
       id="path4252" />
    <g
       id="g4276"
       transform="matrix(1.1195462,0,0,0.73168989,809.59873,3.3249)">
      <g
         id="g3372"
         transform="translate(-66.129412,-55.485294)"
         style="fill:#000000;fill-opacity:1;stroke:#000000;stroke-opacity:1" />
      <path
         id="path3346-1"
         style="color:#000000;font-style:normal;font-variant:normal;font-weight:normal;font-stretch:normal;font-size:medium;line-height:normal;font-family:sans-serif;font-variant-ligatures:normal;font-variant-position:normal;font-variant-caps:normal;font-variant-numeric:normal;font-variant-alternates:normal;font-variant-east-asian:normal;font-feature-settings:normal;font-variation-settings:normal;text-indent:0;text-align:start;text-decoration:none;text-decoration-line:none;text-decoration-style:solid;text-decoration-color:#000000;letter-spacing:normal;word-spacing:normal;text-transform:none;writing-mode:lr-tb;direction:ltr;text-orientation:mixed;dominant-baseline:auto;baseline-shift:baseline;text-anchor:start;white-space:normal;shape-padding:0;shape-margin:0;inline-size:0;clip-rule:nonzero;display:inline;overflow:visible;visibility:visible;isolation:auto;mix-blend-mode:normal;color-interpolation:sRGB;color-interpolation-filters:linearRGB;solid-color:#000000;solid-opacity:1;vector-effect:none;fill:#000000;fill-opacity:1;fill-rule:nonzero;stroke:none;stroke-width:2.53578;stroke-linecap:butt;stroke-linejoin:miter;stroke-miterlimit:4;stroke-dasharray:none;stroke-dashoffset:0;stroke-opacity:1;color-rendering:auto;image-rendering:auto;shape-rendering:auto;text-rendering:auto;enable-background:accumulate;stop-color:#000000;stop-opacity:1"
         d="m -446.06316,-3.7751577 -9.39508,2.6621758 c -5.16712,1.46566752 -10.02799,3.61256 -10.80423,4.7703705 -0.77621,1.1578045 -1.41227,35.9277874 -1.41227,77.2646574 v 75.156444 l 14.28232,-2.7468 c 21.39901,-4.10794 21.18694,-3.85463 22.45325,-26.07547 1.44894,-25.42582 0.36269,-28.692219 -8.83082,-26.56022 l -7.57793,1.75427 0.64079,-53.112711 z m -253.24685,1.0848764 c -1.93216,0.061559 -4.33853,0.7315051 -7.37707,1.83120622 l -6.72034,2.43134908 -3.96272,54.059099 c -2.17848,29.732524 -3.9978,61.973077 -4.04241,71.647937 l -0.0797,17.58882 7.34521,3.09303 c 4.03986,1.7007 8.16364,2.35572 9.16237,1.45421 0.99873,-0.90153 2.37448,-14.63969 3.05734,-30.53041 l 1.24012,-28.891516 3.60885,25.606136 c 1.98534,14.08336 4.66049,26.09722 5.94248,26.6987 1.45279,0.68164 3.95216,-7.48019 6.63745,-21.66674 l 4.3102,-22.759285 0.15949,22.328415 c 0.0878,12.28116 0.60595,25.13347 1.15087,28.56069 1.03964,6.5386 8.03738,8.20228 15.16224,3.60085 l 3.9117,-2.53138 -1.13814,-70.986211 c -0.62491,-39.045886 -1.50983,-72.4555627 -1.967,-74.2408475 -0.45717,-1.7852859 -5.12287,-3.2469327 -10.36744,-3.2469327 h -9.53537 l -3.01589,17.8350402 -3.01906,17.827343 -1.71196,-18.812192 c -1.43577,-15.7713907 -2.95463,-21.0826383 -8.75112,-20.8973113 z m 531.36666,1.6080744 c -1.96092,-0.075756 -4.9185,0.71267281 -7.99557,2.2543843 l -8.95197,4.477999 -1.15725,20.5049046 -1.15724,20.50491 -4.78204,-22.651575 c -4.99615,-23.66231384 -5.65211,-24.47549746 -16.29079,-20.2279246 l -5.85003,2.3313331 -1.90642,61.6378355 c -2.77506,89.66981 -3.13593,83.30455 4.73422,83.30455 11.13782,0 12.94159,-4.52575 13.0103,-32.63858 l 0.0604,-24.482782 5.9297,32.500092 c 3.26153,17.87505 6.72287,32.48921 7.69269,32.477 0.96986,-0.0119 4.51744,-1.86764 7.884,-4.12406 4.66787,-3.12865 6.13655,-6.16176 6.18795,-12.77998 0.0371,-4.77318 1.43867,-37.92909 3.11468,-73.67918 1.67605,-35.750099 2.46,-66.4973467 1.74066,-68.32405038 -0.26975,-0.68501213 -1.08694,-1.03942522 -2.26347,-1.08487652 z M -386.0614,0.21041085 -406.56992,2.3493816 c -11.2791,1.1756195 -20.71026,2.7593087 -20.96125,3.5239195 -0.25103,0.7646122 -0.11333,33.9796769 0.30922,73.8099779 l 0.76833,72.417341 12.98161,-2.60832 c 7.13917,-1.43692 16.22765,-3.68842 20.19611,-5.00119 l 7.2145,-2.38519 v -18.84296 c 0,-27.79807 -0.95683,-31.249408 -8.74474,-31.607578 -3.71935,-0.171061 -5.84363,-1.207709 -4.72146,-2.300551 1.19404,-1.162805 2.04033,-9.107746 2.04033,-19.150743 0,-16.929766 -0.0826,-17.180036 -6.12101,-18.704473 -4.27522,-1.079304 -3.14188,-1.74569 3.7555,-2.208222 5.43138,-0.364235 10.75663,-2.785901 11.83392,-5.385904 1.07729,-2.600009 1.95746,-13.498236 1.95746,-24.213493 z m 266.05951,0.0846198 -20.42567,1.90045425 c -11.23415,1.0444823 -20.7044,2.6124103 -21.04412,3.4854492 -0.33971,0.8730459 -0.21947,34.1679369 0.26463,73.9946369 l 0.87987,72.417349 12.94654,-2.60833 c 7.12126,-1.43333 16.19579,-3.68072 20.16424,-4.9935 7.20781,-2.38428 7.2144,-2.40731 7.1922,-18.59676 -0.0404,-29.444301 -1.17742,-33.890445 -8.73839,-34.238966 -3.71071,-0.17106 -5.82771,-1.207703 -4.70552,-2.300544 1.19404,-1.162812 2.04034,-9.107746 2.04034,-19.150743 0,-16.929773 -0.0826,-17.180036 -6.12099,-18.704478 -4.13792,-1.044634 -2.83444,-1.760542 4.02327,-2.208218 11.67546,-0.762194 13.5236,-5.192795 13.5236,-32.446232 z m -179.4091,0.0307857 -8.22189,1.90044735 c -10.92487,2.5335015 -22.40565,19.8623903 -26.83038,40.4943113 -2.13096,9.936397 -3.56745,25.21711 -3.88621,41.363752 -0.61289,31.045763 3.78781,53.207113 12.70745,64.007633 6.70646,8.12069 23.25809,9.39802 25.63488,1.9774 0.86746,-2.70834 1.14199,-14.67429 0.6089,-26.59099 -1.04428,-23.34327 -0.20342,-22.0066 -11.77336,-18.71217 -4.8731,1.38757 -7.42567,-9.632423 -5.426,-23.428688 1.35906,-9.376491 2.70529,-11.338087 8.91688,-13.010805 l 7.31332,-1.969689 0.47822,-33.015597 z M -82.874226,1.2183431 c -8.659257,-0.42793261 -17.979934,5.8234656 -24.401094,17.1810359 -5.20576,9.207773 -9.46205,32.672435 -9.46205,52.158645 0,25.958109 11.66485,41.623316 21.515965,28.899225 2.64125,-3.411579 3.191242,-3.204131 2.617351,0.984851 -0.489868,3.57598 -4.277259,5.68584 -11.613966,6.47078 l -10.88708,1.1695 v 20.82807 c 0,11.4566 0.55088,22.17223 1.22418,23.81338 0.67332,1.64125 7.00695,4.87143 13.7627,1.62347 6.755761,-3.24795 18.247619,-6.9357 24.901639,-28.44527 4.453026,-14.39466 4.699306,-49.252273 0.427191,-60.64528 -3.741124,-9.977033 -10.245162,-13.124636 -18.2004,-8.79441 -5.850309,3.184446 -6.077821,2.980337 -3.510019,-3.200766 2.001005,-4.816693 5.368545,-6.486296 12.436482,-6.170713 10.496512,0.468704 10.251627,0.994498 12.264304,-26.475564 0.922946,-12.5965183 0.608042,-14.5075013 -2.767196,-16.6886111 -2.608,-1.6853129 -5.421563,-2.565709 -8.308007,-2.7083428 z M -594.67596,1.3260115 c -2.17092,2.892e-4 -4.7778,0.4443279 -7.8744,1.2156744 -17.00289,4.2352541 -26.7188,27.5552511 -26.7188,64.1153511 0,17.776554 0.62467,21.982256 4.30064,28.96077 4.70642,8.934823 9.54631,10.243703 15.9975,4.324123 2.30278,-2.113043 4.18586,-2.304412 4.18586,-0.423156 0,5.530476 -4.56384,8.201956 -14.00815,8.201956 h -8.84359 v 21.01272 c 0,11.5556 0.4886,22.19199 1.08713,23.63644 0.59846,1.44443 5.55647,2.58666 11.01779,2.53907 19.26803,-0.16791 30.31541,-22.1179 30.32764,-60.252894 0.002,-10.434138 -0.74156,-22.335171 -1.65458,-26.452486 -2.30277,-10.384634 -12.5823,-16.524971 -19.57127,-11.687415 -5.2692,3.647175 -5.40419,3.498216 -2.70026,-3.008416 2.13333,-5.133504 5.23647,-6.679187 12.39503,-6.178401 9.41527,0.658658 9.56281,0.499862 10.54281,-11.325789 2.1817,-26.3274346 0.92399,-34.6787791 -8.48335,-34.677529 z m 71.50414,0.030786 -6.121,0.08462 c -20.92037,0.295695 -37.24722,54.8441575 -31.6188,105.6329725 2.24526,20.26035 5.14095,29.70589 12.43967,40.58664 5.45366,8.13021 24.31589,10.42757 26.17046,3.18539 0.58438,-2.28228 0.5467,-14.8611 -0.0831,-27.95285 -1.23537,-25.689118 -0.89545,-25.194387 -11.66498,-17.08871 -5.13569,3.86544 -8.00253,-10.057101 -5.09765,-24.752068 1.74752,-8.840145 3.36043,-10.969013 9.05082,-11.964407 l 6.9244,-1.215656 V 34.618603 Z m 179.54936,0 -6.12101,0.08462 c -14.27084,0.2017165 -27.88553,27.3803665 -31.39244,62.6611605 -3.7098,37.322192 0.4993,66.414512 12.06986,83.443042 5.59806,8.23875 24.44394,10.60313 26.3139,3.3008 0.58441,-2.28228 0.5467,-14.8611 -0.0831,-27.95285 -1.23675,-25.718382 -0.86909,-25.188126 -11.7574,-17.02715 -2.87897,2.15783 -4.02122,0.63045 -5.53761,-7.40178 -1.56235,-8.275802 -1.41632,-11.940031 0.80657,-20.127886 2.15643,-7.942788 4.0593,-10.010073 9.21024,-10.010073 h 6.4908 V 34.841735 Z m 59.50443,0.06156 c -3.3527,-0.1557937 -6.61559,2.2939234 -8.8149,7.6018172 -3.96037,9.5582113 -4.40274,28.6655513 -0.82888,35.8239623 2.01455,4.035078 2.0971,5.701947 0.40808,8.225046 -1.59727,2.386017 -1.9727,14.569561 -1.53346,49.588797 0.3203,25.53486 0.91387,47.75605 1.31985,49.38106 0.94784,3.79372 13.83855,3.74466 16.2621,-0.0616 2.40989,-3.78473 6.15014,-95.483337 4.09662,-100.439428 -0.94204,-2.273521 -0.50567,-7.956741 1.14447,-14.895877 2.52487,-10.61757 2.48434,-11.805491 -0.73961,-22.26687 -2.54378,-8.2542565 -7.0037,-12.7566608 -11.31427,-12.9569393 z m -359.57694,0.069227 c -3.49251,-0.2061764 -7.19015,1.7675082 -9.69476,6.0014366 -4.40165,7.4407389 -4.889,27.3142039 -0.92771,37.8783019 2.52012,6.720768 2.50986,7.201695 -0.17854,7.201695 -2.66161,0 -2.79297,3.68687 -1.70243,48.257712 0.64945,26.54174 1.50911,49.58725 1.90963,51.21225 1.21303,4.92176 14.70905,3.30575 16.45019,-1.9697 2.66238,-8.0667 5.45816,-94.834883 3.16569,-98.25429 -1.4502,-2.163161 -1.42365,-4.042778 0.11156,-7.748005 2.88723,-6.968185 2.50815,-27.025745 -0.67266,-35.5085035 -1.68025,-4.4809579 -4.96849,-6.8647635 -8.461,-7.0709213 z m 400.492,1.2695366 c -6.29812,-0.3691321 -12.79621,7.3807209 -17.57239,22.8054549 -13.13597,42.422873 -10.24656,111.649544 5.29532,126.861144 4.35231,4.25983 18.6086,-1.01074 22.82942,-8.44048 13.42727,-23.63549 14.99744,-92.109783 2.8756,-125.430033 -3.75046,-10.3091673 -8.52944,-15.5089771 -13.42795,-15.7960859 z m -250.87815,0.1076684 c -7.53782,0.7397976 -15.30698,13.4098795 -20.49581,40.7636095 -3.41321,17.993554 -3.94685,25.846728 -3.43349,50.381286 0.65324,31.221295 3.69258,46.335145 11.31748,56.228845 2.28307,2.96243 7.21629,4.42382 11.79887,3.50084 14.22632,-2.86534 22.15416,-25.69777 23.55628,-67.854698 1.74081,-52.33965 -10.18035,-84.2528703 -22.74333,-83.0198825 z m -211.80577,6.3245784 c 0.93199,0.08455 2.07953,0.5477932 3.54827,0.8078884 6.74172,1.1939647 6.81884,1.3846047 8.52157,20.8511457 2.3711,27.107192 5.92278,27.851556 10.495,2.200527 3.38585,-18.995487 3.8237,-19.873986 9.87965,-19.873986 h 6.3378 l 0.98827,34.469789 c 0.54379,18.958385 1.3874,47.99868 1.87456,64.538518 l 0.88628,30.07644 -5.80858,1.63885 c -5.57163,1.56984 -5.80858,1.12523 -5.80858,-10.78719 0,-27.8861 -2.17459,-60.845341 -4.0137,-60.845341 -1.05362,0 -4.12545,11.96594 -6.82875,26.590979 l -4.91595,26.590972 -3.8862,-28.691479 c -4.81573,-35.563252 -8.27402,-37.188483 -10.09643,-4.747164 -2.5988,46.261493 -2.74213,47.226683 -7.1093,47.226683 -2.23187,0 -4.51567,-2.86305 -5.07214,-6.36305 -0.55651,-3.50001 0.60484,-28.76145 2.5791,-56.136519 4.41134,-61.167462 4.39056,-67.9132119 8.42913,-67.5469435 z m 255.80684,0.046492 -0.22645,52.1971091 -0.22947,52.197121 7.75328,-1.33879 c 7.66625,-1.32464 7.75325,-1.20407 7.75325,10.60254 0,6.56728 -0.69763,12.97909 -1.54939,14.24957 -0.85173,1.27047 -7.48965,3.41126 -14.75094,4.76267 l -13.20163,2.46213 1.11902,-64.615467 c 0.68841,-39.705187 1.81281,-65.722183 2.91702,-67.500777 0.98828,-1.59183 3.73819,-2.9214618 6.10826,-2.9545546 z m 279.73612,0.6232399 c 0.34328,-0.016961 0.56621,0.058423 0.64078,0.2385292 0.29822,0.719783 -0.76188,30.227492 -2.35914,65.577237 -2.03135,44.957324 -3.59947,65.328974 -5.21241,67.793154 -3.83985,5.86631 -6.3929,4.11692 -7.89356,-5.40898 -4.91598,-31.20614 -11.68324,-61.853173 -13.65747,-61.853173 -1.70058,0 -2.59128,7.980956 -3.36975,30.207233 -0.58191,16.6143 -1.24015,30.58762 -1.46328,31.05358 -0.22319,0.46595 -2.86529,2.12185 -5.87236,3.67782 -4.81189,2.48987 -5.36598,1.95618 -4.61623,-4.46262 0.46852,-4.0112 1.29681,-25.02138 1.83949,-46.6881 0.54271,-21.666723 1.40382,-47.814522 1.9128,-58.106218 0.8891,-17.977227 1.13038,-18.712175 6.16883,-18.712175 4.87848,0 5.63052,1.924119 10.77232,27.575832 3.04013,15.166713 6.44379,27.575838 7.56198,27.575838 1.82347,0 2.73828,-9.295729 4.24966,-43.102631 0.32403,-7.248641 1.77982,-10.454124 5.91377,-13.026197 2.26208,-1.407433 4.35468,-2.2885211 5.38457,-2.3390153 z m -220.61426,0.4770592 v 12.672266 c 0,12.61399 -0.0514,12.695329 -9.93389,15.188248 -11.62781,2.93319 -12.91785,4.389893 -12.91785,14.603499 0,6.294435 1.15434,7.647988 6.52904,7.647988 5.8309,0 6.52908,1.029826 6.52908,9.602293 0,7.950061 -0.91124,9.810963 -5.30486,10.833364 -4.69244,1.091938 -5.30487,2.595398 -5.30487,13.049276 v 11.818217 l 10.20166,-1.38495 10.20169,-1.37725 v 16.15002 c 0,14.99073 -0.32354,16.1625 -4.48874,16.1885 -2.46881,0.0151 -9.34305,1.13233 -15.27702,2.48519 l -10.78824,2.46214 -1.19234,-61.884043 c -0.65549,-34.034337 -0.94288,-62.404294 -0.63759,-63.045864 0.30531,-0.641573 7.71629,-2.028138 16.46932,-3.085356 z m 266.05948,0 v 12.672266 c 0,12.61399 -0.0514,12.695329 -9.93387,15.188248 -11.6278,2.93319 -12.91787,4.389893 -12.91787,14.603499 0,6.294435 1.15437,7.647988 6.52908,7.647988 5.83087,0 6.52907,1.029826 6.52907,9.602293 0,7.950061 -0.91126,9.810963 -5.30486,10.833364 -4.69247,1.091938 -5.30487,2.595398 -5.30487,13.049276 v 11.818217 l 10.20166,-1.38495 10.20166,-1.37725 v 16.15002 c 0,14.99073 -0.3235,16.1625 -4.48872,16.1885 -2.46879,0.0151 -9.36517,1.13423 -15.32483,2.4929 l -10.83606,2.46981 -1.19871,-61.760929 c -0.65972,-33.968376 -0.92482,-62.340243 -0.58978,-63.053562 0.33501,-0.713319 7.77046,-2.158934 16.5235,-3.216152 z m -519.08318,1.354175 c 1.71525,0.288469 3.50202,1.86053 5.13272,5.047357 2.95166,5.768409 3.19243,8.131348 1.57806,15.41138 -2.26593,10.218453 -12.72004,12.368568 -14.22175,2.923777 -2.15187,-13.533968 2.36523,-24.247904 7.51097,-23.382514 z m 359.50678,0.05402 c 2.11626,-0.316364 4.44315,1.304974 6.54501,5.470542 2.97509,5.896111 3.33519,8.649666 1.88095,14.426527 -2.34828,9.328376 -13.33784,12.076728 -14.67447,3.670115 -2.03859,-12.821428 1.59278,-22.871127 6.24851,-23.567184 z m -62.41188,0.392376 v 15.957666 c 0,22.820286 -1.29813,28.414495 -6.58647,28.414495 -6.19202,0 -11.36849,16.165307 -11.36849,35.50081 0,18.702319 3.0503,24.841249 11.394,22.920859 l 6.56096,-1.50805 v 14.45731 c 0,9.54738 -0.87702,15.26319 -2.58229,16.84249 -5.37879,4.98145 -15.50027,-0.97976 -20.61058,-12.14136 -16.10638,-35.178725 -5.44193,-111.176652 16.60322,-118.312939 z m -250.44141,0.654004 c 5.09337,-0.305809 8.98572,1.833338 8.2251,6.616969 -0.5449,3.427221 -0.99147,8.745418 -0.99147,11.818212 0,4.202186 -2.42736,5.585955 -9.7936,5.585955 -7.71459,0 -10.50637,1.720248 -13.15697,8.117333 -1.85066,4.466552 -3.11114,11.114297 -2.79906,14.772767 0.4662,5.465585 2.24307,6.467387 9.96256,5.616723 11.63337,-1.281968 15.35445,3.265805 16.6861,20.397194 1.36146,17.514863 -2.90185,39.217533 -9.64377,49.104053 -5.46182,8.00938 -15.8017,12.54592 -21.86025,9.59461 -2.8045,-1.36615 -3.67262,-4.51853 -3.67262,-13.33396 0,-11.13764 0.2731,-11.54676 7.75327,-11.60279 10.19108,-0.0764 15.91461,-7.17671 15.91461,-19.750868 0,-9.425003 -0.31878,-9.699346 -10.12514,-8.609752 -9.24731,1.027471 -10.3599,0.27371 -12.79676,-8.702083 -5.03641,-18.551216 0.25159,-48.516433 10.8648,-61.583978 4.04536,-4.98087 10.33985,-7.734545 15.4332,-8.040385 z m 66.74763,0.384713 c 3.93691,0 4.14441,1.091194 4.14441,21.666728 v 21.666724 h -5.59496 c -7.22934,0 -12.35998,14.735677 -12.35998,35.500809 0,18.702312 3.05029,24.841252 11.394,22.920852 l 6.56094,-1.50805 v 14.45731 c 0,9.54738 -0.87701,15.26319 -2.58229,16.8425 -4.93377,4.56932 -15.86535,-1.77534 -20.50216,-11.90285 -10.35252,-22.61148 -10.40654,-69.793826 -0.11156,-97.269436 3.89474,-10.394318 14.09644,-22.374587 19.05167,-22.374587 z m 38.42203,0 c 2.10432,0 6.00139,5.899866 9.05077,13.703281 12.19752,31.213558 9.78536,92.988162 -4.31657,110.588002 -5.91129,7.37755 -14.4969,7.29159 -18.9241,-0.19235 -5.3152,-8.98507 -9.30309,-37.954445 -7.98917,-58.05236 2.39821,-36.683259 12.2585,-66.046573 22.17907,-66.046573 z m 183.55034,0 c 3.9563,0 4.16035,1.069289 4.16035,21.666728 0,20.632945 -0.20088,21.666724 -4.18907,21.666724 -6.65926,0 -10.242,6.845308 -12.31214,23.521017 -1.63279,13.152924 -1.5108,17.04396 0.79702,25.544574 2.14588,7.90421 4.06776,10.02548 9.08266,10.02548 5.79795,0 6.46128,1.0913 7.48227,12.31063 0.77394,8.5043 0.43659,13.35626 -1.09348,15.69607 -5.13993,7.86016 -19.8632,-2.31793 -24.58603,-16.99637 -6.04506,-18.78805 -7.10687,-49.408188 -2.49939,-72.071102 4.349,-21.391514 15.53076,-41.363751 23.15781,-41.363751 z m 223.80864,0 c 8.794902,0 9.202414,0.435093 8.266526,8.863662 -0.541318,4.875012 -0.994358,10.193207 -1.007399,11.818212 -0.01394,1.625006 -3.898507,2.954555 -8.636358,2.954555 -10.235095,0 -15.869969,7.907193 -15.869969,22.274561 0,9.898792 0.10932,9.981973 9.650123,7.309443 8.476359,-2.374314 10.064522,-1.700585 13.058146,5.524398 6.66162,16.077527 2.433601,52.375422 -7.536486,64.692402 -5.202363,6.42697 -16.239133,10.66799 -20.476643,7.87113 -1.89183,-1.24866 -2.85648,-5.78276 -2.85648,-13.41862 0,-11.13735 0.26488,-11.52582 7.7979,-11.52582 9.3072,0 15.462517,-8.79326 14.738226,-21.058882 -0.457261,-7.743409 -1.330374,-8.381153 -10.004017,-7.255584 -11.730549,1.522252 -14.164369,-2.778348 -14.164369,-25.044459 0,-31.176294 11.13455,-53.004998 27.0408,-53.004998 z m -158.53711,0.500112 c 2.39262,0.006 4.79742,1.773305 7.1029,5.670588 13.74603,23.236924 13.04089,100.034503 -1.08073,117.658933 -11.60538,14.48406 -23.17459,2.89611 -26.45419,-26.49865 -5.07279,-45.466677 7.51187,-96.861797 20.43202,-96.830871 z m -250.03971,32.176939 c -1.29889,0.188524 -2.73348,1.603929 -4.36119,4.177924 -7.11647,11.253658 -9.43418,48.416987 -4.00415,64.207688 2.57776,7.4962 10.23375,6.578 13.27172,-1.5927 4.07945,-10.9718 5.07971,-33.191359 2.2316,-49.642646 -2.08748,-12.057716 -4.28039,-17.564962 -7.13798,-17.150266 z m 249.86754,0.823273 c -8.50669,-1.237812 -15.87796,41.890526 -9.43017,64.107669 2.91393,10.04042 10.67724,11.87963 13.65113,3.23155 5.92994,-17.244558 4.98514,-57.005628 -1.55576,-65.454149 -0.89025,-1.149859 -1.78519,-1.757017 -2.6652,-1.88507 z m -250.52428,10.48713 c 0.92345,-0.400668 1.6703,1.22376 2.86605,5.170468 3.01528,9.952176 2.88557,29.705636 -0.26778,40.571241 -3.27185,11.2737 -5.25361,11.0634 -7.49186,-0.79248 -2.20966,-11.704568 -0.59525,-35.086446 2.90746,-42.102392 0.81537,-1.633198 1.43209,-2.60643 1.98613,-2.846837 z m 250.37447,0.523231 c 1.79074,0.308699 3.08485,6.852929 3.95314,19.76627 0.66776,9.931547 0.136,17.416943 -1.72792,24.282738 -1.48195,5.45864 -3.2652,9.92546 -3.96271,9.92546 -5.64976,0 -7.05552,-32.996589 -2.03714,-47.819146 1.44855,-4.278475 2.70015,-6.34056 3.77463,-6.155322 z m -408.46206,2.762305 h 7.53327 7.53334 l -1.03931,22.651577 c -0.57205,12.458359 -1.45026,30.892496 -1.95107,40.963646 -0.81726,16.43547 -1.38478,18.48107 -5.53441,19.95093 -4.02638,1.42623 -4.74666,0.14223 -5.58221,-9.94084 -0.52771,-6.36768 -0.95961,-25.53996 -0.95961,-42.602503 z m 360.73099,0 h 7.48548 7.48225 l -1.052,30.530387 c -0.57916,16.791706 -1.41603,35.217906 -1.86182,40.948266 -0.60633,7.79359 -1.9744,10.8341 -5.42602,12.05673 -4.44478,1.57443 -4.65167,0.90327 -5.60772,-18.29669 -0.54587,-10.96265 -0.99606,-30.128757 -1.00422,-42.587116 z m -114.25869,32.023049 c 0.73961,0 1.47925,0.27685 2.04033,0.823273 1.12219,1.092844 0.20413,1.985092 -2.04033,1.985092 -2.24436,0 -3.1625,-0.892248 -2.04031,-1.985092 0.56108,-0.54641 1.30072,-0.823273 2.04031,-0.823273 z m 266.05949,0 c 0.73964,0 1.47926,0.27685 2.04036,0.823273 1.12217,1.092844 0.2039,1.985092 -2.04036,1.985092 -2.24433,0 -3.1625,-0.892248 -2.04033,-1.985092 0.5611,-0.54641 1.30073,-0.823273 2.04033,-0.823273 z"
         sodipodi:nodetypes="ccssccsccccsccccccscccscccscccssccccssccccccccscccsssssssccscccccsssssssscccscccssssssssccssssssssccccsssssccsssssssssssscssssscssscssssssccssscsscccccssssssssscccsssssssssssssssssssssssssssssssssssssscssscccccsscccsssssccscsscccsccsssssssssssssssssscssssssscccsscccscccssssssscccsscccsccsssssssssscsssccsssccssscssssssssssssssscssccssscsssssssssssssssssssssssssssssssssssssssssssssssssssssssssscssccccssssccccssssccsssssssscsccc" />
      <path
         style="font-variation-settings:normal;opacity:1;vector-effect:none;fill:#fa0000;fill-opacity:1;stroke-width:0.915077;stroke-linecap:butt;stroke-linejoin:miter;stroke-miterlimit:4;stroke-dasharray:none;stroke-dashoffset:0;stroke-opacity:1;stop-color:#000000;stop-opacity:1"
         d="M -24.051073,177.76529 -53.71872,177.43923 V 98.186905 18.934577 H 146.02834 345.7754 v 79.264706 79.264707 h -45.14387 c -24.82913,0 -101.36487,0.14115 -170.07941,0.31368 -68.714549,0.17252 -138.2859873,0.16695 -154.603193,-0.0124 z m 1.448616,-9.94599 6.930796,-0.58587 0.07891,-20.4759 0.07891,-20.47589 3.557878,19.92941 c 2.6529351,14.86038 3.9577228,20.2388 5.1299128,21.14585 1.1327678,0.87652 3.4317342,1.08403 8.2274445,0.74262 3.6604741,-0.26059 6.8347347,-0.65312 7.0539121,-0.8723 0.2191782,-0.21918 1.7144706,-7.81696 3.3228746,-16.88396 1.608402,-9.067 3.223994,-16.18583 3.590204,-15.81962 0.366208,0.36622 0.665834,7.87213 0.665834,16.67983 v 16.01399 l 12.908823,0.59054 c 7.099853,0.32479 18.473315,0.59203 25.274354,0.59385 l 12.365529,0.004 0.968452,-4.30294 c 0.53265,-2.36662 1.219046,-6.34117 1.525325,-8.83235 0.99368,-8.0823 0.55103,-7.7 8.91554,-7.7 h 7.482996 l 1.288309,9.73823 1.288319,9.73824 25.591174,0.24058 25.59118,0.24058 0.0139,-20.17 c 0.007,-11.09349 0.37832,-20.7457 0.82374,-21.44936 0.88307,-1.39501 1.75113,1.2198 8.21056,24.73202 2.03802,7.41837 4.09816,14.22164 4.57808,15.11838 0.54555,1.01936 2.41459,1.86168 4.98689,2.24741 5.75642,0.86323 20.14174,0.0537 21.39969,-1.2042 1.25413,-1.25413 -0.62169,-9.23199 -8.28943,-35.25498 -4.53175,-15.38 -4.99404,-17.65181 -3.79258,-18.63714 1.83885,-1.50806 8.80595,-12.36806 9.62633,-15.005088 0.36043,-1.158576 0.83325,-1.928589 1.0507,-1.711138 0.34586,0.345859 12.08607,68.825836 12.11171,70.646906 0.005,0.38491 7.4423,0.58874 16.52641,0.45294 l 16.51657,-0.24722 7.26285,-46.12757 7.26286,-46.127582 0.56904,15.780519 c 0.31299,8.679284 0.61872,29.475193 0.67942,46.213133 l 0.11036,30.43262 12.90882,0.59054 c 7.09986,0.32479 18.31015,0.59203 24.91177,0.59385 10.78878,0.003 12.01356,-0.15704 12.10802,-1.58198 0.0905,-1.36485 0.16653,-1.34495 0.54691,0.14303 0.42543,1.66419 1.31784,1.70643 24.04604,1.1381 12.98232,-0.32463 23.80546,-0.79147 24.05141,-1.03744 0.24597,-0.24596 0.64365,-6.56707 0.88374,-14.04692 l 0.43652,-13.59971 H 328.23378 317.69304 V 83.117957 26.818984 l -7.47353,0.581779 c -4.11044,0.319978 -26.89252,0.584222 -50.62683,0.587208 l -43.15331,0.0054 -1.07994,5.723466 c -0.59397,3.147907 -2.82,17.721289 -4.94675,32.385294 -2.36803,16.327656 -4.09074,25.784025 -4.44453,24.397122 -0.31776,-1.245588 -2.44054,-15.513235 -4.7173,-31.705882 -2.27677,-16.192647 -4.48834,-29.791925 -4.91461,-30.220619 -0.42626,-0.428692 -6.95953,-0.998647 -14.51836,-1.266565 l -13.74335,-0.487125 0.66059,7.572884 -1.10094,3.889689 -5.78226,-6.326842 c -6.95171,-7.606439 -8.36625,-4.738462 -26.98697,-5.29126 -7.7314,-0.229524 -16.54529,0.477375 -19.41014,0.45842 l -5.20882,-0.03446 -0.0724,45.973529 -0.0724,45.973528 -6.69727,-43.019154 C 99.720466,52.354886 96.467968,31.909343 96.176192,30.580881 95.649367,28.182258 95.572612,28.16093 85.115749,27.507561 73.711623,26.795004 61.490754,27.468608 60.071381,28.887973 59.58389,29.375469 56.062852,50.469355 52.246859,75.763276 L 45.308715,121.75222 44.605533,74.31161 43.902351,26.870996 27.191898,27.247309 C 15.760669,27.504736 10.274187,27.958975 9.8254029,28.685123 9.4645791,29.268948 7.1612744,42.05422 4.7069484,57.096837 L 0.24453657,84.447051 -4.5001409,56.446696 C -7.1097126,41.046502 -9.2640929,28.34443 -9.2876513,28.219872 -9.3112096,28.095313 -17.01073,27.993401 -26.397696,27.993401 h -17.067211 l -0.534515,57.297059 c -0.293983,31.51338 -0.298833,62.88174 -0.01078,69.70747 0.493015,11.68238 0.635458,12.43241 2.428197,12.78546 3.222719,0.63466 11.706483,0.65071 18.979546,0.0359 z"
         id="path4226"
         transform="translate(1.3588235,-20.835294)"
         sodipodi:nodetypes="ccccccccssscccccssssssscsccsssccccccssssssssscccccsscssssssscccccsscsssssscccsssccccsssccccssscssscssssc" />
      <path
         style="font-variation-settings:normal;opacity:1;vector-effect:none;fill:#fae8d1;fill-opacity:1;stroke-width:0.915077;stroke-linecap:butt;stroke-linejoin:miter;stroke-miterlimit:4;stroke-dasharray:none;stroke-dashoffset:0;stroke-opacity:1;stop-color:#000000;stop-opacity:1"
         d="m 273.98422,83.48635 -6.11471,-0.316905 V 69.622599 56.075754 h 10.41765 10.41765 V 70.11693 84.158107 l -4.30294,-0.177426 c -2.36662,-0.09759 -7.05456,-0.320034 -10.41765,-0.494331 z"
         id="path4228"
         transform="translate(1.3588235,-20.835294)" />
      <path
         style="font-variation-settings:normal;opacity:1;vector-effect:none;fill:#fae8d1;fill-opacity:1;stroke-width:0.915077;stroke-linecap:butt;stroke-linejoin:miter;stroke-miterlimit:4;stroke-dasharray:none;stroke-dashoffset:0;stroke-opacity:1;stop-color:#000000;stop-opacity:1"
         d="m 277.15481,139.64713 -9.2853,-0.29358 v -13.5017 -13.50171 l 10.41943,-0.28131 10.41943,-0.28131 -0.002,14.26765 c -10e-4,10.91131 -0.26813,14.2227 -1.1341,14.07659 -0.6228,-0.10507 -5.31074,-0.32316 -10.41765,-0.48463 z"
         id="path4230"
         transform="translate(1.3588235,-20.835294)" />
      <path
         style="font-variation-settings:normal;opacity:1;vector-effect:none;fill:#fa0000;fill-opacity:1;stroke-width:0.915077;stroke-linecap:butt;stroke-linejoin:miter;stroke-miterlimit:4;stroke-dasharray:none;stroke-dashoffset:0;stroke-opacity:1;stop-color:#000000;stop-opacity:1"
         d="m 72.903683,121.42767 c -1.815749,0.0439 4.609894,-33.827351 4.983112,-34.200569 1.983098,12.597015 2.807054,21.816029 4.5231,34.072179 h -4.199602 c -3.752872,0 0,0 -5.30661,0.12839 z"
         id="path4236"
         transform="translate(1.3588235,-20.835294)"
         sodipodi:nodetypes="sccss" />
      <path
         style="font-variation-settings:normal;opacity:1;vector-effect:none;fill:#fa0000;fill-opacity:1;stroke-width:0.915077;stroke-linecap:butt;stroke-linejoin:miter;stroke-miterlimit:4;stroke-dasharray:none;stroke-dashoffset:0;stroke-opacity:1;stop-color:#000000;stop-opacity:1"
         d="m 138.26346,81.851687 c -0.65128,-14.408464 -0.30518,-23.964168 1.35095,-23.964168 1.96468,0 8.55882,6.156341 9.64743,10.179282 1.33543,4.935077 0.63219,13.91058 -1.40595,17.944005 -1.6129,3.191908 -7.68298,8.432285 -8.76135,8.432285 -0.32818,0 -0.52602,-5.842285 -0.83108,-12.591404 z"
         id="path4238"
         transform="translate(1.3588235,-20.835294)"
         sodipodi:nodetypes="ssssss" />
      <path
         style="font-variation-settings:normal;opacity:1;vector-effect:none;fill:#fa0000;fill-opacity:1;stroke-width:0.915077;stroke-linecap:butt;stroke-linejoin:miter;stroke-miterlimit:4;stroke-dasharray:none;stroke-dashoffset:0;stroke-opacity:1;stop-color:#000000;stop-opacity:1"
         d="m 268.07177,126.05517 0.25069,-13.36177 10.19117,-0.25614 10.19118,-0.25614 -0.008,8.86202 c -0.004,4.87412 -0.26494,11.00217 -0.57913,13.61791 l 9.1e-4,5.63133 -10.4349,-0.87545 h -9.86274 z"
         id="path4240"
         transform="translate(1.3588235,-20.835294)"
         sodipodi:nodetypes="cccccscccc" />
      <path
         style="font-variation-settings:normal;opacity:1;vector-effect:none;fill:#fa0000;fill-opacity:1;stroke-width:0.915077;stroke-linecap:butt;stroke-linejoin:miter;stroke-miterlimit:4;stroke-dasharray:none;stroke-dashoffset:0;stroke-opacity:1;stop-color:#000000;stop-opacity:1"
         d="M 277.60775,83.482126 267.86951,83.19093 V 69.633341 56.075754 h 10.41765 10.41765 V 70.11693 c 0,7.722647 -0.30574,13.9546 -0.67941,13.848784 -0.37368,-0.105815 -5.06162,-0.323431 -10.41765,-0.483588 z"
         id="path4242"
         transform="translate(1.3588235,-20.835294)" />
      <path
         style="font-variation-settings:normal;opacity:1;vector-effect:none;fill:#ff0000;fill-opacity:1;stroke:none;stroke-width:0.458;stroke-linecap:butt;stroke-linejoin:miter;stroke-miterlimit:4;stroke-dasharray:none;stroke-dashoffset:0;stroke-opacity:1;stop-color:#000000;stop-opacity:1"
         d="m -51.446092,177.16599 -2.151471,-0.16964 V 97.982929 18.96951 H 145.92303 345.44361 v 78.963496 78.963504 l -45.18088,0.30095 c -45.92118,0.30589 -347.772906,0.27888 -351.708822,-0.0315 z m 35.895588,-9.74703 0.03968,-15.90855 c 0.02182,-8.7497 0.174692,-19.48988 0.339706,-20.73547 0.276921,-2.09031 0.416136,0.96024 1.807787,8.90339 2.25464,12.86886 4.5460581,24.06187 5.323894,26.00586 0.869185,2.17232 1.2104472,11.40186 5.0554875,11.39751 15.6121785,0.4456 11.2815863,-4.5042 13.6133485,-21.17166 2.600347,-16.87176 4.44136,-30.43418 4.816083,-29.47948 0.184976,0.47127 0.306191,1.53716 0.296636,9.78703 -9.1210265,44.31968 2.420742,32.81606 23.419634,32.05758 l 27.6197,0.30003 c 0,0 0.537805,-2.22051 0.765779,-3.35137 0.629329,-3.12176 1.167913,-6.103 1.659413,-9.46608 1.199307,-8.20626 0.815801,-7.87527 9.366407,-8.08382 l 6.686485,-0.16308 1.27122,9.67198 c 0.699169,5.31959 1.371569,9.77389 1.494217,9.89844 0.122647,0.12456 11.69105,0.2947 25.707567,0.37809 l 25.48456,0.15162 0.27471,-19.62809 c 0.15108,-10.79545 0.45289,-20.23956 0.67068,-20.98691 l 0.39598,-1.35882 0.93775,2.49845 c 0.51576,1.37416 2.67614,8.71181 4.80085,16.30588 2.1247,7.59409 4.44328,15.64184 5.15239,17.8839 1.20999,3.82572 1.40008,4.13219 3.09025,4.98236 1.63922,0.82452 2.67554,0.90376 11.5392,0.88229 6.32576,-0.0153 10.41279,-0.21984 11.66323,-0.58363 1.91695,-0.55771 1.925,-0.56907 1.925,-2.71785 0,-2.90807 -2.16985,-11.5477 -7.89319,-31.42799 -2.63403,-9.14948 -4.78916,-17.43034 -4.78916,-18.4019 0,-1.10073 8.45237,-16.092972 6.84227,-12.95728 -0.69799,1.35934 2.8841,-11.568196 1.7182,-20.414446 l -1.2865,-17.740981 5.33448,43.044607 c 1.79044,14.44728 8.93039,51.76799 9.59548,56.33355 l 0.54138,3.71638 1.90678,0.28594 c 2.60322,0.39038 30.90073,0.0659 31.32522,-0.35925 0.18704,-0.1873 3.46284,-20.16201 7.27955,-44.38823 3.81671,-24.226227 14.66668,-94.214842 14.71622,-94.463959 0.33435,-1.681345 -6.92255,68.998 -6.61898,101.428299 l 0.35454,37.87673 4.57068,0.27719 c 7.54974,0.45785 42.0865,0.90087 43.88766,0.56297 1.12916,-0.21183 1.70927,-0.56489 1.70996,-1.0862 0.21869,-165.659009 0.32077,-206.198715 0.29438,-0.0927 -5e-5,0.39984 0.48285,0.82916 0.75689,1.01219 1.25284,0.83673 46.64581,-0.10676 47.53232,-0.98795 0.40482,-0.40238 0.98182,-9.20855 1.37419,-20.97276 l 0.23794,-7.13383 H 328.43582 317.8142 V 82.790503 26.58208 l -2.37794,0.29402 c -1.30787,0.161711 -24.11989,0.399792 -50.69339,0.529068 -40.38722,0.196478 -48.35461,0.337109 -48.55412,0.857022 -0.37282,0.971545 -2.30312,12.943938 -5.03772,31.245556 -2.48784,16.650199 -5.9966,48.719574 -6.30321,49.026194 -0.24084,0.24083 -2.2682,-20.158913 -3.67119,-42.911488 -1.37353,-22.274712 -3.63787,-33.206315 -4.32538,-35.836868 -0.40147,-1.536088 -0.56456,-1.656476 -2.5784,-1.903305 -3.43919,-0.421529 -25.92548,-1.367507 -26.19115,-1.101839 -0.2329,0.232906 1.36411,10.099446 1.90564,12.691748 l 2.61626,13.130432 1.65516,11.343343 c -1.43474,-6.023185 -6.34932,-19.508094 -8.78397,-22.803338 -4.41607,-5.97706 -11.5231,-11.954013 -20.97692,-13.590508 -3.64946,-0.631737 -15.7126,-0.132598 -28.5822,-0.623919 l -6.00147,-0.229117 -0.0401,44.260213 3.85844,96.500066 -8.81739,-83.492791 C 96.248989,28.904791 96.339102,29.416648 95.177276,28.65539 92.055773,26.610102 62.276598,26.62514 60.173388,28.673064 59.262605,29.559907 56.60707,45.366563 49.843422,90.160522 47.636339,104.77749 42.011549,168.11563 41.908274,168.01236 41.716309,167.82039 44.304073,48.010516 44.261352,34.214787 l -0.02362,-7.628249 -12.116176,0.304909 C 19.086478,27.21948 10.314684,27.794639 9.7651844,28.357335 9.3064229,28.827113 6.4117755,44.980305 3.209033,64.94304 1.7702019,73.911275 0.46970364,81.398542 0.31903728,81.581413 0.16837093,81.764288 -1.9686463,69.942523 -4.4298924,55.310827 -6.8911385,40.679132 -9.02672,28.562688 -9.1756289,28.385396 -9.3245424,28.208104 -17.107761,27.921366 -26.471671,27.7482 l -17.025292,-0.314847 -0.291764,16.716608 c -0.607557,34.810054 -0.825906,101.029629 -0.366998,111.301029 0.502514,11.24735 0.755344,12.27716 3.117383,12.69751 20.366719,-0.50751 18.435885,-0.3292 25.487838,-0.72954 z"
         id="path4248"
         transform="translate(1.3588235,-20.835294)"
         sodipodi:nodetypes="ccccccccssccssssccscccasscssscsscssssssssssccsscssssscssssssscccccssssssssssccsssccccssssscssssssscsscc" />
      <path
         style="font-variation-settings:normal;opacity:1;vector-effect:none;fill:#fae8d1;fill-opacity:1;stroke-width:0.228769;stroke-linecap:butt;stroke-linejoin:miter;stroke-miterlimit:4;stroke-dasharray:none;stroke-dashoffset:0;stroke-opacity:1;stop-color:#000000;stop-opacity:1"
         d="m -41.266484,168.21221 c -0.279502,-0.081 3.338365,-0.17056 8.039705,-0.19902 13.43053,0.35007 8.230265,0.45795 17.493479,-0.79001 0.190311,-24.12388 0.09691,-14.69728 0.108528,0.23779 -0.523015,0.55817 -23.940587,1.24425 -25.641712,0.75124 z"
         id="path4254"
         transform="translate(1.3588235,-20.835294)"
         sodipodi:nodetypes="scccs" />
    </g>
  </g>
</svg>
