<?xml version="1.0" encoding="UTF-8" standalone="no"?>
<svg
   xmlns:dc="http://purl.org/dc/elements/1.1/"
   xmlns:cc="http://creativecommons.org/ns#"
   xmlns:rdf="http://www.w3.org/1999/02/22-rdf-syntax-ns#"
   xmlns:svg="http://www.w3.org/2000/svg"
   xmlns="http://www.w3.org/2000/svg"
   xmlns:sodipodi="http://sodipodi.sourceforge.net/DTD/sodipodi-0.dtd"
   xmlns:inkscape="http://www.inkscape.org/namespaces/inkscape"
   version="1.1"
   id="svg34"
   width="1200"
   height="120"
   viewBox="0 0 1200 120"
   sodipodi:docname="header1.svg"
   inkscape:version="1.0.1 (3bc2e813f5, 2020-09-07)">
  <metadata
     id="metadata40">
    <rdf:RDF>
      <cc:Work
         rdf:about="">
        <dc:format>image/svg+xml</dc:format>
        <dc:type
           rdf:resource="http://purl.org/dc/dcmitype/StillImage" />
        <dc:title></dc:title>
      </cc:Work>
    </rdf:RDF>
  </metadata>
  <defs
     id="defs38" />
  <sodipodi:namedview
     pagecolor="#ffffff"
     bordercolor="#666666"
     borderopacity="1"
     objecttolerance="10"
     gridtolerance="10"
     guidetolerance="10"
     inkscape:pageopacity="0"
     inkscape:pageshadow="2"
     inkscape:window-width="1920"
     inkscape:window-height="1017"
     id="namedview36"
     showgrid="false"
     inkscape:zoom="0.78057242"
     inkscape:cx="509.88939"
     inkscape:cy="70.628137"
     inkscape:window-x="-8"
     inkscape:window-y="-8"
     inkscape:window-maximized="1"
     inkscape:current-layer="g4276"
     inkscape:document-rotation="0"
     units="px" />
  <g
     inkscape:groupmode="layer"
     inkscape:label="Image"
     id="g42">
    <path
       style="font-variation-settings:normal;vector-effect:none;fill:#fae8d1;fill-opacity:1;stroke-width:0.915077;stroke-linecap:butt;stroke-linejoin:miter;stroke-miterlimit:4;stroke-dasharray:none;stroke-dashoffset:0;stroke-opacity:1;stop-color:#000000"
       d=""
       id="path4234" />
    <path
       style="font-variation-settings:normal;vector-effect:none;fill:#fae8d1;fill-opacity:1;stroke-width:0.457539;stroke-linecap:butt;stroke-linejoin:miter;stroke-miterlimit:4;stroke-dasharray:none;stroke-dashoffset:0;stroke-opacity:1;stop-color:#000000"
       d=""
       id="path4246" />
    <path
       style="font-variation-settings:normal;vector-effect:none;fill:#fae8d1;fill-opacity:1;stroke-width:0.323529;stroke-linecap:butt;stroke-linejoin:miter;stroke-miterlimit:4;stroke-dasharray:none;stroke-dashoffset:0;stroke-opacity:1;stop-color:#000000"
       d=""
       id="path4252" />
    <g
       id="g4276"
       transform="matrix(1.1195462,0,0,0.73168989,809.59873,3.3249)">
      <g
         id="g3372"
         transform="translate(-66.129412,-55.485294)"
         style="fill:#000000;fill-opacity:1;stroke:#000000;stroke-opacity:1" />
      <path
         id="path3346-1"
         style="color:#000000;font-style:normal;font-variant:normal;font-weight:normal;font-stretch:normal;font-size:medium;line-height:normal;font-family:sans-serif;font-variant-ligatures:normal;font-variant-position:normal;font-variant-caps:normal;font-variant-numeric:normal;font-variant-alternates:normal;font-variant-east-asian:normal;font-feature-settings:normal;font-variation-settings:normal;text-indent:0;text-align:start;text-decoration:none;text-decoration-line:none;text-decoration-style:solid;text-decoration-color:#000000;letter-spacing:normal;word-spacing:normal;text-transform:none;writing-mode:lr-tb;direction:ltr;text-orientation:mixed;dominant-baseline:auto;baseline-shift:baseline;text-anchor:start;white-space:normal;shape-padding:0;shape-margin:0;inline-size:0;clip-rule:nonzero;display:inline;overflow:visible;visibility:visible;isolation:auto;mix-blend-mode:normal;color-interpolation:sRGB;color-interpolation-filters:linearRGB;solid-color:#000000;solid-opacity:1;vector-effect:none;fill:#000000;fill-opacity:1;fill-rule:nonzero;stroke:none;stroke-width:2.53578;stroke-linecap:butt;stroke-linejoin:miter;stroke-miterlimit:4;stroke-dasharray:none;stroke-dashoffset:0;stroke-opacity:1;color-rendering:auto;image-rendering:auto;shape-rendering:auto;text-rendering:auto;enable-background:accumulate;stop-color:#000000;stop-opacity:1"
         d="m -446.06316,-3.7751577 -9.39508,2.6621758 c -5.16712,1.46566752 -10.02799,3.61256 -10.80423,4.7703705 -0.77621,1.1578045 -1.41227,35.9277874 -1.41227,77.2646574 v 75.156444 l 14.28232,-2.7468 c 21.39901,-4.10794 21.18694,-3.85463 22.45325,-26.07547 1.44894,-25.42582 0.36269,-28.692219 -8.83082,-26.56022 l -7.57793,1.75427 0.64079,-53.112711 z m -253.24685,1.0848764 c -1.93216,0.061559 -4.33853,0.7315051 -7.37707,1.83120622 l -6.72034,2.43134908 -3.96272,54.059099 c -2.17848,29.732524 -3.9978,61.973077 -4.04241,71.647937 l -0.0797,17.58882 7.34521,3.09303 c 4.03986,1.7007 8.16364,2.35572 9.16237,1.45421 0.99873,-0.90153 2.37448,-14.63969 3.05734,-30.53041 l 1.24012,-28.891516 3.60885,25.606136 c 1.98534,14.08336 4.66049,26.09722 5.94248,26.6987 1.45279,0.68164 3.95216,-7.48019 6.63745,-21.66674 l 4.3102,-22.759285 0.15949,22.328415 c 0.0878,12.28116 0.60595,25.13347 1.15087,28.56069 1.03964,6.5386 8.03738,8.20228 15.16224,3.60085 l 3.9117,-2.53138 -1.13814,-70.986211 c -0.62491,-39.045886 -1.50983,-72.4555627 -1.967,-74.2408475 -0.45717,-1.7852859 -5.12287,-3.2469327 -10.36744,-3.2469327 h -9.53537 l -3.01589,17.8350402 -3.01906,17.827343 -1.71196,-18.812192 c -1.43577,-15.7713907 -2.95463,-21.0826383 -8.75112,-20.8973113 z m 531.36666,1.6080744 c -1.96092,-0.075756 -4.9185,0.71267281 -7.99557,2.2543843 l -8.95197,4.477999 -1.15725,20.5049046 -1.15724,20.50491 -4.78204,-22.651575 c -4.99615,-23.66231384 -5.65211,-24.47549746 -16.29079,-20.2279246 l -5.85003,2.3313331 -1.90642,61.6378355 c -2.77506,89.66981 -3.13593,83.30455 4.73422,83.30455 11.13782,0 12.94159,-4.52575 13.0103,-32.63858 l 0.0604,-24.482782 5.9297,32.500092 c 3.26153,17.87505 6.72287,32.48921 7.69269,32.477 0.96986,-0.0119 4.51744,-1.86764 7.884,-4.12406 4.66787,-3.12865 6.13655,-6.16176 6.18795,-12.77998 0.0371,-4.77318 1.43867,-37.92909 3.11468,-73.67918 1.67605,-35.750099 2.46,-66.4973467 1.74066,-68.32405038 -0.26975,-0.68501213 -1.08694,-1.03942522 -2.26347,-1.08487652 z M -386.0614,0.21041085 -406.56992,2.3493816 c -11.2791,1.1756195 -20.71026,2.7593087 -20.96125,3.5239195 -0.25103,0.7646122 -0.11333,33.9796769 0.30922,73.8099779 l 0.76833,72.417341 12.98161,-2.60832 c 7.13917,-1.43692 16.22765,-3.68842 20.19611,-5.00119 l 7.2145,-2.38519 v -18.84296 c 0,-27.79807 -0.95683,-31.249408 -8.74474,-31.607578 -3.71935,-0.171061 -5.84363,-1.207709 -4.72146,-2.300551 1.19404,-1.162805 2.04033,-9.107746 2.04033,-19.150743 0,-16.929766 -0.0826,-17.180036 -6.12101,-18.704473 -4.27522,-1.079304 -3.14188,-1.74569 3.7555,-2.208222 5.43138,-0.364235 10.75663,-2.785901 11.83392,-5.385904 1.07729,-2.600009 1.95746,-13.498236 1.95746,-24.213493 z m 266.05951,0.0846198 -20.42567,1.90045425 c -11.23415,1.0444823 -20.7044,2.6124103 -21.04412,3.4854492 -0.33971,0.8730459 -0.21947,34.1679369 0.26463,73.9946369 l 0.87987,72.417349 12.94654,-2.60833 c 7.12126,-1.43333 16.19579,-3.68072 20.16424,-4.9935 7.20781,-2.38428 7.2144,-2.40731 7.1922,-18.59676 -0.0404,-29.444301 -1.17742,-33.890445 -8.73839,-34.238966 -3.71071,-0.17106 -5.82771,-1.207703 -4.70552,-2.300544 1.19404,-1.162812 2.04034,-9.107746 2.04034,-19.150743 0,-16.929773 -0.0826,-17.180036 -6.12099,-18.704478 -4.13792,-1.044634 -2.83444,-1.760542 4.02327,-2.208218 11.67546,-0.762194 13.5236,-5.192795 13.5236,-32.446232 z m -179.4091,0.0307857 -8.22189,1.90044735 c -10.92487,2.5335015 -22.40565,19.8623903 -26.83038,40.4943113 -2.13096,9.936397 -3.56745,25.21711 -3.88621,41.363752 -0.61289,31.045763 3.78781,53.207113 12.70745,64.007633 6.70646,8.12069 23.25809,9.39802 25.63488,1.9774 0.86746,-2.70834 1.14199,-14.67429 0.6089,-26.59099 -1.04428,-23.34327 -0.20342,-22.0066 -11.77336,-18.71217 -4.8731,1.38757 -7.42567,-9.632423 -5.426,-23.428688 1.35906,-9.376491 2.70529,-11.338087 8.91688,-13.010805 l 7.31332,-1.969689 0.47822,-33.015597 z M -82.874226,1.2183431 c -8.659257,-0.42793261 -17.979934,5.8234656 -24.401094,17.1810359 -5.20576,9.207773 -9.46205,32.672435 -9.46205,52.158645 0,25.958109 11.66485,41.623316 21.515965,28.899225 2.64125,-3.411579 3.191242,-3.204131 2.617351,0.984851 -0.489868,3.57598 -4.277259,5.68584 -11.613966,6.47078 l -10.88708,1.1695 v 20.82807 c 0,11.4566 0.55088,22.17223 1.22418,23.81338 0.67332,1.64125 7.00695,4.87143 13.7627,1.62347 6.755761,-3.24795 18.247619,-6.9357 24.901639,-28.44527 4.453026,-14.39466 4.699306,-49.252273 0.427191,-60.64528 -3.741124,-9.977033 -10.245162,-13.124636 -18.2004,-8.79441 -5.850309,3.184446 -6.077821,2.980337 -3.510019,-3.200766 2.001005,-4.816693 5.368545,-6.486296 12.436482,-6.170713 10.496512,0.468704 10.251627,0.994498 12.264304,-26.475564 0.922946,-12.5965183 0.608042,-14.5075013 -2.767196,-16.6886111 -2.608,-1.6853129 -5.421563,-2.565709 -8.308007,-2.7083428 z M -594.67596,1.3260115 c -2.17092,2.892e-4 -4.7778,0.4443279 -7.8744,1.2156744 -17.00289,4.2352541 -26.7188,27.5552511 -26.7188,64.1153511 0,17.776554 0.62467,21.982256 4.30064,28.96077 4.70642,8.934823 9.54631,10.243703 15.9975,4.324123 2.30278,-2.113043 4.18586,-2.304412 4.18586,-0.423156 0,5.530476 -4.56384,8.201956 -14.00815,8.201956 h -8.84359 v 21.01272 c 0,11.5556 0.4886,22.19199 1.08713,23.63644 0.59846,1.44443 5.55647,2.58666 11.01779,2.53907 19.26803,-0.16791 30.31541,-22.1179 30.32764,-60.252894 0.002,-10.434138 -0.74156,-22.335171 -1.65458,-26.452486 -2.30277,-10.384634 -12.5823,-16.524971 -19.57127,-11.687415 -5.2692,3.647175 -5.40419,3.498216 -2.70026,-3.008416 2.13333,-5.133504 5.23647,-6.679187 12.39503,-6.178401 9.41527,0.658658 9.56281,0.499862 10.54281,-11.325789 2.1817,-26.3274346 0.92399,-34.6787791 -8.48335,-34.677529 z m 71.50414,0.030786 -6.121,0.08462 c -20.92037,0.295695 -37.24722,54.8441575 -31.6188,105.6329725 2.24526,20.26035 5.14095,29.70589 12.43967,40.58664 5.45366,8.13021 24.31589,10.42757 26.17046,3.18539 0.58438,-2.28228 0.5467,-14.8611 -0.0831,-27.95285 -1.23537,-25.689118 -0.89545,-25.194387 -11.66498,-17.08871 -5.13569,3.86544 -8.00253,-10.057101 -5.09765,-24.752068 1.74752,-8.840145 3.36043,-10.969013 9.05082,-11.964407 l 6.9244,-1.215656 V 34.618603 Z m 179.54936,0 -6.12101,0.08462 c -14.27084,0.2017165 -27.88553,27.3803665 -31.39244,62.6611605 -3.7098,37.322192 0.4993,66.414512 12.06986,83.443042 5.59806,8.23875 24.44394,10.60313 26.3139,3.3008 0.58441,-2.28228 0.5467,-14.8611 -0.0831,-27.95285 -1.23675,-25.718382 -0.86909,-25.188126 -11.7574,-17.02715 -2.87897,2.15783 -4.02122,0.63045 -5.53761,-7.40178 -1.56235,-8.275802 -1.41632,-11.940031 0.80657,-20.127886 2.15643,-7.942788 4.0593,-10.010073 9.21024,-10.010073 h 6.4908 V 34.841735 Z m 59.50443,0.06156 c -3.3527,-0.1557937 -6.61559,2.2939234 -8.8149,7.6018172 -3.96037,9.5582113 -4.40274,28.6655513 -0.82888,35.8239623 2.01455,4.035078 2.0971,5.701947 0.40808,8.225046 -1.59727,2.386017 -1.9727,14.569561 -1.53346,49.588797 0.3203,25.53486 0.91387,47.75605 1.31985,49.38106 0.94784,3.79372 13.83855,3.74466 16.2621,-0.0616 2.40989,-3.78473 6.15014,-95.483337 4.09662,-100.439428 -0.94204,-2.273521 -0.50567,-7.956741 1.14447,-14.895877 2.52487,-10.61757 2.48434,-11.805491 -0.73961,-22.26687 -2.54378,-8.2542565 -7.0037,-12.7566608 -11.31427,-12.9569393 z m -359.57694,0.069227 c -3.49251,-0.2061764 -7.19015,1.7675082 -9.69476,6.0014366 -4.40165,7.4407389 -4.889,27.3142039 -0.92771,37.8783019 2.52012,6.720768 2.50986,7.201695 -0.17854,7.201695 -2.66161,0 -2.79297,3.68687 -1.70243,48.257712 0.64945,26.54174 1.50911,49.58725 1.90963,51.21225 1.21303,4.92176 14.70905,3.30575 16.45019,-1.9697 2.66238,-8.0667 5.45816,-94.834883 3.16569,-98.25429 -1.4502,-2.163161 -1.42365,-4.042778 0.11156,-7.748005 2.88723,-6.968185 2.50815,-27.025745 -0.67266,-35.5085035 -1.68025,-4.4809579 -4.96849,-6.8647635 -8.461,-7.0709213 z m 400.492,1.2695366 c -6.29812,-0.3691321 -12.79621,7.3807209 -17.57239,22.8054549 -13.13597,42.422873 -10.24656,111.649544 5.29532,126.861144 4.35231,4.25983 18.6086,-1.01074 22.82942,-8.44048 13.42727,-23.63549 14.99744,-92.109783 2.8756,-125.430033 -3.75046,-10.3091673 -8.52944,-15.5089771 -13.42795,-15.7960859 z m -250.87815,0.1076684 c -7.53782,0.7397976 -15.30698,13.4098795 -20.49581,40.7636095 -3.41321,17.993554 -3.94685,25.846728 -3.43349,50.381286 0.65324,31.221295 3.69258,46.335145 11.31748,56.228845 2.28307,2.96243 7.21629,4.42382 11.79887,3.50084 14.22632,-2.86534 22.15416,-25.69777 23.55628,-67.854698 1.74081,-52.33965 -10.18035,-84.2528703 -22.74333,-83.0198825 z m -211.80577,6.3245784 c 0.93199,0.08455 2.07953,0.5477932 3.54827,0.8078884 6.74172,1.1939647 6.81884,1.3846047 8.52157,20.8511457 2.3711,27.107192 5.92278,27.851556 10.495,2.200527 3.38585,-18.995487 3.8237,-19.873986 9.87965,-19.873986 h 6.3378 l 0.98827,34.469789 c 0.54379,18.958385 1.3874,47.99868 1.87456,64.538518 l 0.88628,30.07644 -5.80858,1.63885 c -5.57163,1.56984 -5.80858,1.12523 -5.80858,-10.78719 0,-27.8861 -2.17459,-60.845341 -4.0137,-60.845341 -1.05362,0 -4.12545,11.96594 -6.82875,26.590979 l -4.91595,26.590972 -3.8862,-28.691479 c -4.81573,-35.563252 -8.27402,-37.188483 -10.09643,-4.747164 -2.5988,46.261493 -2.74213,47.226683 -7.1093,47.226683 -2.23187,0 -4.51567,-2.86305 -5.07214,-6.36305 -0.55651,-3.50001 0.60484,-28.76145 2.5791,-56.136519 4.41134,-61.167462 4.39056,-67.9132119 8.42913,-67.5469435 z m 255.80684,0.046492 -0.22645,52.1971091 -0.22947,52.197121 7.75328,-1.33879 c 7.66625,-1.32464 7.75325,-1.20407 7.75325,10.60254 0,6.56728 -0.69763,12.97909 -1.54939,14.24957 -0.85173,1.27047 -7.48965,3.41126 -14.75094,4.76267 l -13.20163,2.46213 1.11902,-64.615467 c 0.68841,-39.705187 1.81281,-65.722183 2.91702,-67.500777 0.98828,-1.59183 3.73819,-2.9214618 6.10826,-2.9545546 z m 279.73612,0.6232399 c 0.34328,-0.016961 0.56621,0.058423 0.64078,0.2385292 0.29822,0.719783 -0.76188,30.227492 -2.35914,65.577237 -2.03135,44.957324 -3.59947,65.328974 -5.21241,67.793154 -3.83985,5.86631 -6.3929,4.11692 -7.89356,-5.40898 -4.91598,-31.20614 -11.68324,-61.853173 -13.65747,-61.853173 -1.70058,0 -2.59128,7.980956 -3.36975,30.207233 -0.58191,16.6143 -1.24015,30.58762 -1.46328,31.05358 -0.22319,0.46595 -2.86529,2.12185 -5.87236,3.67782 -4.81189,2.48987 -5.36598,1.95618 -4.61623,-4.46262 0.46852,-4.0112 1.29681,-25.02138 1.83949,-46.6881 0.54271,-21.666723 1.40382,-47.814522 1.9128,-58.106218 0.8891,-17.977227 1.13038,-18.712175 6.16883,-18.712175 4.87848,0 5.63052,1.924119 10.77232,27.575832 3.04013,15.166713 6.44379,27.575838 7.56198,27.575838 1.82347,0 2.73828,-9.295729 4.24966,-43.102631 0.32403,-7.248641 1.77982,-10.454124 5.91377,-13.026197 2.26208,-1.407433 4.35468,-2.2885211 5.38457,-2.3390153 z m -220.61426,0.4770592 v 12.672266 c 0,12.61399 -0.0514,12.695329 -9.93389,15.188248 -11.62781,2.93319 -12.91785,4.389893 -12.91785,14.603499 0,6.294435 1.15434,7.647988 6.52904,7.647988 5.8309,0 6.52908,1.029826 6.52908,9.602293 0,7.950061 -0.91124,9.810963 -5.30486,10.833364 -4.69244,1.091938 -5.30487,2.595398 -5.30487,13.049276 v 11.818217 l 10.20166,-1.38495 10.20169,-1.37725 v 16.15002 c 0,14.99073 -0.32354,16.1625 -4.48874,16.1885 -2.46881,0.0151 -9.34305,1.13233 -15.27702,2.48519 l -10.78824,2.46214 -1.19234,-61.884043 c -0.65549,-34.034337 -0.94288,-62.404294 -0.63759,-63.045864 0.30531,-0.641573 7.71629,-2.028138 16.46932,-3.085356 z m 266.05948,0 v 12.672266 c 0,12.61399 -0.0514,12.695329 -9.93387,15.188248 -11.6278,2.93319 -12.91787,4.389893 -12.91787,14.603499 0,6.294435 1.15437,7.647988 6.52908,7.647988 5.83087,0 6.52907,1.029826 6.52907,9.602293 0,7.950061 -0.91126,9.810963 -5.30486,10.833364 -4.69247,1.091938 -5.30487,2.595398 -5.30487,13.049276 v 11.818217 l 10.20166,-1.38495 10.20166,-1.37725 v 16.15002 c 0,14.99073 -0.3235,16.1625 -4.48872,16.1885 -2.46879,0.0151 -9.36517,1.13423 -15.32483,2.4929 l -10.83606,2.46981 -1.19871,-61.760929 c -0.65972,-33.968376 -0.92482,-62.340243 -0.58978,-63.053562 0.33501,-0.713319 7.77046,-2.158934 16.5235,-3.216152 z m -519.08318,1.354175 c 1.71525,0.288469 3.50202,1.86053 5.13272,5.047357 2.95166,5.768409 3.19243,8.131348 1.57806,15.41138 -2.26593,10.218453 -12.72004,12.368568 -14.22175,2.923777 -2.15187,-13.533968 2.36523,-24.247904 7.51097,-23.382514 z m 359.50678,0.05402 c 2.11626,-0.316364 4.44315,1.304974 6.54501,5.470542 2.97509,5.896111 3.33519,8.649666 1.88095,14.426527 -2.34828,9.328376 -13.33784,12.076728 -14.67447,3.670115 -2.03859,-12.821428 1.59278,-22.871127 6.24851,-23.567184 z m -62.41188,0.392376 v 15.957666 c 0,22.820286 -1.29813,28.414495 -6.58647,28.414495 -6.19202,0 -11.36849,16.165307 -11.36849,35.50081 0,18.702319 3.0503,24.841249 11.394,22.920859 l 6.56096,-1.50805 v 14.45731 c 0,9.54738 -0.87702,15.26319 -2.58229,16.84249 -5.37879,4.98145 -15.50027,-0.97976 -20.61058,-12.14136 -16.10638,-35.178725 -5.44193,-111.176652 16.60322,-118.312939 z m -250.44141,0.654004 c 5.09337,-0.305809 8.98572,1.833338 8.2251,6.616969 -0.5449,3.427221 -0.99147,8.745418 -0.99147,11.818212 0,4.202186 -2.42736,5.585955 -9.7936,5.585955 -7.71459,0 -10.50637,1.720248 -13.15697,8.117333 -1.85066,4.466552 -3.11114,11.114297 -2.79906,14.772767 0.4662,5.465585 2.24307,6.467387 9.96256,5.616723 11.63337,-1.281968 15.35445,3.265805 16.6861,20.397194 1.36146,17.514863 -2.90185,39.217533 -9.64377,49.104053 -5.46182,8.00938 -15.8017,12.54592 -21.86025,9.59461 -2.8045,-1.36615 -3.67262,-4.51853 -3.67262,-13.33396 0,-11.13764 0.2731,-11.54676 7.75327,-11.60279 10.19108,-0.0764 15.91461,-7.17671 15.91461,-19.750868 0,-9.425003 -0.31878,-9.699346 -10.12514,-8.609752 -9.24731,1.027471 -10.3599,0.27371 -12.79676,-8.702083 -5.03641,-18.551216 0.25159,-48.516433 10.8648,-61.583978 4.04536,-4.98087 10.33985,-7.734545 15.4332,-8.040385 z m 66.74763,0.384713 c 3.93691,0 4.14441,1.091194 4.14441,21.666728 v 21.666724 h -5.59496 c -7.22934,0 -12.35998,14.735677 -12.35998,35.500809 0,18.702312 3.05029,24.841252 11.394,22.920852 l 6.56094,-1.50805 v 14.45731 c 0,9.54738 -0.87701,15.26319 -2.58229,16.8425 -4.93377,4.56932 -15.86535,-1.77534 -20.50216,-11.90285 -10.35252,-22.61148 -10.40654,-69.793826 -0.11156,-97.269436 3.89474,-10.394318 14.09644,-22.374587 19.05167,-22.374587 z m 38.42203,0 c 2.10432,0 6.00139,5.899866 9.05077,13.703281 12.19752,31.213558 9.78536,92.988162 -4.31657,110.588002 -5.91129,7.37755 -14.4969,7.29159 -18.9241,-0.19235 -5.3152,-8.98507 -9.30309,-37.954445 -7.98917,-58.05236 2.39821,-36.683259 12.2585,-66.046573 22.17907,-66.046573 z m 183.55034,0 c 3.9563,0 4.16035,1.069289 4.16035,21.666728 0,20.632945 -0.20088,21.666724 -4.18907,21.666724 -6.65926,0 -10.242,6.845308 -12.31214,23.521017 -1.63279,13.152924 -1.5108,17.04396 0.79702,25.544574 2.14588,7.90421 4.06776,10.02548 9.08266,10.02548 5.79795,0 6.46128,1.0913 7.48227,12.31063 0.77394,8.5043 0.43659,13.35626 -1.09348,15.69607 -5.13993,7.86016 -19.8632,-2.31793 -24.58603,-16.99637 -6.04506,-18.78805 -7.10687,-49.408188 -2.49939,-72.071102 4.349,-21.391514 15.53076,-41.363751 23.15781,-41.363751 z m 223.80864,0 c 8.794902,0 9.202414,0.435093 8.266526,8.863662 -0.541318,4.875012 -0.994358,10.193207 -1.007399,11.818212 -0.01394,1.625006 -3.898507,2.954555 -8.636358,2.954555 -10.235095,0 -15.869969,7.907193 -15.869969,22.274561 0,9.898792 0.10932,9.981973 9.650123,7.309443 8.476359,-2.374314 10.064522,-1.700585 13.058146,5.524398 6.66162,16.077527 2.433601,52.375422 -7.536486,64.692402 -5.202363,6.42697 -16.239133,10.66799 -20.476643,7.87113 -1.89183,-1.24866 -2.85648,-5.78276 -2.85648,-13.41862 0,-11.13735 0.26488,-11.52582 7.7979,-11.52582 9.3072,0 15.462517,-8.79326 14.738226,-21.058882 -0.457261,-7.743409 -1.330374,-8.381153 -10.004017,-7.255584 -11.730549,1.522252 -14.164369,-2.778348 -14.164369,-25.044459 0,-31.176294 11.13455,-53.004998 27.0408,-53.004998 z m -158.53711,0.500112 c 2.39262,0.006 4.79742,1.773305 7.1029,5.670588 13.74603,23.236924 13.04089,100.034503 -1.08073,117.658933 -11.60538,14.48406 -23.17459,2.89611 -26.45419,-26.49865 -5.07279,-45.466677 7.51187,-96.861797 20.43202,-96.830871 z m -250.03971,32.176939 c -1.29889,0.188524 -2.73348,1.603929 -4.36119,4.177924 -7.11647,11.253658 -9.43418,48.416987 -4.00415,64.207688 2.57776,7.4962 10.23375,6.578 13.27172,-1.5927 4.07945,-10.9718 5.07971,-33.191359 2.2316,-49.642646 -2.08748,-12.057716 -4.28039,-17.564962 -7.13798,-17.150266 z m 249.86754,0.823273 c -8.50669,-1.237812 -15.87796,41.890526 -9.43017,64.107669 2.91393,10.04042 10.67724,11.87963 13.65113,3.23155 5.92994,-17.244558 4.98514,-57.005628 -1.55576,-65.454149 -0.89025,-1.149859 -1.78519,-1.757017 -2.6652,-1.88507 z m -250.52428,10.48713 c 0.92345,-0.400668 1.6703,1.22376 2.86605,5.170468 3.01528,9.952176 2.88557,29.705636 -0.26778,40.571241 -3.27185,11.2737 -5.25361,11.0634 -7.49186,-0.79248 -2.20966,-11.704568 -0.59525,-35.086446 2.90746,-42.102392 0.81537,-1.633198 1.43209,-2.60643 1.98613,-2.846837 z m 250.37447,0.523231 c 1.79074,0.308699 3.08485,6.852929 3.95314,19.76627 0.66776,9.931547 0.136,17.416943 -1.72792,24.282738 -1.48195,5.45864 -3.2652,9.92546 -3.96271,9.92546 -5.64976,0 -7.05552,-32.996589 -2.03714,-47.819146 1.44855,-4.278475 2.70015,-6.34056 3.77463,-6.155322 z m -408.46206,2.762305 h 7.53327 7.53334 l -1.03931,22.651577 c -0.57205,12.458359 -1.45026,30.892496 -1.95107,40.963646 -0.81726,16.43547 -1.38478,18.48107 -5.53441,19.95093 -4.02638,1.42623 -4.74666,0.14223 -5.58221,-9.94084 -0.52771,-6.36768 -0.95961,-25.53996 -0.95961,-42.602503 z m 360.73099,0 h 7.48548 7.48225 l -1.052,30.530387 c -0.57916,16.791706 -1.41603,35.217906 -1.86182,40.948266 -0.60633,7.79359 -1.9744,10.8341 -5.42602,12.05673 -4.44478,1.57443 -4.65167,0.90327 -5.60772,-18.29669 -0.54587,-10.96265 -0.99606,-30.128757 -1.00422,-42.587116 z m -114.25869,32.023049 c 0.73961,0 1.47925,0.27685 2.04033,0.823273 1.12219,1.092844 0.20413,1.985092 -2.04033,1.985092 -2.24436,0 -3.1625,-0.892248 -2.04031,-1.985092 0.56108,-0.54641 1.30072,-0.823273 2.04031,-0.823273 z m 266.05949,0 c 0.73964,0 1.47926,0.27685 2.04036,0.823273 1.12217,1.092844 0.2039,1.985092 -2.04036,1.985092 -2.24433,0 -3.1625,-0.892248 -2.04033,-1.985092 0.5611,-0.54641 1.30073,-0.823273 2.04033,-0.823273 z"
         sodipodi:nodetypes="ccssccsccccsccccccscccscccscccssccccssccccccccscccsssssssccscccccsssssssscccscccssssssssccssssssssccccsssssccsssssssssssscssssscssscssssssccssscsscccccssssssssscccsssssssssssssssssssssssssssssssssssssscssscccccsscccsssssccscsscccsccsssssssssssssssssscssssssscccsscccscccssssssscccsscccsccsssssssssscsssccsssccssscssssssssssssssscssccssscsssssssssssssssssssssssssssssssssssssssssssssssssssssssssscssccccssssccccssssccsssssssscsccc" />
      <path
         style="font-variation-settings:normal;opacity:1;vector-effect:none;fill:#fa0000;fill-opacity:1;stroke-width:0.915077;stroke-linecap:butt;stroke-linejoin:miter;stroke-miterlimit:4;stroke-dasharray:none;stroke-dashoffset:0;stroke-opacity:1;stop-color:#000000;stop-opacity:1"
         d="M -24.051073,177.76529 -53.71872,177.43923 V 98.186905 18.934577 H 146.02834 345.7754 v 79.264706 79.264707 h -45.14387 c -24.82913,0 -101.36487,0.14115 -170.07941,0.31368 -68.714549,0.17252 -138.2859873,0.16695 -154.603193,-0.0124 z m 1.448616,-9.94599 6.930796,-0.58587 0.07891,-20.4759 0.07891,-20.47589 3.557878,19.92941 c 2.6529351,14.86038 3.9577228,20.2388 5.1299128,21.14585 1.1327678,0.87652 3.4317342,1.08403 8.2274445,0.74262 3.6604741,-0.26059 6.8347347,-0.65312 7.0539121,-0.8723 0.2191782,-0.21918 1.7144706,-7.81696 3.3228746,-16.88396 1.608402,-9.067 3.223994,-16.18583 3.590204,-15.81962 0.366208,0.36622 0.665834,7.87213 0.665834,16.67983 v 16.01399 l 12.908823,0.59054 c 7.099853,0.32479 18.473315,0.59203 25.274354,0.59385 l 12.365529,0.004 0.968452,-4.30294 c 0.53265,-2.36662 1.219046,-6.34117 1.525325,-8.83235 0.99368,-8.0823 0.55103,-7.7 8.91554,-7.7 h 7.482996 l 1.288309,9.73823 1.288319,9.73824 25.591174,0.24058 25.59118,0.24058 0.0139,-20.17 c 0.007,-11.09349 0.37832,-20.7457 0.82374,-21.44936 0.88307,-1.39501 1.75113,1.2198 8.21056,24.73202 2.03802,7.41837 4.09816,14.22164 4.57808,15.11838 0.54555,1.01936 2.41459,1.86168 4.98689,2.24741 5.75642,0.86323 20.14174,0.0537 21.39969,-1.2042 1.25413,-1.25413 -0.62169,-9.23199 -8.28943,-35.25498 -4.53175,-15.38 -4.99404,-17.65181 -3.79258,-18.63714 1.83885,-1.50806 8.80595,-12.36806 9.62633,-15.005088 0.36043,-1.158576 0.83325,-1.928589 1.0507,-1.711138 0.34586,0.345859 12.08607,68.825836 12.11171,70.646906 0.005,0.38491 7.4423,0.58874 16.52641,0.45294 l 16.51657,-0.24722 7.26285,-46.12757 7.26286,-46.127582 0.56904,15.780519 c 0.31299,8.679284 0.61872,29.475193 0.67942,46.213133 l 0.11036,30.43262 12.90882,0.59054 c 7.09986,0.32479 18.31015,0.59203 24.91177,0.59385 10.78878,0.003 12.01356,-0.15704 12.10802,-1.58198 0.0905,-1.36485 0.16653,-1.34495 0.54691,0.14303 0.42543,1.66419 1.31784,1.70643 24.04604,1.1381 12.98232,-0.32463 23.80546,-0.79147 24.05141,-1.03744 0.24597,-0.24596 0.64365,-6.56707 0.88374,-14.04692 l 0.43652,-13.59971 H 328.23378 317.69304 V 83.117957 26.818984 l -7.47353,0.581779 c -4.11044,0.319978 -26.89252,0.584222 -50.62683,0.587208 l -43.15331,0.0054 -1.07994,5.723466 c -0.59397,3.147907 -2.82,17.721289 -4.94675,32.385294 -2.36803,16.327656 -4.09074,25.784025 -4.44453,24.397122 -0.31776,-1.245588 -2.44054,-15.513235 -4.7173,-31.705882 -2.27677,-16.192647 -4.48834,-29.791925 -4.91461,-30.220619 -0.42626,-0.428692 -6.95953,-0.998647 -14.51836,-1.266565 l -13.74335,-0.487125 0.66059,7.572884 -1.10094,3.889689 -5.78226,-6.326842 c -6.95171,-7.606439 -8.36625,-4.738462 -26.98697,-5.29126 -7.7314,-0.229524 -16.54529,0.477375 -19.41014,0.45842 l -5.20882,-0.03446 -0.0724,45.973529 -0.0724,45.973528 -6.69727,-43.019154 C 99.720466,52.354886 96.467968,31.909343 96.176192,30.580881 95.649367,28.182258 95.572612,28.16093 85.115749,27.507561 73.711623,26.795004 61.490754,27.468608 60.071381,28.887973 59.58389,29.375469 56.062852,50.469355 52.246859,75.763276 L 45.308715,121.75222 44.605533,74.31161 43.902351,26.870996 27.191898,27.247309 C 15.760669,27.504736 10.274187,27.958975 9.8254029,28.685123 9.4645791,29.268948 7.1612744,42.05422 4.7069484,57.096837 L 0.24453657,84.447051 -4.5001409,56.446696 C -7.1097126,41.046502 -9.2640929,28.34443 -9.2876513,28.219872 -9.3112096,28.095313 -17.01073,27.993401 -26.397696,27.993401 h -17.067211 l -0.534515,57.297059 c -0.293983,31.51338 -0.298833,62.88174 -0.01078,69.70747 0.493015,11.68238 0.635458,12.43241 2.428197,12.78546 3.222719,0.63466 11.706483,0.65071 18.979546,0.0359 z"
         id="path4226"
         transform="translate(1.3588235,-20.835294)"
         sodipodi:nodetypes="ccccccccssscccccssssssscsccsssccccccssssssssscccccsscssssssscccccsscsssssscccsssccccsssccccssscssscssssc" />
      <path
         style="font-variation-settings:normal;opacity:1;vector-effect:none;fill:#fae8d1;fill-opacity:1;stroke-width:0.915077;stroke-linecap:butt;stroke-linejoin:miter;stroke-miterlimit:4;stroke-dasharray:none;stroke-dashoffset:0;stroke-opacity:1;stop-color:#000000;stop-opacity:1"
         d="m 273.98422,83.48635 -6.11471,-0.316905 V 69.622599 56.075754 h 10.41765 10.41765 V 70.11693 84.158107 l -4.30294,-0.177426 c -2.36662,-0.09759 -7.05456,-0.320034 -10.41765,-0.494331 z"
         id="path4228"
         transform="translate(1.3588235,-20.835294)" />
      <path
         style="font-variation-settings:normal;opacity:1;vector-effect:none;fill:#fae8d1;fill-opacity:1;stroke-width:0.915077;stroke-linecap:butt;stroke-linejoin:miter;stroke-miterlimit:4;stroke-dasharray:none;stroke-dashoffset:0;stroke-opacity:1;stop-color:#000000;stop-opacity:1"
         d="m 277.15481,139.64713 -9.2853,-0.29358 v -13.5017 -13.50171 l 10.41943,-0.28131 10.41943,-0.28131 -0.002,14.26765 c -10e-4,10.91131 -0.26813,14.2227 -1.1341,14.07659 -0.6228,-0.10507 -5.31074,-0.32316 -10.41765,-0.48463 z"
         id="path4230"
         transform="translate(1.3588235,-20.835294)" />
      <path
         style="font-variation-settings:normal;opacity:1;vector-effect:none;fill:#fa0000;fill-opacity:1;stroke-width:0.915077;stroke-linecap:butt;stroke-linejoin:miter;stroke-miterlimit:4;stroke-dasharray:none;stroke-dashoffset:0;stroke-opacity:1;stop-color:#000000;stop-opacity:1"
         d="m 72.903683,121.42767 c -1.815749,0.0439 4.609894,-33.827351 4.983112,-34.200569 1.983098,12.597015 2.807054,21.816029 4.5231,34.072179 h -4.199602 c -3.752872,0 0,0 -5.30661,0.12839 z"
         id="path4236"
         transform="translate(1.3588235,-20.835294)"
         sodipodi:nodetypes="sccss" />
      <path
         style="font-variation-settings:normal;opacity:1;vector-effect:none;fill:#fa0000;fill-opacity:1;stroke-width:0.915077;stroke-linecap:butt;stroke-linejoin:miter;stroke-miterlimit:4;stroke-dasharray:none;stroke-dashoffset:0;stroke-opacity:1;stop-color:#000000;stop-opacity:1"
         d="m 138.26346,81.851687 c -0.65128,-14.408464 -0.30518,-23.964168 1.35095,-23.964168 1.96468,0 8.55882,6.156341 9.64743,10.179282 1.33543,4.935077 0.63219,13.91058 -1.40595,17.944005 -1.6129,3.191908 -7.68298,8.432285 -8.76135,8.432285 -0.32818,0 -0.52602,-5.842285 -0.83108,-12.591404 z"
         id="path4238"
         transform="translate(1.3588235,-20.835294)"
         sodipodi:nodetypes="ssssss" />
      <path
         style="font-variation-settings:normal;opacity:1;vector-effect:none;fill:#fa0000;fill-opacity:1;stroke-width:0.915077;stroke-linecap:butt;stroke-linejoin:miter;stroke-miterlimit:4;stroke-dasharray:none;stroke-dashoffset:0;stroke-opacity:1;stop-color:#000000;stop-opacity:1"
         d="m 268.07177,126.05517 0.25069,-13.36177 10.19117,-0.25614 10.19118,-0.25614 -0.008,8.86202 c -0.004,4.87412 -0.26494,11.00217 -0.57913,13.61791 l 9.1e-4,5.63133 -10.4349,-0.87545 h -9.86274 z"
         id="path4240"
         transform="translate(1.3588235,-20.835294)"
         sodipodi:nodetypes="cccccscccc" />
      <path
         style="font-variation-settings:normal;opacity:1;vector-effect:none;fill:#fa0000;fill-opacity:1;stroke-width:0.915077;stroke-linecap:butt;stroke-linejoin:miter;stroke-miterlimit:4;stroke-dasharray:none;stroke-dashoffset:0;stroke-opacity:1;stop-color:#000000;stop-opacity:1"
         d="M 277.60775,83.482126 267.86951,83.19093 V 69.633341 56.075754 h 10.41765 10.41765 V 70.11693 c 0,7.722647 -0.30574,13.9546 -0.67941,13.848784 -0.37368,-0.105815 -5.06162,-0.323431 -10.41765,-0.483588 z"
         id="path4242"
         transform="translate(1.3588235,-20.835294)" />
      <path
         style="font-variation-settings:normal;opacity:1;vector-effect:none;fill:#ff0000;fill-opacity:1;stroke:none;stroke-width:0.458;stroke-linecap:butt;stroke-linejoin:miter;stroke-miterlimit:4;stroke-dasharray:none;stroke-dashoffset:0;stroke-opacity:1;stop-color:#000000;stop-opacity:1"
         d="m -51.446092,177.16599 -2.151471,-0.16964 V 97.982929 18.96951 H 145.92303 345.44361 v 78.963496 78.963504 l -45.18088,0.30095 c -45.92118,0.30589 -347.772906,0.27888 -351.708822,-0.0315 z m 35.895588,-9.74703 0.03968,-15.90855 c 0.02182,-8.7497 0.174692,-19.48988 0.339706,-20.73547 0.276921,-2.09031 0.416136,0.96024 1.807787,8.90339 2.25464,12.86886 4.5460581,24.06187 5.323894,26.00586 0.869185,2.17232 1.2104472,11.40186 5.0554875,11.39751 15.6121785,0.4456 11.2815863,-4.5042 13.6133485,-21.17166 2.600347,-16.87176 4.44136,-30.43418 4.816083,-29.47948 0.184976,0.47127 0.306191,1.53716 0.296636,9.78703 -9.1210265,44.31968 2.420742,32.81606 23.419634,32.05758 l 27.6197,0.30003 c 0,0 0.537805,-2.22051 0.765779,-3.35137 0.629329,-3.12176 1.167913,-6.103 1.659413,-9.46608 1.199307,-8.20626 0.815801,-7.87527 9.366407,-8.08382 l 6.686485,-0.16308 1.27122,9.67198 c 0.699169,5.31959 1.371569,9.77389 1.494217,9.89844 0.122647,0.12456 11.69105,0.2947 25.707567,0.37809 l 25.48456,0.15162 0.27471,-19.62809 c 0.15108,-10.79545 0.45289,-20.23956 0.67068,-20.98691 l 0.39598,-1.35882 0.93775,2.49845 c 0.51576,1.37416 2.67614,8.71181 4.80085,16.30588 2.1247,7.59409 4.44328,15.64184 5.15239,17.8839 1.20999,3.82572 1.40008,4.13219 3.09025,4.98236 1.63922,0.82452 2.67554,0.90376 11.5392,0.88229 6.32576,-0.0153 10.41279,-0.21984 11.66323,-0.58363 1.91695,-0.55771 1.925,-0.56907 1.925,-2.71785 0,-2.90807 -2.16985,-11.5477 -7.89319,-31.42799 -2.63403,-9.14948 -4.78916,-17.43034 -4.78916,-18.4019 0,-1.10073 8.45237,-16.092972 6.84227,-12.95728 -0.69799,1.35934 2.8841,-11.568196 1.7182,-20.414446 l -1.2865,-17.740981 5.33448,43.044607 c 1.79044,14.44728 8.93039,51.76799 9.59548,56.33355 l 0.54138,3.71638 1.90678,0.28594 c 2.60322,0.39038 30.90073,0.0659 31.32522,-0.35925 0.18704,-0.1873 3.46284,-20.16201 7.27955,-44.38823 3.81671,-24.226227 14.66668,-94.214842 14.71622,-94.463959 0.33435,-1.681345 -6.92255,68.998 -6.61898,101.428299 l 0.35454,37.87673 4.57068,0.27719 c 7.54974,0.45785 42.0865,0.90087 43.88766,0.56297 1.12916,-0.21183 1.70927,-0.56489 1.70996,-1.0862 0.21869,-165.659009 0.32077,-206.198715 0.29438,-0.0927 -5e-5,0.39984 0.48285,0.82916 0.75689,1.01219 1.25284,0.83673 46.64581,-0.10676 47.53232,-0.98795 0.40482,-0.40238 0.98182,-9.20855 1.37419,-20.97276 l 0.23794,-7.13383 H 328.43582 317.8142 V 82.790503 26.58208 l -2.37794,0.29402 c -1.30787,0.161711 -24.11989,0.399792 -50.69339,0.529068 -40.38722,0.196478 -48.35461,0.337109 -48.55412,0.857022 -0.37282,0.971545 -2.30312,12.943938 -5.03772,31.245556 -2.48784,16.650199 -5.9966,48.719574 -6.30321,49.026194 -0.24084,0.24083 -2.2682,-20.158913 -3.67119,-42.911488 -1.37353,-22.274712 -3.63787,-33.206315 -4.32538,-35.836868 -0.40147,-1.536088 -0.56456,-1.656476 -2.5784,-1.903305 -3.43919,-0.421529 -25.92548,-1.367507 -26.19115,-1.101839 -0.2329,0.232906 1.36411,10.099446 1.90564,12.691748 l 2.61626,13.130432 1.65516,11.343343 c -1.43474,-6.023185 -6.34932,-19.508094 -8.78397,-22.803338 -4.41607,-5.97706 -11.5231,-11.954013 -20.97692,-13.590508 -3.64946,-0.631737 -15.7126,-0.132598 -28.5822,-0.623919 l -6.00147,-0.229117 -0.0401,44.260213 3.85844,96.500066 -8.81739,-83.492791 C 96.248989,28.904791 96.339102,29.416648 95.177276,28.65539 92.055773,26.610102 62.276598,26.62514 60.173388,28.673064 59.262605,29.559907 56.60707,45.366563 49.843422,90.160522 47.636339,104.77749 42.011549,168.11563 41.908274,168.01236 41.716309,167.82039 44.304073,48.010516 44.261352,34.214787 l -0.02362,-7.628249 -12.116176,0.304909 C 19.086478,27.21948 10.314684,27.794639 9.7651844,28.357335 9.3064229,28.827113 6.4117755,44.980305 3.209033,64.94304 1.7702019,73.911275 0.46970364,81.398542 0.31903728,81.581413 0.16837093,81.764288 -1.9686463,69.942523 -4.4298924,55.310827 -6.8911385,40.679132 -9.02672,28.562688 -9.1756289,28.385396 -9.3245424,28.208104 -17.107761,27.921366 -26.471671,27.7482 l -17.025292,-0.314847 -0.291764,16.716608 c -0.607557,34.810054 -0.825906,101.029629 -0.366998,111.301029 0.502514,11.24735 0.755344,12.27716 3.117383,12.69751 20.366719,-0.50751 18.435885,-0.3292 25.487838,-0.72954 z"
         id="path4248"
         transform="translate(1.3588235,-20.835294)"
         sodipodi:nodetypes="ccccccccssccssssccscccasscssscsscssssssssssccsscssssscssssssscccccssssssssssccsssccccssssscssssssscsscc" />
      <path
         style="font-variation-settings:normal;opacity:1;vector-effect:none;fill:#fae8d1;fill-opacity:1;stroke-width:0.228769;stroke-linecap:butt;stroke-linejoin:miter;stroke-miterlimit:4;stroke-dasharray:none;stroke-dashoffset:0;stroke-opacity:1;stop-color:#000000;stop-opacity:1"
         d="m -41.266484,168.21221 c -0.279502,-0.081 3.338365,-0.17056 8.039705,-0.19902 13.43053,0.35007 8.230265,0.45795 17.493479,-0.79001 0.190311,-24.12388 0.09691,-14.69728 0.108528,0.23779 -0.523015,0.55817 -23.940587,1.24425 -25.641712,0.75124 z"
         id="path4254"
         transform="translate(1.3588235,-20.835294)"
         sodipodi:nodetypes="scccs" />
      <path
         style="font-variation-settings:normal;opacity:1;vector-effect:none;fill:#ffffff;fill-opacity:1;stroke-width:0.647057;stroke-linecap:butt;stroke-linejoin:miter;stroke-miterlimit:4;stroke-dasharray:none;stroke-dashoffset:0;stroke-opacity:1;stop-color:#000000;stop-opacity:1"
         d="m 763.15573,109.26026 c -1.18617,-2.21637 -1.4599,-19.703914 -0.95457,-60.981986 l 0.48423,-39.5543059 17.37831,0.06385 c 9.55807,0.035118 18.09392,0.2631193 18.96857,0.5066699 1.49394,0.4159975 1.90404,1.653169 6.77059,20.425307 2.84918,10.990369 5.33807,20.14023 5.53087,20.333025 0.19279,0.192795 1.83948,-5.640389 3.6593,-12.96263 5.14239,-20.690953 7.15034,-27.6039424 8.12668,-27.9785978 0.49255,-0.1890092 8.96875,-0.5431592 18.836,-0.7870001 l 17.94046,-0.443347 0.11348,5.7059439 c 0.0624,3.138269 0.0701,7.435445 0.017,9.549278 -0.053,2.113833 -0.59375,22.651646 -1.20153,45.639584 L 857.7201,110.5723 h -11.3134 c -6.22236,0 -12.65074,-0.18331 -14.28529,-0.40734 l -2.97191,-0.40735 V 95.111904 c 0,-19.083348 -0.32991,-19.195343 -4.46096,-1.514325 -3.50627,15.006931 -3.93379,16.327041 -5.40597,16.692711 -0.73853,0.18344 -4.65664,0.24988 -8.70689,0.14763 l -7.36411,-0.1859 -1.45938,-3.68112 c -0.80266,-2.02461 -2.782,-8.510237 -4.39854,-14.412495 -1.61654,-5.902258 -3.19478,-11.005219 -3.50721,-11.339909 -0.33153,-0.355156 -0.56805,5.548005 -0.56805,14.177653 v 14.786181 l -1.44125,0.38624 c -0.79268,0.21243 -7.41229,0.39018 -14.71024,0.39499 -12.72229,0.008 -13.29792,-0.0453 -13.97117,-1.3033 z"
         id="path879"
         transform="matrix(0.89321906,0,0,1.3666992,-723.14901,-4.5441382)" />
      <path
         style="font-variation-settings:normal;opacity:1;vector-effect:none;fill:#ffffff;fill-opacity:1;stroke-width:0.647057;stroke-linecap:butt;stroke-linejoin:miter;stroke-miterlimit:4;stroke-dasharray:none;stroke-dashoffset:0;stroke-opacity:1;stop-color:#000000;stop-opacity:1"
         d="m 859.73603,110.7713 c -0.61653,-0.16111 -1.12097,-0.52587 -1.12097,-0.81057 0,-0.78972 3.56216,-25.23587 5.46452,-37.501484 2.12606,-13.70796 13.27765,-61.552636 14.67151,-62.946496 1.42824,-1.4282414 37.78972,-1.3671027 39.22278,0.06595 0.2384,0.2384065 2.69212,9.727934 5.45271,21.087839 3.98679,16.405781 5.94086,26.320136 9.49965,48.198263 2.46422,15.149139 4.64669,28.336578 4.84995,29.305418 l 0.36956,1.76153 H 924.0557 909.96566 l -0.64117,-3.04264 c -0.35264,-1.67345 -0.99053,-4.8442 -1.41753,-7.046114 l -0.77636,-4.003472 -8.08374,0.0098 c -4.44606,0.0051 -8.45954,0.248171 -8.91886,0.539495 -0.45931,0.291325 -1.26625,2.232599 -1.7932,4.313941 -0.52695,2.08134 -1.38427,5.29757 -1.90514,7.14717 l -0.94705,3.36293 -12.3128,-0.0743 c -6.77205,-0.0409 -12.81724,-0.20613 -13.43378,-0.36725 z m 43.71899,-34.308582 c 0.003,-1.992621 -4.73627,-24.821528 -5.15259,-24.821528 -0.82466,0 -6.33462,21.202037 -6.36736,24.50125 -0.01,0.98538 0.6862,1.120973 5.75388,1.120973 4.18439,0 5.76529,-0.219531 5.76607,-0.800695 z"
         id="path881"
         transform="matrix(0.89321906,0,0,1.3666992,-723.14901,-4.5441382)" />
      <path
         style="font-variation-settings:normal;opacity:1;vector-effect:none;fill:#ffffff;fill-opacity:1;stroke-width:0.647057;stroke-linecap:butt;stroke-linejoin:miter;stroke-miterlimit:4;stroke-dasharray:none;stroke-dashoffset:0;stroke-opacity:1;stop-color:#000000;stop-opacity:1"
         d="m 944.28937,110.09536 c -3.08268,-0.11742 -5.60487,-0.44728 -5.60487,-0.73302 0,-0.28574 -0.86415,-14.470832 -1.92034,-31.522421 -1.40885,-22.744931 -1.92071,-36.18042 -1.92167,-50.440885 l -10e-4,-19.4379895 20.01736,0.2831182 c 22.48043,0.3179547 23.85163,0.5278056 33.12742,5.0698663 6.96797,3.411997 10.30593,6.852113 14.54513,14.990281 3.1608,6.067876 3.3573,6.740181 4.2496,14.534724 0.7807,6.819537 0.7994,8.940511 0.1129,12.811111 -1.1256,6.346799 -1.5811,7.280829 -5.692,11.67021 -2.17995,2.327619 -3.58596,4.399882 -3.58596,5.285181 0,0.800957 2.19326,6.428334 4.87386,12.505278 5.9419,13.469839 9.2183,21.801516 9.2183,23.440966 0,0.73464 -0.5808,1.3862 -1.4412,1.61679 -2.4728,0.66268 -23.88374,0.4407 -25.91875,-0.26871 -2.1378,-0.74524 -1.9557,-0.42184 -7.55659,-13.419781 -5.74096,-13.322979 -7.40441,-16.654444 -8.31582,-16.654444 -1.30684,0 -1.60647,3.24075 -1.60647,17.375069 V 110.5723 l -8.48736,-0.13172 c -4.66805,-0.0724 -11.00955,-0.22779 -14.09222,-0.34522 z m 27.74805,-55.147407 c 5.33011,-3.18058 7.00208,-6.143495 7.00208,-12.408422 0,-4.088135 -0.13658,-4.497495 -2.29924,-6.891307 -1.26459,-1.399745 -3.89654,-3.326474 -5.84879,-4.281621 -3.43111,-1.678683 -3.57881,-1.696608 -4.42659,-0.537204 -1.24117,1.697407 -1.39711,8.431941 -0.493,21.292208 0.24963,3.550838 0.62978,5.284583 1.15873,5.284583 0.43297,0 2.64103,-1.106206 4.90681,-2.458237 z"
         id="path883"
         transform="matrix(0.89321906,0,0,1.3666992,-723.14901,-4.5441382)" />
      <path
         style="font-variation-settings:normal;opacity:1;vector-effect:none;fill:#ffffff;fill-opacity:1;stroke-width:0.647057;stroke-linecap:butt;stroke-linejoin:miter;stroke-miterlimit:4;stroke-dasharray:none;stroke-dashoffset:0;stroke-opacity:1;stop-color:#000000;stop-opacity:1"
         d="m 1023.8784,109.152 c 0,-0.43967 -2.7263,-11.181399 -6.0585,-23.870516 -3.3321,-12.689118 -7.5067,-30.565627 -9.2769,-39.725571 -1.7701,-9.159945 -4.3363,-20.54582 -5.7026,-25.301945 -1.3663,-4.756125 -2.674,-9.440187 -2.90587,-10.4090277 l -0.42166,-1.7615278 6.89823,0.058742 c 10.1105,0.086098 23.7191,0.8551115 24.2334,1.3694221 1.2829,1.2829234 4.2518,16.8968674 5.7366,30.1693394 1.7832,15.941441 3.3659,27.401806 3.8511,27.887018 0.5527,0.552706 0.7266,-0.172931 3.0916,-12.897752 1.2946,-6.965542 3.9463,-19.360292 5.8927,-27.543889 1.9464,-8.183598 3.7073,-15.671957 3.9132,-16.640797 l 0.3744,-1.761528 h 15.6135 c 8.5875,0 15.6136,0.2522921 15.6136,0.5606492 0,0.5774286 -1.8456,8.2762248 -15.9118,66.3774068 l -8.2191,33.949446 -18.361,0.16996 c -14.3365,0.13271 -18.3609,-0.005 -18.3609,-0.62943 z"
         id="path885"
         transform="matrix(0.89321906,0,0,1.3666992,-723.14901,-4.5441382)" />
      <path
         style="font-variation-settings:normal;opacity:1;vector-effect:none;fill:#ffffff;fill-opacity:1;stroke-width:0.647057;stroke-linecap:butt;stroke-linejoin:miter;stroke-miterlimit:4;stroke-dasharray:none;stroke-dashoffset:0;stroke-opacity:1;stop-color:#000000;stop-opacity:1"
         d="m 1094.6598,110.5398 c -8.4554,-0.23894 -15.4034,-0.4735 -15.4401,-0.52125 -0.037,-0.0477 -0.2275,-8.51812 -0.4238,-18.823054 -0.4545,-23.845359 -0.038,-29.121665 6.0656,-76.866667 l 0.7165,-5.6048609 h 24.5583 24.5582 v 9.9286109 9.928611 h -11.8503 -11.8503 v 10.156262 10.156261 l 4.3238,0.408352 c 2.3781,0.224593 7.5666,0.4104 11.53,0.412905 l 7.2062,0.0046 v 9.829004 9.829006 l -11.2843,0.38775 c -6.2064,0.213263 -11.373,0.476448 -11.4815,0.584856 -0.1084,0.108408 -0.291,4.55763 -0.4057,9.887154 l -0.2087,9.690049 3.7771,0.393865 c 2.0775,0.21663 7.338,0.393871 11.6902,0.393871 h 7.9129 v 9.839395 9.83939 l -3.3629,0.40393 c -3.7624,0.45192 -13.3354,0.38338 -36.0312,-0.25799 z"
         id="path887"
         transform="matrix(0.89321906,0,0,1.3666992,-723.14901,-4.5441382)" />
      <path
         style="font-variation-settings:normal;opacity:1;vector-effect:none;fill:#ffffff;fill-opacity:1;stroke-width:0.647057;stroke-linecap:butt;stroke-linejoin:miter;stroke-miterlimit:4;stroke-dasharray:none;stroke-dashoffset:0;stroke-opacity:1;stop-color:#000000;stop-opacity:1"
         d="m 1136.7763,110.76545 -1.4412,-0.28225 V 59.603584 8.7239681 h 9.8302 c 5.4066,0 12.4687,-0.1872884 15.6936,-0.4161963 l 5.8634,-0.4161963 V 48.983049 90.074524 h 11.53 11.53 l -0.08,5.284583 c -0.044,2.906521 -0.2599,7.299973 -0.4804,9.763223 l -0.4009,4.47865 -2.8825,0.39441 c -3.5186,0.48146 -47.1468,1.16483 -49.1626,0.77006 z"
         id="path889"
         transform="matrix(0.89321906,0,0,1.3666992,-723.14901,-4.5441382)" />
      <path
         style="font-variation-settings:normal;opacity:1;vector-effect:none;fill:#ffffff;fill-opacity:1;stroke-width:0.647057;stroke-linecap:butt;stroke-linejoin:miter;stroke-miterlimit:4;stroke-dasharray:none;stroke-dashoffset:0;stroke-opacity:1;stop-color:#000000;stop-opacity:1"
         d="m 689.65505,108.86247 c -1.87636,-0.75495 -2.94381,-4.34042 -2.98662,-10.031782 -0.035,-4.661035 0.15301,-5.799347 1.06875,-6.469086 0.6112,-0.447018 3.78195,-1.002079 7.04611,-1.23348 4.49841,-0.3189 6.76419,-0.826342 9.36151,-2.096589 5.53412,-2.70652 8.52125,-8.705746 7.46062,-14.983592 -0.7316,-4.330285 -1.21896,-4.521942 -11.10971,-4.368933 -13.81457,0.213709 -14.98356,-0.996637 -15.35994,-15.903237 -0.1921,-7.608102 -0.0123,-9.937951 1.11191,-14.4125 4.22964,-16.833838 15.08326,-26.18228 30.35571,-26.145971 2.18457,0.0052 4.69257,0.377922 5.57334,0.828286 1.77197,0.906069 1.81762,1.348266 0.95786,9.279109 -0.62251,5.742245 -0.79901,5.861577 -9.72697,6.576165 -13.44252,1.075934 -18.13423,5.569367 -18.13423,17.367882 0,4.667843 0.10956,5.086364 1.46645,5.602256 0.90354,0.343523 3.66975,0.223215 7.20625,-0.313414 11.43045,-1.734455 13.66601,-1.226389 16.59495,3.771455 6.40408,10.927744 3.30131,33.537862 -6.06216,44.175321 -2.9207,3.31809 -8.36825,6.27843 -14.37576,7.81215 -3.70663,0.9463 -8.79251,1.21207 -10.44807,0.54596 z"
         id="path891"
         transform="matrix(0.89321906,0,0,1.3666992,-723.14901,-4.5441382)" />
      <path
         style="font-variation-settings:normal;opacity:1;vector-effect:none;fill:#ffffff;fill-opacity:1;stroke-width:0.647057;stroke-linecap:butt;stroke-linejoin:miter;stroke-miterlimit:4;stroke-dasharray:none;stroke-dashoffset:0;stroke-opacity:1;stop-color:#000000;stop-opacity:1"
         d="m 635.43319,93.117163 c -1.09967,-31.927067 -1.63426,-53.152545 -1.64328,-65.245697 l -0.01,-13.200558 5.60486,-0.729528 c 5.17432,-0.673489 27.12069,-2.65519 29.40493,-2.65519 0.85897,0 0.96475,1.067031 0.76766,7.742983 -0.21871,7.407901 -0.30055,7.804865 -1.89106,9.172972 -1.1956,1.028406 -3.53385,1.756996 -8.32623,2.594421 -13.61239,2.378638 -15.31127,3.514763 -15.31127,10.239413 0,5.645835 0.62857,6.25413 6.94196,6.718035 6.65291,0.488852 7.39231,1.148866 7.38528,6.59238 -0.006,4.750097 -0.9129,6.749054 -3.29615,7.266307 -4.89923,1.063314 -6.88361,1.966677 -7.64469,3.480156 -0.87395,1.737909 -1.18107,16.028026 -0.34376,15.994858 0.26423,-0.01047 4.66004,-0.434277 9.76847,-0.941802 5.10843,-0.507525 10.11518,-0.93133 11.12611,-0.941803 l 1.83806,-0.01903 -0.2628,10.326646 c -0.3232,12.699574 -0.0689,12.345244 -9.28597,12.939434 -3.46385,0.2233 -10.14317,0.9889 -14.84295,1.70135 -4.69977,0.71244 -8.77219,1.29535 -9.04983,1.29535 -0.27763,0 -0.6959,-5.548814 -0.92949,-12.330696 z"
         id="path893"
         transform="matrix(0.89321906,0,0,1.3666992,-723.14901,-4.5441382)" />
      <path
         style="font-variation-settings:normal;opacity:1;vector-effect:none;fill:#ffffff;fill-opacity:1;stroke-width:0.647057;stroke-linecap:butt;stroke-linejoin:miter;stroke-miterlimit:4;stroke-dasharray:none;stroke-dashoffset:0;stroke-opacity:1;stop-color:#000000;stop-opacity:1"
         d="m 605.01914,109.35527 c -1.26464,-1.26464 -1.45761,-1.85843 -5.74554,-17.679357 -4.4131,-16.282756 -9.52838,-30.883335 -11.3494,-32.394647 -0.78333,-0.650101 -1.1447,-0.628482 -1.88602,0.112831 -1.44198,1.44198 -2.12,6.460704 -3.17314,23.487622 -0.53886,8.712164 -1.13242,17.019215 -1.31901,18.460111 l -0.33926,2.6198 -5.06558,1.76338 c -2.78607,0.96986 -5.39862,1.55755 -5.80567,1.30598 -0.43513,-0.26892 -0.5886,-1.21479 -0.37246,-2.29552 0.57972,-2.89857 1.58123,-19.463018 2.6486,-43.806224 1.72929,-39.439479 2.3733,-45.782366 4.77916,-47.06994 1.59733,-0.854868 4.69448,-0.829159 6.63517,0.05508 2.30689,1.051089 3.67379,4.045256 8.45026,18.510142 9.40208,28.472928 10.98192,28.256504 13.44447,-1.841775 0.52967,-6.473712 1.32176,-12.501038 1.76021,-13.394058 1.08504,-2.20997 3.52983,-3.909692 7.61788,-5.296276 l 3.42819,-1.162773 0.19878,4.602024 c 0.32784,7.589925 -3.45452,63.445578 -5.36259,79.191702 -1.37555,11.351488 -1.93612,13.217538 -4.43447,14.761608 -2.55038,1.57622 -2.60276,1.57712 -4.10958,0.0703 z"
         id="path895"
         transform="matrix(0.89321906,0,0,1.3666992,-723.14901,-4.5441382)" />
      <path
         style="font-variation-settings:normal;opacity:1;vector-effect:none;fill:#ffffff;fill-opacity:1;stroke-width:0.647057;stroke-linecap:butt;stroke-linejoin:miter;stroke-miterlimit:4;stroke-dasharray:none;stroke-dashoffset:0;stroke-opacity:1;stop-color:#000000;stop-opacity:1"
         d="m 529.20806,107.12513 c -6.98067,-2.5753 -11.5888,-9.556676 -14.3915,-21.803304 -1.47479,-6.444265 -1.49032,-26.149901 -0.0268,-34.000913 2.51397,-13.485955 7.37899,-25.682403 12.7204,-31.889641 13.71279,-15.935576 28.10437,4.65691 28.11833,40.233667 0.006,15.540442 -1.87447,26.436738 -6.08005,35.228856 -4.48528,9.376845 -13.45589,14.771165 -20.3404,12.231335 z m 8.66938,-16.641919 c 2.97616,-1.259678 4.00817,-2.697078 5.82457,-8.112604 3.29946,-9.837197 3.51256,-26.653348 0.46197,-36.454928 -4.29512,-13.800251 -13.30332,-10.84128 -18.40562,6.045789 -1.56957,5.19484 -1.74638,6.778619 -1.78771,16.013889 -0.0374,8.357881 0.17426,10.91932 1.14719,13.882492 1.5014,4.572695 3.84884,7.382486 7.13416,8.539336 3.21907,1.133507 3.15299,1.132502 5.62544,0.08603 z"
         id="path897"
         transform="matrix(0.89321906,0,0,1.3666992,-723.14901,-4.5441382)" />
      <path
         style="font-variation-settings:normal;opacity:1;vector-effect:none;fill:#ffffff;fill-opacity:1;stroke-width:0.647057;stroke-linecap:butt;stroke-linejoin:miter;stroke-miterlimit:4;stroke-dasharray:none;stroke-dashoffset:0;stroke-opacity:1;stop-color:#000000;stop-opacity:1"
         d="m 486.40924,106.93603 c -1.25331,-3.29644 -1.94248,-14.154321 -2.32047,-36.55859 l -0.38095,-22.579583 h 8.12478 8.12477 l -0.353,4.644028 c -0.19415,2.554215 -0.79646,12.570903 -1.33846,22.259305 -1.57913,28.22714 -2.07372,30.93311 -6.02766,32.97777 -2.96005,1.5307 -5.06666,1.2622 -5.82901,-0.74293 z"
         id="path899"
         transform="matrix(0.89321906,0,0,1.3666992,-723.14901,-4.5441382)" />
      <path
         style="font-variation-settings:normal;opacity:1;vector-effect:none;fill:#ffffff;fill-opacity:1;stroke-width:0.647057;stroke-linecap:butt;stroke-linejoin:miter;stroke-miterlimit:4;stroke-dasharray:none;stroke-dashoffset:0;stroke-opacity:1;stop-color:#000000;stop-opacity:1"
         d="m 486.64622,31.657809 c -1.79789,-0.868643 -2.76923,-3.672865 -2.70743,-7.816232 0.11132,-7.463804 4.73366,-12.980271 9.39946,-11.21767 4.17647,1.577745 8.25056,7.53089 7.58029,11.076487 -1.1874,6.281105 -8.87294,10.566116 -14.27232,7.957415 z"
         id="path901"
         transform="matrix(0.89321906,0,0,1.3666992,-723.14901,-4.5441382)" />
      <path
         style="font-variation-settings:normal;opacity:1;vector-effect:none;fill:#ffffff;fill-opacity:1;stroke-width:0.647057;stroke-linecap:butt;stroke-linejoin:miter;stroke-miterlimit:4;stroke-dasharray:none;stroke-dashoffset:0;stroke-opacity:1;stop-color:#000000;stop-opacity:1"
         d="m 456.55682,108.69305 c -7.5628,-2.72264 -13.82142,-8.903457 -16.77589,-16.567352 -5.05605,-13.115362 -5.83142,-30.98968 -1.99508,-45.991644 3.34776,-13.091404 13.3145,-27.400146 22.02148,-31.615123 4.80932,-2.328151 7.1864,-1.659502 8.09988,2.278415 1.2081,5.20799 0.55368,25.504867 -0.86819,26.926733 -0.16974,0.16974 -2.0646,0.556824 -4.2108,0.860188 -5.17273,0.731161 -7.48612,2.477727 -9.78295,7.385948 -1.89843,4.056848 -4.38577,15.078988 -4.38577,19.434649 0,3.211276 1.64779,8.718572 3.63893,12.162192 1.93302,3.343104 4.50768,4.585801 9.501,4.585801 4.92219,0 6.3045,1.441692 7.35525,7.671249 1.67655,9.939724 -0.19195,14.131304 -6.27854,14.084524 -1.6538,-0.0127 -4.4975,-0.55972 -6.31932,-1.21558 z"
         id="path903"
         transform="matrix(0.89321906,0,0,1.3666992,-723.14901,-4.5441382)" />
      <path
         style="font-variation-settings:normal;opacity:1;vector-effect:none;fill:#ffffff;fill-opacity:1;stroke-width:0.647057;stroke-linecap:butt;stroke-linejoin:miter;stroke-miterlimit:4;stroke-dasharray:none;stroke-dashoffset:0;stroke-opacity:1;stop-color:#000000;stop-opacity:1"
         d="m 405.23388,108.02354 c -7.57286,-3.58256 -13.18278,-11.465941 -16.21792,-22.790348 -1.96306,-7.324394 -2.39408,-22.209373 -0.90208,-31.152905 2.5093,-15.041516 7.87855,-26.765867 15.53713,-33.927024 3.77659,-3.531305 6.90091,-5.206696 11.6996,-6.273818 1.93768,-0.430897 4.07259,-0.936141 4.74424,-1.122766 1.17994,-0.327858 1.20783,0.06884 0.82581,11.746069 -0.53321,16.298888 -1.42427,18.944583 -6.65529,19.760614 -3.56943,0.556825 -5.3469,1.633509 -7.62282,4.617434 -7.1512,9.375856 -7.82958,33.399172 -1.06824,37.82937 1.77218,1.16118 6.33818,1.384119 11.95547,0.583738 l 3.78056,-0.538669 -0.35368,8.934155 c -0.49116,12.40711 -1.55924,14.24285 -8.2863,14.24185 -2.44714,-3.7e-4 -4.53914,-0.53703 -7.43648,-1.9077 z"
         id="path905"
         transform="matrix(0.89321906,0,0,1.3666992,-723.14901,-4.5441382)" />
      <path
         style="font-variation-settings:normal;opacity:1;vector-effect:none;fill:#ffffff;fill-opacity:1;stroke-width:0.647057;stroke-linecap:butt;stroke-linejoin:miter;stroke-miterlimit:4;stroke-dasharray:none;stroke-dashoffset:0;stroke-opacity:1;stop-color:#000000;stop-opacity:1"
         d="m 337.87579,102.13298 c -0.007,-1.8496 -0.43288,-16.910666 -0.94645,-33.469027 -0.51356,-16.558361 -0.94023,-35.481026 -0.94814,-42.050366 l -0.0144,-11.944255 5.28458,-0.709174 c 5.19553,-0.697222 26.80805,-2.625927 29.4254,-2.625927 1.29943,0 1.32803,0.2174 1.01824,7.739559 -0.40765,9.898039 -0.25671,9.732546 -10.78782,11.827744 -10.19559,2.028446 -11.8278,2.587071 -13.40038,4.586285 -0.97782,1.243088 -1.29113,2.601103 -1.29113,5.5962 0,5.631134 0.63749,6.254786 6.86108,6.712091 6.74352,0.495511 7.23114,0.951011 7.23114,6.754775 0,5.476542 -0.66675,6.362619 -5.80828,7.71893 -5.20078,1.371941 -5.36919,1.699734 -5.61444,10.928172 l -0.213,8.014949 3.0955,-0.35973 c 6.09636,-0.708454 16.39796,-1.620086 18.30728,-1.620086 h 1.94466 l -0.32878,10.303791 c -0.26113,8.18393 -0.5353,10.510319 -1.33261,11.307629 -0.69755,0.69755 -3.0191,1.16244 -7.60889,1.52368 -3.63278,0.28593 -10.5843,1.10662 -15.44782,1.82377 -4.86353,0.71715 -8.97109,1.30391 -9.12792,1.30391 -0.15683,0 -0.29085,-1.51332 -0.29783,-3.36292 z"
         id="path907"
         transform="matrix(0.89321906,0,0,1.3666992,-723.14901,-4.5441382)" />
      <path
         style="font-variation-settings:normal;opacity:1;vector-effect:none;fill:#ffffff;fill-opacity:1;stroke-width:0.647057;stroke-linecap:butt;stroke-linejoin:miter;stroke-miterlimit:4;stroke-dasharray:none;stroke-dashoffset:0;stroke-opacity:1;stop-color:#000000;stop-opacity:1"
         d="m 289.84681,107.56284 c 0,-13.915177 2.41075,-78.575408 3.25337,-87.260832 0.8253,-8.506817 1.33858,-9.1437 7.6569,-9.500716 l 4.51138,-0.254916 -0.1843,38.234969 -0.18429,38.234967 1.85671,-0.371561 c 1.02119,-0.204363 4.65429,-0.554901 8.07355,-0.77898 4.83498,-0.316857 6.33425,-0.217468 6.745,0.44714 0.67015,1.084339 0.70635,9.565109 0.0582,13.630491 -0.42862,2.688298 -0.76666,3.209148 -2.57247,3.963668 -2.33534,0.97576 -10.49214,2.43153 -19.60568,3.49907 -3.3469,0.39204 -6.87796,0.86615 -7.8468,1.05357 -1.43144,0.27691 -1.76153,0.10884 -1.76153,-0.89687 z"
         id="path909"
         transform="matrix(0.89321906,0,0,1.3666992,-723.14901,-4.5441382)" />
      <path
         style="font-variation-settings:normal;opacity:1;vector-effect:none;fill:#ffffff;fill-opacity:1;stroke-width:0.647057;stroke-linecap:butt;stroke-linejoin:miter;stroke-miterlimit:4;stroke-dasharray:none;stroke-dashoffset:0;stroke-opacity:1;stop-color:#000000;stop-opacity:1"
         d="m 247.57014,106.70115 c -5.75287,-2.28194 -9.97589,-10.802613 -12.4648,-25.149853 -4.72832,-27.256328 7.80539,-65.772457 22.14501,-68.051663 5.86727,-0.93257 14.39196,12.324687 17.94021,27.899859 1.62383,7.127892 2.29722,23.882656 1.26878,31.569054 -2.37556,17.754628 -9.13968,30.479293 -17.76417,33.417943 -3.35353,1.14267 -8.65927,1.29273 -11.12503,0.31466 z m 12.23597,-17.37928 c 2.66153,-1.762399 5.29407,-6.920716 6.45642,-12.650973 1.34197,-6.615776 0.97759,-20.999531 -0.68964,-27.223611 -1.69989,-6.346009 -3.7147,-10.448513 -5.91535,-12.044722 -2.04274,-1.481666 -3.61072,-1.100609 -6.7259,1.634555 -4.89481,4.297697 -7.83695,13.586961 -8.38245,26.466043 -0.53406,12.608909 1.64108,22.195706 5.51351,24.300425 2.61869,1.423295 7.20927,1.196333 9.74341,-0.481717 z"
         id="path911"
         transform="matrix(0.89321906,0,0,1.3666992,-723.14901,-4.5441382)" />
      <path
         style="font-variation-settings:normal;opacity:1;vector-effect:none;fill:#ffffff;fill-opacity:1;stroke-width:0.647057;stroke-linecap:butt;stroke-linejoin:miter;stroke-miterlimit:4;stroke-dasharray:none;stroke-dashoffset:0;stroke-opacity:1;stop-color:#000000;stop-opacity:1"
         d="m 207.39837,109.0505 c -14.36138,-4.48827 -22.18695,-21.807624 -21.14254,-46.792103 0.50376,-12.050926 2.77172,-21.551501 7.31605,-30.647246 4.90646,-9.820581 19.99676,-20.820834 24.44432,-17.818978 1.45769,0.983863 1.95295,5.611317 1.98216,18.520252 l 0.0279,12.330695 h -4.65548 c -3.91644,0 -5.03142,0.255463 -7.02373,1.609272 -5.98289,4.065485 -9.35364,16.175998 -8.15687,29.306284 1.00649,11.042677 4.07692,13.324471 15.8326,11.76605 L 220.02626,86.794 v 6.701294 c 0,12.744016 -1.66784,16.530546 -7.24197,16.441636 -1.47766,-0.0236 -3.90132,-0.42246 -5.38592,-0.88643 z"
         id="path913"
         transform="matrix(0.89321906,0,0,1.3666992,-723.14901,-4.5441382)" />
      <path
         style="font-variation-settings:normal;opacity:1;vector-effect:none;fill:#ffffff;fill-opacity:1;stroke-width:0.647057;stroke-linecap:butt;stroke-linejoin:miter;stroke-miterlimit:4;stroke-dasharray:none;stroke-dashoffset:0;stroke-opacity:1;stop-color:#000000;stop-opacity:1"
         d="m 114.48985,108.3822 c -1.16024,-0.50426 -2.36891,-1.64921 -2.72236,-2.57886 -0.77859,-2.04784 -0.8261,-11.826207 -0.0633,-13.030163 0.66188,-1.044682 4.9254,-1.943709 9.40012,-1.982161 5.02472,-0.04317 9.61697,-1.681804 12.33749,-4.402321 2.75342,-2.753421 3.9528,-6.14802 3.9528,-11.187611 0,-5.453914 -0.25514,-5.576298 -11.62503,-5.576298 h -9.61185 l -1.81314,-1.813133 c -4.26952,-4.269525 -5.81233,-17.167931 -3.25125,-27.181642 2.54151,-9.937219 8.81264,-19.564683 15.17136,-23.291141 6.2708,-3.674937 17.29591,-5.344633 21.3788,-3.237709 1.50111,0.77463 1.59178,1.104961 1.44801,5.275141 -0.22812,6.61686 -0.68515,8.501843 -2.26656,9.348185 -0.77218,0.41326 -4.88689,0.958705 -9.14379,1.212101 -8.28075,0.492918 -10.31782,1.148314 -13.17953,4.240317 -2.18185,2.35742 -2.90903,3.82526 -4.03313,8.140965 -1.1876,4.55948 -0.46035,7.639069 2.04296,8.651142 1.02672,0.415094 5.06579,0.652804 9.7587,0.574324 7.1596,-0.11973 8.2893,0.01493 10.67501,1.272428 10.74952,5.666029 8.44953,35.771984 -3.68616,48.250396 -6.23382,6.40986 -18.5106,10.03605 -24.76914,7.31604 z"
         id="path915"
         transform="matrix(0.89321906,0,0,1.3666992,-723.14901,-4.5441382)" />
      <path
         style="font-variation-settings:normal;opacity:1;vector-effect:none;fill:#ffffff;fill-opacity:1;stroke-width:0.647057;stroke-linecap:butt;stroke-linejoin:miter;stroke-miterlimit:4;stroke-dasharray:none;stroke-dashoffset:0;stroke-opacity:1;stop-color:#000000;stop-opacity:1"
         d="M 82.333914,107.46821 C 80.898405,104.78593 80.32571,96.438731 79.946261,72.667425 L 79.550047,47.845897 h 8.104215 8.104215 l -0.0047,2.402084 c -0.0058,2.95665 -3.019384,44.736404 -3.546132,49.162639 -0.663984,5.57943 -1.503995,7.40267 -3.865118,8.38921 -3.002791,1.25465 -5.225315,1.13198 -6.008613,-0.33162 z"
         id="path917"
         transform="matrix(0.89321906,0,0,1.3666992,-723.14901,-4.5441382)" />
      <path
         style="font-variation-settings:normal;opacity:1;vector-effect:none;fill:#ffffff;fill-opacity:1;stroke-width:0.647057;stroke-linecap:butt;stroke-linejoin:miter;stroke-miterlimit:4;stroke-dasharray:none;stroke-dashoffset:0;stroke-opacity:1;stop-color:#000000;stop-opacity:1"
         d="m 83.785403,32.499196 c -2.517542,-1.072854 -3.664018,-3.672932 -3.664018,-8.309578 0,-5.099605 1.555522,-8.611019 4.787331,-10.806856 3.501038,-2.378763 7.109916,-0.810724 10.433349,4.533238 1.538374,2.473649 1.756625,3.343258 1.387467,5.528281 -0.498179,2.9487 -2.43918,6.095582 -4.869844,7.895325 -1.928274,1.427757 -6.054463,2.02034 -8.074285,1.15959 z"
         id="path919"
         transform="matrix(0.89321906,0,0,1.3666992,-723.14901,-4.5441382)" />
      <path
         style="font-variation-settings:normal;opacity:1;vector-effect:none;fill:#ffffff;fill-opacity:1;stroke-width:0.915077;stroke-linecap:butt;stroke-linejoin:miter;stroke-miterlimit:4;stroke-dasharray:none;stroke-dashoffset:0;stroke-opacity:1;stop-color:#000000;stop-opacity:1"
         d="M 55.625832,107.71151 C 55.134437,107.08871 54.487095,100.0568 54.187293,92.085036 53.578634,75.9007 52.099495,60.915992 50.763824,57.40291 c -0.751452,-1.976468 -1.057457,-2.129038 -2.06713,-1.030647 -1.791014,1.948388 -4.710741,9.907458 -8.6147,23.483361 -1.934216,6.726176 -3.744971,11.617941 -4.023901,10.870588 -0.278932,-0.747353 -1.713066,-7.065882 -3.186965,-14.041176 -3.367791,-15.938222 -5.542667,-22.55153 -7.539041,-22.92453 -3.086981,-0.576768 -3.78747,2.783564 -6.6108,31.712835 -1.668599,17.097309 -2.200164,18.841109 -5.743382,18.841109 -1.44697,0 -3.324811,-0.80127 -4.2350749,-1.8071 C 7.2755917,100.88606 7.1712937,99.558655 7.7285497,89.59852 8.4844971,76.087066 13.267777,30.622711 15.025285,20.244155 c 1.368182,-8.079482 2.399168,-10.132422 4.843693,-9.644946 0.853593,0.17022 3.083748,0.554834 4.955901,0.854699 4.594611,0.735923 5.725609,2.804187 7.434669,13.595833 1.690177,10.672418 2.78248,14.376554 4.711583,15.977568 2.271335,1.885041 4.423187,-1.723253 8.102819,-13.587072 1.798561,-5.79889 3.899858,-11.256819 4.669551,-12.128731 1.055963,-1.1962 2.81019,-1.585294 7.147277,-1.585294 h 5.747834 l 0.01429,4.755882 c 0.0079,2.615735 0.816719,22.080883 1.797479,43.255883 0.98076,21.175 1.789627,39.994893 1.797483,41.821993 0.01401,3.26024 -0.07075,3.34023 -4.559718,4.30295 -5.56762,1.19403 -4.989336,1.20848 -6.06231,-0.15141 z"
         id="path923"
         transform="matrix(0.89321906,0,0,1.3666992,-723.14901,-4.5441382)" />
    </g>
  </g>
</svg>
