<?xml version="1.0" encoding="UTF-8" standalone="no"?>
<svg
   xmlns:dc="http://purl.org/dc/elements/1.1/"
   xmlns:cc="http://creativecommons.org/ns#"
   xmlns:rdf="http://www.w3.org/1999/02/22-rdf-syntax-ns#"
   xmlns:svg="http://www.w3.org/2000/svg"
   xmlns="http://www.w3.org/2000/svg"
   xmlns:sodipodi="http://sodipodi.sourceforge.net/DTD/sodipodi-0.dtd"
   xmlns:inkscape="http://www.inkscape.org/namespaces/inkscape"
   version="1.1"
   id="Capa_1"
   x="0px"
   y="0px"
   width="425.19901"
   height="386"
   viewBox="0 0 425.199 386"
   enable-background="new 0 0 425.199 425.199"
   xml:space="preserve"
   sodipodi:docname="logo1.svg"
   inkscape:version="1.0.1 (3bc2e813f5, 2020-09-07)"><metadata
   id="metadata97"><rdf:RDF><cc:Work
       rdf:about=""><dc:format>image/svg+xml</dc:format><dc:type
         rdf:resource="http://purl.org/dc/dcmitype/StillImage" /><dc:title></dc:title></cc:Work></rdf:RDF></metadata><defs
   id="defs95" /><sodipodi:namedview
   pagecolor="#ffffff"
   bordercolor="#666666"
   borderopacity="1"
   objecttolerance="10"
   gridtolerance="10"
   guidetolerance="10"
   inkscape:pageopacity="0"
   inkscape:pageshadow="2"
   inkscape:window-width="1920"
   inkscape:window-height="1017"
   id="namedview93"
   showgrid="false"
   inkscape:zoom="2.1467963"
   inkscape:cx="212.3845"
   inkscape:cy="156.84604"
   inkscape:window-x="-8"
   inkscape:window-y="-8"
   inkscape:window-maximized="1"
   inkscape:current-layer="Capa_1" />
<g
   id="g90"
   transform="translate(1.3974311,-20.029846)">
	<g
   id="g8">
		<g
   id="g6">
			<path
   d="m 181.351,244.33 c -11.832,11.896 -37.535,35.572 -19.544,19.078 -1.073,0.984 -2.05,2.072 -3.906,3.963 L 209.235,267.1 93.982,404.114 93.099,403.577 134.605,303.825 64.267,302.804 98.839,244.326 0.021,244.32 0,21.086 l 424.748,0.024 0.021,223.235 z"
   id="path2" />
			<path
   fill="none"
   stroke="#000000"
   stroke-width="1.9105"
   stroke-miterlimit="3.8637"
   d="m 181.351,244.33 c -11.832,11.896 -37.535,35.572 -19.544,19.078 -1.073,0.984 -2.05,2.072 -3.906,3.963 L 209.235,267.1 93.982,404.114 93.099,403.577 134.605,303.825 64.267,302.804 98.839,244.326 0.021,244.32 0,21.086 l 424.748,0.024 0.021,223.235 z"
   id="path4" />
		</g>
	</g>
	<g
   id="g88">
		<g
   id="g86">
			<g
   id="g12">
				<path
   fill="#eb1c24"
   d="m 11.066,72.082 403.111,0.023 0.021,162.231 -235.65,-0.015 c -15.781,16.017 -39.822,40.549 -41.295,42.049 h 50.53 l -60.984,71.438 25.266,-52.271 H 82.366 l 33.321,-61.219 -104.604,-0.006 z"
   id="path10" />
			</g>
			<g
   id="g22">
				<g
   id="g20">
					<g
   id="g18">
						<g
   id="g16">
							<path
   fill="#ffffff"
   d="M 353.162,109.29 V 84.458 l -69.107,0.001 -11.364,82.961 -11.247,-82.961 h -24.921 l 2.791,22.137 c -2.879,-5.671 -13.082,-22.137 -35.536,-22.137 -0.148,-0.011 -24.956,0 -24.956,0 L 178.728,205.381 160.562,84.46 127.922,84.44 109.132,209.733 109.14,84.46 H 77.904 L 66.643,154.837 55.673,84.461 H 24.425 l 10e-4,136.214 24.607,-0.002 -0.001,-65.654 11.193,65.652 h 13.082 l 11.035,-65.652 v 65.652 h 47.438 l 2.878,-20.959 h 19.099 l 2.869,20.959 46.573,0.028 h 0.038 v -0.028 h 0.028 0.029 v -44.216 l 5.709,-0.831 11.821,45.075 h 0.029 l 24.03,-0.002 0.027,0.002 -0.009,-0.028 h 0.042 0.028 L 229.459,167.84 c 7.861,-5.814 16.736,-20.578 14.374,-34.702 v -0.009 c 0.028,0.19 14.643,87.629 14.643,87.629 L 287.125,220.67 306.7,97.202 306.701,220.67 h 46.458 l -10e-4,-24.499 -22.053,0.001 -0.001,-31.24 h 22.054 V 140.06 h -22.054 v -30.771 h 22.054 v 0.001 z m -215.604,68.822 6.756,-58.233 7.016,58.233 z m 71.527,-26.89 c -1.894,0.918 -3.868,1.377 -5.791,1.377 v -43.814 c 0.034,0 0.072,-0.009 0.12,-0.009 1.927,-0.01 16.295,0.583 16.295,21.677 0,11.034 -4.886,17.987 -10.624,20.769 z m 193.658,44.932 v 24.498 H 357.424 L 357.422,84.44 h 24.401 l 0.001,111.714 z"
   id="path14" />
						</g>
					</g>
				</g>
			</g>
			<g
   id="g84">
				<g
   id="g82">
					<g
   id="g80">
						<g
   id="g26">
							<path
   fill="#ffffff"
   d="m 49.25,31.711 c 1.227,18.034 1.797,29.759 1.709,35.17 l -9.014,1.471 c -0.017,-1.969 -0.323,-7.265 -0.92,-15.888 -0.08,-2.304 -0.16,-3.698 -0.239,-4.185 0.063,0.017 0.096,-0.012 0.096,-0.084 l -0.096,-0.022 c -1.761,4.335 -4.3,10.076 -7.616,17.226 l -5.954,-18.35 c 0.017,-0.542 -0.371,1.546 -1.16,6.264 -0.789,4.718 -1.362,9.078 -1.721,13.079 -3.172,0.143 -6.281,-0.263 -9.325,-1.22 0.446,-4.185 1.243,-8.985 2.392,-14.405 1.067,-4.901 2.164,-11.44 3.287,-19.617 3.363,-0.239 6.897,-0.458 10.604,-0.657 0.718,4.773 1.722,9.045 3.013,12.815 1.172,-2.885 2.778,-6.771 4.818,-11.656 2.805,-0.192 6.18,-0.172 10.126,0.059 z"
   id="path24" />
						</g>
						<g
   id="g30">
							<path
   fill="#ffffff"
   d="m 64.139,31.352 c 4.663,2.471 5.276,5.559 1.842,9.265 -2.264,1.036 -4.483,1.415 -6.659,1.137 -1.211,-0.199 -2.359,-0.944 -3.443,-2.235 -0.564,-0.733 -0.792,-1.773 -0.681,-3.12 0.311,-2.605 1.689,-4.2 4.137,-4.782 1.362,-0.33 2.963,-0.417 4.804,-0.265 z m 3.324,12.616 c -0.757,8.304 -1.506,16.029 -2.248,23.179 -2.216,0.526 -4.183,0.791 -5.899,0.795 -1.719,0.004 -2.62,-0.006 -2.708,-0.03 -0.566,-5.14 -0.905,-12.989 -1.018,-23.55 2.274,-0.693 6.231,-0.825 11.873,-0.394 z"
   id="path28" />
						</g>
						<g
   id="g34">
							<path
   fill="#ffffff"
   d="m 97.106,32.364 c -0.04,1.89 -0.573,4.68 -1.603,8.369 -2.017,-0.455 -4.24,-0.682 -6.671,-0.682 -2.821,0.056 -4.894,0.539 -6.216,1.449 -1.706,1.197 -2.476,2.447 -2.309,3.748 0.519,1.3 1.635,1.522 3.349,0.67 1.722,-0.582 2.925,-0.873 3.609,-0.873 0.551,-0.13 1.312,-0.162 2.283,-0.099 1.355,0.032 2.539,0.268 3.551,0.705 0.965,0.367 1.789,1.04 2.475,2.021 0.542,0.692 0.96,1.638 1.256,2.833 0.478,2.495 0.295,5.088 -0.55,7.781 -3.556,8.241 -11.246,11.273 -23.073,9.099 l -0.299,-9.42 c 1.156,0.311 2.706,0.648 4.65,1.016 6.592,0.128 9.947,-1.227 10.066,-4.063 -0.152,-1.81 -1.279,-2.332 -3.384,-1.566 -1.96,0.772 -3.295,1.227 -4.004,1.363 -1.476,0.136 -2.63,0.09 -3.467,-0.138 -0.838,-0.227 -1.794,-0.799 -2.869,-1.715 -0.287,-0.215 -0.586,-0.609 -0.897,-1.184 -0.518,-0.733 -0.876,-1.709 -1.076,-2.93 -0.263,-7.226 2.771,-12.372 9.099,-15.439 4.742,-2.065 10.102,-2.379 16.08,-0.945 z"
   id="path32" />
						</g>
						<g
   id="g38">
							<path
   fill="#ffffff"
   d="m 135.104,31.579 -0.454,14.25 c -5.085,-1.243 -8.355,-0.183 -9.811,3.181 -1.455,3.362 -1.276,6.104 0.532,8.225 0.358,0.247 0.825,0.526 1.397,0.837 1.698,0.686 3.663,0.431 5.895,-0.765 0.781,-0.566 1.407,-0.964 1.877,-1.195 l 1.147,10.878 c -1.308,0.733 -2.807,1.088 -4.495,1.064 -9.708,0.534 -15.555,-3.718 -17.539,-12.755 -0.687,-3.778 -0.013,-8.186 2.021,-13.223 0.813,-1.657 2.018,-3.259 3.611,-4.806 2.072,-1.96 4.459,-3.499 7.161,-4.615 2.248,-0.844 4.235,-1.251 5.966,-1.219 2.129,-0.032 3.027,0.015 2.692,0.143 z"
   id="path36" />
						</g>
						<g
   id="g42">
							<path
   fill="#ffffff"
   d="m 162.125,35.679 c 1.889,2.503 3.26,5.428 4.113,8.774 0.445,2.032 0.646,4.058 0.598,6.073 -1.307,12.345 -7.201,18.027 -17.682,17.047 -2.997,-0.638 -5.372,-2.502 -7.125,-5.595 -1.181,-2.311 -1.881,-4.821 -2.104,-7.531 -0.215,-2.917 0.072,-5.896 0.861,-8.94 0.757,-2.472 1.506,-4.355 2.248,-5.654 0.176,-0.502 0.825,-1.463 1.949,-2.882 6.151,-6.718 11.865,-7.149 17.142,-1.292 z m -13.629,18.59 c 0.622,3.236 2.004,4.885 4.147,4.95 1.89,0.199 3.403,-0.79 4.544,-2.965 1.251,-2.773 1.537,-5.56 0.86,-8.356 -0.925,-3.555 -2.304,-5.3 -4.137,-5.236 -2.319,0.327 -4.005,2.379 -5.057,6.157 -0.485,1.936 -0.604,3.752 -0.357,5.45 z"
   id="path40" />
						</g>
						<g
   id="g46">
							<path
   fill="#ffffff"
   d="m 182.094,30.209 -1.303,27.377 c 3.547,-0.669 6.978,-1.057 10.293,-1.16 0.215,3.522 0.06,6.687 -0.466,9.492 -5.005,0.939 -11.588,1.646 -19.75,2.115 l 0.239,-12.157 c 0.375,-11.183 0.502,-19.148 0.383,-23.898 3.794,-0.971 7.33,-1.561 10.604,-1.769 z"
   id="path44" />
						</g>
						<g
   id="g50">
							<path
   fill="#ffffff"
   d="m 218.473,31.017 c 0.278,2.288 0.115,5.389 -0.489,9.303 -5.037,0.112 -9.521,0.482 -13.45,1.112 -0.096,1.235 -0.131,2.244 -0.107,3.024 4.52,-0.343 6.99,-0.453 7.412,-0.335 l -0.106,7.092 -6.733,0.706 -0.095,0.107 c 0.063,1.802 0.106,2.989 0.131,3.563 l 0.179,0.06 c 1.141,-0.032 2.563,-0.195 4.269,-0.49 1.649,-0.303 4.431,-0.573 8.345,-0.813 0.59,2.886 0.824,6.381 0.705,10.487 -2.407,0.15 -9.755,0.925 -22.045,2.319 0.032,-0.702 0.047,-2.77 0.047,-6.206 0,-3.436 -0.191,-9.032 -0.574,-16.789 -0.023,-0.533 -0.056,-1.874 -0.096,-4.018 -0.334,-4.504 -0.458,-7.144 -0.371,-7.916 8.489,-0.325 16.148,-0.728 22.978,-1.206 z"
   id="path48" />
						</g>
						<g
   id="g54">
							<path
   fill="#ffffff"
   d="m 244.961,31.579 -0.453,14.25 c -5.086,-1.243 -8.354,-0.183 -9.811,3.181 -1.454,3.362 -1.276,6.104 0.533,8.225 0.357,0.247 0.823,0.526 1.397,0.837 1.697,0.686 3.662,0.431 5.895,-0.765 0.78,-0.566 1.406,-0.964 1.878,-1.195 l 1.146,10.878 c -1.307,0.733 -2.805,1.088 -4.494,1.064 -9.708,0.534 -15.555,-3.718 -17.539,-12.755 -0.686,-3.778 -0.012,-8.186 2.021,-13.223 0.813,-1.657 2.017,-3.259 3.609,-4.806 2.072,-1.96 4.459,-3.499 7.161,-4.615 2.248,-0.844 4.236,-1.251 5.967,-1.219 2.13,-0.032 3.026,0.015 2.69,0.143 z"
   id="path52" />
						</g>
						<g
   id="g58">
							<path
   fill="#ffffff"
   d="m 271.541,31.579 -0.455,14.25 c -5.084,-1.243 -8.354,-0.183 -9.809,3.181 -1.455,3.362 -1.277,6.104 0.53,8.225 0.359,0.247 0.825,0.526 1.399,0.837 1.697,0.686 3.662,0.431 5.894,-0.765 0.781,-0.566 1.407,-0.964 1.878,-1.195 l 1.147,10.878 c -1.308,0.733 -2.806,1.088 -4.496,1.064 -9.707,0.534 -15.553,-3.718 -17.537,-12.755 -0.686,-3.778 -0.013,-8.186 2.021,-13.223 0.813,-1.657 2.017,-3.259 3.61,-4.806 2.072,-1.96 4.459,-3.499 7.16,-4.615 2.248,-0.844 4.236,-1.251 5.966,-1.219 2.13,-0.032 3.026,0.015 2.692,0.143 z"
   id="path56" />
						</g>
						<g
   id="g62">
							<path
   fill="#ffffff"
   d="m 285.149,31.352 c 4.661,2.471 5.275,5.559 1.842,9.265 -2.265,1.036 -4.484,1.415 -6.66,1.137 -1.211,-0.199 -2.359,-0.944 -3.443,-2.235 -0.564,-0.733 -0.793,-1.773 -0.682,-3.12 0.312,-2.605 1.69,-4.2 4.137,-4.782 1.362,-0.33 2.963,-0.417 4.806,-0.265 z m 3.323,12.616 c -0.758,8.304 -1.507,16.029 -2.248,23.179 -2.216,0.526 -4.183,0.791 -5.899,0.795 -1.716,0.004 -2.62,-0.006 -2.707,-0.03 -0.566,-5.14 -0.905,-12.989 -1.019,-23.55 2.273,-0.693 6.23,-0.825 11.873,-0.394 z"
   id="path60" />
						</g>
						<g
   id="g66">
							<path
   fill="#ffffff"
   d="m 314.894,35.679 c 1.89,2.503 3.261,5.428 4.113,8.774 0.446,2.032 0.646,4.058 0.598,6.073 -1.308,12.345 -7.2,18.027 -17.682,17.047 -2.997,-0.638 -5.373,-2.502 -7.126,-5.595 -1.18,-2.311 -1.881,-4.821 -2.104,-7.531 -0.216,-2.917 0.071,-5.896 0.86,-8.94 0.757,-2.472 1.506,-4.355 2.248,-5.654 0.175,-0.502 0.824,-1.463 1.948,-2.882 6.156,-6.718 11.87,-7.149 17.145,-1.292 z m -13.629,18.59 c 0.622,3.236 2.004,4.885 4.148,4.95 1.889,0.199 3.402,-0.79 4.543,-2.965 1.252,-2.773 1.539,-5.56 0.86,-8.356 -0.925,-3.555 -2.304,-5.3 -4.137,-5.236 -2.319,0.327 -4.005,2.379 -5.057,6.157 -0.484,1.936 -0.603,3.752 -0.357,5.45 z"
   id="path64" />
						</g>
						<g
   id="g70">
							<path
   fill="#ffffff"
   d="m 354.219,30.539 c -0.167,1.482 -0.402,3.436 -0.705,5.857 l -3.252,30.448 c -1.952,0.86 -4.364,1.546 -7.232,2.056 -1.978,-5.388 -4.918,-12.034 -8.822,-19.939 l -0.335,5.833 -0.789,11.082 c -2.934,0.82 -6.081,1.343 -9.444,1.565 0.733,-6.949 1.199,-12.193 1.398,-15.731 0.168,-3.315 0.626,-9.783 1.375,-19.402 l 8.703,-0.789 c 1.617,3.674 3.114,6.801 4.489,9.379 1.374,2.578 2.377,4.417 3.007,5.517 0.493,-3.521 1.027,-8.235 1.602,-14.142 4.047,-0.749 7.383,-1.327 10.005,-1.734 z"
   id="path68" />
						</g>
						<g
   id="g74">
							<path
   fill="#ffffff"
   d="m 381.245,31.017 c 0.278,2.288 0.115,5.389 -0.49,9.303 -5.037,0.112 -9.521,0.482 -13.45,1.112 -0.096,1.235 -0.131,2.244 -0.106,3.024 4.52,-0.343 6.989,-0.453 7.411,-0.335 l -0.106,7.092 -6.73,0.706 -0.096,0.107 c 0.064,1.802 0.107,2.989 0.132,3.563 l 0.179,0.06 c 1.142,-0.032 2.563,-0.195 4.27,-0.49 1.649,-0.303 4.432,-0.573 8.345,-0.813 0.59,2.886 0.824,6.381 0.705,10.487 -2.406,0.15 -9.756,0.925 -22.045,2.319 0.031,-0.702 0.047,-2.77 0.047,-6.206 0,-3.436 -0.189,-9.032 -0.573,-16.789 -0.023,-0.533 -0.056,-1.874 -0.096,-4.018 -0.335,-4.504 -0.458,-7.144 -0.37,-7.916 8.484,-0.325 16.142,-0.728 22.973,-1.206 z"
   id="path72" />
						</g>
						<g
   id="g78">
							<path
   fill="#ffffff"
   d="m 411.224,32.364 c -0.04,1.89 -0.574,4.68 -1.602,8.369 -2.019,-0.455 -4.24,-0.682 -6.672,-0.682 -2.821,0.056 -4.895,0.539 -6.218,1.449 -1.705,1.197 -2.475,2.447 -2.307,3.748 0.518,1.3 1.633,1.522 3.347,0.67 1.723,-0.582 2.926,-0.873 3.61,-0.873 0.551,-0.13 1.312,-0.162 2.283,-0.099 1.354,0.032 2.539,0.268 3.552,0.705 0.964,0.367 1.789,1.04 2.474,2.021 0.543,0.692 0.961,1.638 1.257,2.833 0.479,2.495 0.295,5.088 -0.551,7.781 -3.555,8.241 -11.245,11.273 -23.072,9.099 l -0.3,-9.42 c 1.155,0.311 2.705,0.648 4.65,1.016 6.591,0.128 9.946,-1.227 10.066,-4.063 -0.152,-1.81 -1.279,-2.332 -3.385,-1.566 -1.96,0.772 -3.296,1.227 -4.005,1.363 -1.475,0.136 -2.631,0.09 -3.467,-0.138 -0.837,-0.227 -1.793,-0.799 -2.869,-1.715 -0.287,-0.215 -0.586,-0.609 -0.896,-1.184 -0.52,-0.733 -0.877,-1.709 -1.076,-2.93 -0.264,-7.226 2.77,-12.372 9.098,-15.439 4.745,-2.065 10.105,-2.379 16.083,-0.945 z"
   id="path76" />
						</g>
					</g>
				</g>
			</g>
		</g>
	</g>
</g>
</svg>
