<?xml version="1.0" encoding="UTF-8" standalone="no"?>
<svg
   xmlns:dc="http://purl.org/dc/elements/1.1/"
   xmlns:cc="http://creativecommons.org/ns#"
   xmlns:rdf="http://www.w3.org/1999/02/22-rdf-syntax-ns#"
   xmlns:svg="http://www.w3.org/2000/svg"
   xmlns="http://www.w3.org/2000/svg"
   xmlns:sodipodi="http://sodipodi.sourceforge.net/DTD/sodipodi-0.dtd"
   xmlns:inkscape="http://www.inkscape.org/namespaces/inkscape"
   version="1.1"
   id="Capa_1"
   x="0px"
   y="0px"
   width="424.20001"
   height="225"
   viewBox="0 0 424.2 224.99999"
   enable-background="new 0 0 425.2 425.2"
   xml:space="preserve"
   sodipodi:docname="mis coleecciones marvel 2.svg"
   inkscape:version="1.0.1 (3bc2e813f5, 2020-09-07)"><metadata
   id="metadata103"><rdf:RDF><cc:Work
       rdf:about=""><dc:format>image/svg+xml</dc:format><dc:type
         rdf:resource="http://purl.org/dc/dcmitype/StillImage" /><dc:title></dc:title></cc:Work></rdf:RDF></metadata><defs
   id="defs101" /><sodipodi:namedview
   pagecolor="#ffffff"
   bordercolor="#666666"
   borderopacity="1"
   objecttolerance="10"
   gridtolerance="10"
   guidetolerance="10"
   inkscape:pageopacity="0"
   inkscape:pageshadow="2"
   inkscape:window-width="1920"
   inkscape:window-height="1017"
   id="namedview99"
   showgrid="false"
   inkscape:zoom="5.6541933"
   inkscape:cx="129.00104"
   inkscape:cy="40.071358"
   inkscape:window-x="-8"
   inkscape:window-y="-8"
   inkscape:window-maximized="1"
   inkscape:current-layer="Capa_1" />
<g
   id="g96"
   transform="translate(-0.20720427,-100.22392)">
	<g
   id="g94">
		<g
   id="g92">
			<g
   id="g90">
				<g
   id="g8">
					<g
   id="g6">
						<polygon
   points="423.979,102.011 423.999,324.195 1.249,324.17 1.229,101.985 "
   id="polygon2" />
						<polygon
   fill="none"
   stroke="#000000"
   stroke-width="1.9016"
   stroke-miterlimit="3.8637"
   points="423.979,102.011 423.999,324.195 1.249,324.17 1.229,101.985 "
   id="polygon4" />
					</g>
				</g>
				<g
   id="g26">
					<g
   id="g24">
						<g
   id="g16">
							<g
   id="g14">
								<polygon
   fill="#eb1c24"
   points="413.449,314.25 12.233,314.226 12.214,152.758 413.43,152.782 "
   id="polygon10" />
								<path
   fill="#eb1c24"
   d="M 212.832,233.504"
   id="path12" />
							</g>
						</g>
						<g
   id="g22">
							<g
   id="g20">
								<path
   fill="#ffffff"
   d="m 352.73,189.775 -0.001,-24.716 h -68.782 l -11.311,82.571 -11.195,-82.571 h -24.804 l 2.778,22.032 c -2.865,-5.644 -13.021,-22.032 -35.369,-22.032 -0.147,-0.01 -24.838,0 -24.838,0 l -0.094,120.354 -18.081,-120.354 -32.485,-0.019 -18.702,124.703 0.008,-124.685 H 78.764 L 67.556,235.104 56.638,165.059 h -31.1 l 0.001,135.573 H 50.03 v -65.346 l 11.141,65.344 h 13.021 l 10.983,-65.345 0.001,65.345 47.214,-10e-4 2.865,-20.86 h 19.009 l 2.855,20.86 46.354,0.028 h 0.038 v -0.029 h 0.029 0.029 v -44.006 l 5.683,-0.828 11.765,44.863 h 0.029 23.919 0.028 l -0.01,-0.029 h 0.042 0.029 l -15.438,-52.582 c 7.823,-5.785 16.656,-20.48 14.305,-34.538 v -0.009 c 0.029,0.19 14.574,87.216 14.574,87.216 l 28.515,-0.087 19.483,-122.885 0.001,122.885 h 46.239 v -24.383 h -21.949 v -31.092 l 21.949,-0.001 -10e-4,-24.754 h -21.948 v -30.626 h 21.946 z m -214.59,68.497 6.724,-57.96 6.982,57.959 z m 71.19,-26.762 c -1.885,0.913 -3.85,1.371 -5.763,1.371 v -43.609 c 0.033,0 0.072,-0.008 0.12,-0.008 1.918,-0.01 16.218,0.58 16.218,21.574 -0.001,10.982 -4.864,17.902 -10.575,20.672 z m 192.748,44.719 v 24.383 H 356.971 L 356.97,165.041 h 24.286 l 0.002,111.188 z"
   id="path18" />
							</g>
						</g>
					</g>
				</g>
				<g
   id="g88">
					<g
   id="g86">
						<g
   id="g84">
							<g
   id="g30">
								<path
   fill-rule="evenodd"
   clip-rule="evenodd"
   fill="#ffffff"
   d="m 50.247,112.56 c 1.221,17.951 1.789,29.619 1.701,35.004 l -8.972,1.464 c -0.016,-1.959 -0.321,-7.23 -0.916,-15.813 -0.08,-2.292 -0.159,-3.68 -0.238,-4.164 0.063,0.016 0.095,-0.012 0.095,-0.083 l -0.095,-0.023 c -1.753,4.315 -4.28,10.03 -7.58,17.145 l -5.926,-18.264 c 0.016,-0.54 -0.369,1.539 -1.154,6.234 -0.785,4.696 -1.356,9.035 -1.713,13.017 -3.157,0.143 -6.251,-0.262 -9.281,-1.214 0.444,-4.165 1.238,-8.943 2.38,-14.337 1.063,-4.878 2.154,-11.387 3.272,-19.525 3.348,-0.238 6.866,-0.456 10.555,-0.654 0.714,4.751 1.713,9.003 2.999,12.755 1.166,-2.872 2.765,-6.739 4.795,-11.601 2.792,-0.191 6.151,-0.171 10.078,0.059 z"
   id="path28" />
							</g>
							<g
   id="g34">
								<path
   fill-rule="evenodd"
   clip-rule="evenodd"
   fill="#ffffff"
   d="m 65.066,112.203 c 4.64,2.459 5.251,5.533 1.833,9.221 -2.253,1.031 -4.462,1.408 -6.628,1.13 -1.206,-0.198 -2.348,-0.94 -3.427,-2.225 -0.563,-0.729 -0.789,-1.765 -0.678,-3.105 0.31,-2.594 1.682,-4.18 4.118,-4.759 1.355,-0.325 2.95,-0.412 4.782,-0.262 z m 3.309,12.557 c -0.754,8.265 -1.5,15.955 -2.237,23.07 -2.205,0.523 -4.163,0.787 -5.873,0.792 -1.709,0.004 -2.607,-0.006 -2.695,-0.03 -0.563,-5.116 -0.9,-12.929 -1.012,-23.439 2.261,-0.691 6.2,-0.822 11.817,-0.393 z"
   id="path32" />
							</g>
							<g
   id="g38">
								<path
   fill-rule="evenodd"
   clip-rule="evenodd"
   fill="#ffffff"
   d="m 97.877,113.211 c -0.04,1.88 -0.571,4.656 -1.594,8.33 -2.007,-0.453 -4.22,-0.679 -6.64,-0.679 -2.808,0.056 -4.871,0.536 -6.188,1.442 -1.698,1.192 -2.463,2.436 -2.296,3.731 0.516,1.292 1.626,1.515 3.332,0.666 1.713,-0.579 2.911,-0.869 3.594,-0.869 0.547,-0.129 1.305,-0.161 2.272,-0.098 1.349,0.032 2.527,0.266 3.534,0.702 0.96,0.365 1.781,1.035 2.463,2.011 0.54,0.69 0.956,1.63 1.25,2.82 0.476,2.483 0.293,5.064 -0.547,7.746 -3.538,8.202 -11.193,11.22 -22.965,9.055 l -0.298,-9.375 c 1.15,0.309 2.693,0.646 4.629,1.011 6.56,0.127 9.9,-1.222 10.019,-4.045 -0.151,-1.801 -1.273,-2.32 -3.368,-1.559 -1.951,0.77 -3.28,1.222 -3.986,1.357 -1.468,0.135 -2.618,0.089 -3.451,-0.137 -0.833,-0.226 -1.785,-0.795 -2.855,-1.707 -0.286,-0.214 -0.583,-0.607 -0.893,-1.178 -0.516,-0.73 -0.873,-1.701 -1.071,-2.915 -0.262,-7.191 2.757,-12.314 9.055,-15.368 4.72,-2.056 10.055,-2.369 16.004,-0.941 z"
   id="path36" />
							</g>
							<g
   id="g42">
								<path
   fill-rule="evenodd"
   clip-rule="evenodd"
   fill="#ffffff"
   d="m 135.697,112.429 -0.452,14.183 c -5.061,-1.238 -8.315,-0.183 -9.763,3.165 -1.448,3.348 -1.271,6.076 0.53,8.186 0.356,0.246 0.821,0.523 1.392,0.833 1.69,0.682 3.645,0.428 5.866,-0.762 0.778,-0.563 1.4,-0.96 1.869,-1.189 l 1.142,10.827 c -1.301,0.73 -2.792,1.083 -4.474,1.059 -9.662,0.531 -15.48,-3.7 -17.456,-12.695 -0.683,-3.76 -0.012,-8.146 2.011,-13.159 0.809,-1.65 2.007,-3.244 3.594,-4.783 2.063,-1.951 4.438,-3.482 7.127,-4.593 2.237,-0.841 4.216,-1.245 5.938,-1.213 2.117,-0.033 3.009,0.015 2.676,0.141 z"
   id="path40" />
							</g>
							<g
   id="g46">
								<path
   fill-rule="evenodd"
   clip-rule="evenodd"
   fill="#ffffff"
   d="m 162.591,116.51 c 1.88,2.491 3.244,5.402 4.093,8.733 0.444,2.023 0.643,4.038 0.595,6.044 -1.301,12.287 -7.167,17.942 -17.599,16.966 -2.983,-0.634 -5.347,-2.491 -7.092,-5.568 -1.174,-2.3 -1.872,-4.798 -2.094,-7.496 -0.214,-2.903 0.071,-5.87 0.856,-8.9 0.754,-2.459 1.5,-4.335 2.237,-5.627 0.174,-0.5 0.821,-1.456 1.939,-2.868 6.126,-6.686 11.814,-7.114 17.065,-1.284 z m -13.565,18.502 c 0.619,3.22 1.995,4.862 4.128,4.926 1.88,0.198 3.388,-0.785 4.522,-2.951 1.246,-2.76 1.531,-5.533 0.856,-8.317 -0.92,-3.538 -2.292,-5.275 -4.117,-5.211 -2.309,0.325 -3.986,2.368 -5.033,6.127 -0.483,1.928 -0.602,3.736 -0.356,5.426 z"
   id="path44" />
							</g>
							<g
   id="g50">
								<path
   fill-rule="evenodd"
   clip-rule="evenodd"
   fill="#ffffff"
   d="m 182.467,111.065 -1.297,27.249 c 3.53,-0.667 6.945,-1.051 10.245,-1.154 0.214,3.506 0.06,6.655 -0.464,9.447 -4.982,0.936 -11.534,1.638 -19.657,2.106 l 0.238,-12.101 c 0.373,-11.129 0.5,-19.058 0.381,-23.786 3.775,-0.967 7.294,-1.554 10.554,-1.761 z"
   id="path48" />
							</g>
							<g
   id="g54">
								<path
   fill-rule="evenodd"
   clip-rule="evenodd"
   fill="#ffffff"
   d="m 218.674,111.87 c 0.278,2.277 0.115,5.364 -0.487,9.259 -5.013,0.111 -9.476,0.48 -13.387,1.107 -0.095,1.23 -0.131,2.233 -0.107,3.011 4.498,-0.341 6.957,-0.452 7.377,-0.333 l -0.107,7.057 -6.699,0.702 -0.095,0.107 c 0.063,1.793 0.107,2.975 0.131,3.546 l 0.179,0.06 c 1.134,-0.032 2.55,-0.194 4.248,-0.488 1.642,-0.301 4.41,-0.571 8.305,-0.809 0.588,2.872 0.822,6.351 0.703,10.438 -2.396,0.15 -9.71,0.92 -21.942,2.309 0.032,-0.698 0.048,-2.757 0.048,-6.177 0,-3.42 -0.19,-8.99 -0.571,-16.71 -0.024,-0.531 -0.056,-1.864 -0.095,-3.999 -0.333,-4.482 -0.456,-7.109 -0.369,-7.878 8.447,-0.325 16.07,-0.726 22.868,-1.202 z"
   id="path52" />
							</g>
							<g
   id="g58">
								<path
   fill-rule="evenodd"
   clip-rule="evenodd"
   fill="#ffffff"
   d="m 245.038,112.429 -0.452,14.183 c -5.061,-1.238 -8.315,-0.183 -9.764,3.165 -1.447,3.348 -1.271,6.076 0.53,8.186 0.356,0.246 0.821,0.523 1.392,0.833 1.689,0.682 3.646,0.428 5.866,-0.762 0.778,-0.563 1.4,-0.96 1.868,-1.189 l 1.143,10.827 c -1.301,0.73 -2.792,1.083 -4.474,1.059 -9.662,0.531 -15.481,-3.7 -17.456,-12.695 -0.683,-3.76 -0.012,-8.146 2.011,-13.159 0.81,-1.65 2.007,-3.244 3.594,-4.783 2.063,-1.951 4.438,-3.482 7.127,-4.593 2.237,-0.841 4.217,-1.245 5.938,-1.213 2.118,-0.033 3.01,0.015 2.677,0.141 z"
   id="path56" />
							</g>
							<g
   id="g62">
								<path
   fill-rule="evenodd"
   clip-rule="evenodd"
   fill="#ffffff"
   d="m 271.492,112.429 -0.452,14.183 c -5.062,-1.238 -8.315,-0.183 -9.763,3.165 -1.448,3.348 -1.271,6.076 0.529,8.186 0.357,0.246 0.82,0.523 1.392,0.833 1.69,0.682 3.646,0.428 5.866,-0.762 0.777,-0.563 1.4,-0.96 1.869,-1.189 l 1.142,10.827 c -1.301,0.73 -2.792,1.083 -4.474,1.059 -9.662,0.531 -15.48,-3.7 -17.456,-12.695 -0.683,-3.76 -0.013,-8.146 2.011,-13.159 0.809,-1.65 2.008,-3.244 3.594,-4.783 2.063,-1.951 4.438,-3.482 7.127,-4.593 2.237,-0.841 4.217,-1.245 5.938,-1.213 2.119,-0.033 3.01,0.015 2.677,0.141 z"
   id="path60" />
							</g>
							<g
   id="g66">
								<path
   fill-rule="evenodd"
   clip-rule="evenodd"
   fill="#ffffff"
   d="m 285.036,112.203 c 4.64,2.459 5.251,5.533 1.833,9.221 -2.254,1.031 -4.463,1.408 -6.629,1.13 -1.205,-0.198 -2.348,-0.94 -3.427,-2.225 -0.563,-0.729 -0.789,-1.765 -0.679,-3.105 0.311,-2.594 1.683,-4.18 4.117,-4.759 1.358,-0.325 2.952,-0.412 4.785,-0.262 z m 3.308,12.557 c -0.754,8.265 -1.499,15.955 -2.236,23.07 -2.206,0.523 -4.163,0.787 -5.873,0.792 -1.709,0.004 -2.607,-0.006 -2.695,-0.03 -0.563,-5.116 -0.9,-12.929 -1.012,-23.439 2.261,-0.691 6.2,-0.822 11.816,-0.393 z"
   id="path64" />
							</g>
							<g
   id="g70">
								<path
   fill-rule="evenodd"
   clip-rule="evenodd"
   fill="#ffffff"
   d="m 314.643,116.51 c 1.88,2.491 3.244,5.402 4.094,8.733 0.443,2.023 0.643,4.038 0.594,6.044 -1.301,12.287 -7.166,17.942 -17.598,16.966 -2.983,-0.634 -5.348,-2.491 -7.092,-5.568 -1.175,-2.3 -1.873,-4.798 -2.095,-7.496 -0.214,-2.903 0.071,-5.87 0.856,-8.9 0.754,-2.459 1.5,-4.335 2.237,-5.627 0.175,-0.5 0.821,-1.456 1.939,-2.868 6.125,-6.686 11.813,-7.114 17.065,-1.284 z m -13.565,18.502 c 0.618,3.22 1.994,4.862 4.129,4.926 1.879,0.198 3.387,-0.785 4.521,-2.951 1.245,-2.76 1.531,-5.533 0.855,-8.317 -0.92,-3.538 -2.291,-5.275 -4.116,-5.211 -2.309,0.325 -3.986,2.368 -5.033,6.127 -0.483,1.928 -0.602,3.736 -0.356,5.426 z"
   id="path68" />
							</g>
							<g
   id="g74">
								<path
   fill-rule="evenodd"
   clip-rule="evenodd"
   fill="#ffffff"
   d="m 353.783,111.394 c -0.167,1.476 -0.401,3.418 -0.703,5.83 l -3.236,30.305 c -1.943,0.857 -4.343,1.539 -7.199,2.046 -1.967,-5.362 -4.894,-11.978 -8.781,-19.846 l -0.332,5.807 -0.786,11.03 c -2.919,0.817 -6.052,1.336 -9.399,1.559 0.729,-6.917 1.193,-12.136 1.392,-15.658 0.167,-3.3 0.622,-9.736 1.368,-19.311 l 8.662,-0.786 c 1.611,3.657 3.1,6.769 4.469,9.334 1.368,2.566 2.365,4.396 2.992,5.491 0.492,-3.506 1.023,-8.198 1.595,-14.076 4.029,-0.745 7.348,-1.32 9.958,-1.725 z"
   id="path72" />
							</g>
							<g
   id="g78">
								<path
   fill-rule="evenodd"
   clip-rule="evenodd"
   fill="#ffffff"
   d="m 380.681,111.87 c 0.278,2.277 0.115,5.364 -0.487,9.259 -5.014,0.111 -9.477,0.48 -13.387,1.107 -0.096,1.23 -0.131,2.233 -0.107,3.011 4.498,-0.341 6.957,-0.452 7.377,-0.333 l -0.106,7.057 -6.699,0.702 -0.095,0.107 c 0.063,1.793 0.107,2.975 0.131,3.546 l 0.178,0.06 c 1.135,-0.032 2.551,-0.194 4.248,-0.488 1.643,-0.301 4.41,-0.571 8.306,-0.809 0.587,2.872 0.821,6.351 0.702,10.438 -2.396,0.15 -9.709,0.92 -21.941,2.309 0.031,-0.698 0.047,-2.757 0.047,-6.177 0,-3.42 -0.189,-8.99 -0.57,-16.71 -0.024,-0.531 -0.057,-1.864 -0.096,-3.999 -0.333,-4.482 -0.456,-7.109 -0.369,-7.878 8.447,-0.325 16.07,-0.726 22.868,-1.202 z"
   id="path76" />
							</g>
							<g
   id="g82">
								<path
   fill-rule="evenodd"
   clip-rule="evenodd"
   fill="#ffffff"
   d="m 410.52,113.211 c -0.041,1.88 -0.572,4.656 -1.595,8.33 -2.007,-0.453 -4.22,-0.679 -6.64,-0.679 -2.809,0.056 -4.871,0.536 -6.188,1.442 -1.697,1.192 -2.463,2.436 -2.297,3.731 0.516,1.292 1.627,1.515 3.332,0.666 1.713,-0.579 2.911,-0.869 3.594,-0.869 0.547,-0.129 1.305,-0.161 2.271,-0.098 1.35,0.032 2.527,0.266 3.535,0.702 0.959,0.365 1.78,1.035 2.463,2.011 0.539,0.69 0.955,1.63 1.25,2.82 0.475,2.483 0.293,5.064 -0.549,7.746 -3.537,8.202 -11.192,11.22 -22.965,9.055 l -0.297,-9.375 c 1.15,0.309 2.693,0.646 4.629,1.011 6.561,0.127 9.899,-1.222 10.019,-4.045 -0.151,-1.801 -1.273,-2.32 -3.368,-1.559 -1.951,0.77 -3.279,1.222 -3.985,1.357 -1.468,0.135 -2.618,0.089 -3.45,-0.137 -0.834,-0.226 -1.785,-0.795 -2.856,-1.707 -0.286,-0.214 -0.583,-0.607 -0.893,-1.178 -0.516,-0.73 -0.872,-1.701 -1.071,-2.915 -0.261,-7.191 2.758,-12.314 9.056,-15.368 4.719,-2.056 10.054,-2.369 16.005,-0.941 z"
   id="path80" />
							</g>
						</g>
					</g>
				</g>
			</g>
		</g>
	</g>
</g>
</svg>
