<?xml version="1.0" encoding="utf-8"?>
<!-- Generator: Adobe Illustrator 16.0.3, SVG Export Plug-In . SVG Version: 6.00 Build 0)  -->
<!DOCTYPE svg PUBLIC "-//W3C//DTD SVG 1.1//EN" "http://www.w3.org/Graphics/SVG/1.1/DTD/svg11.dtd">
<svg version="1.1" id="Capa_1" xmlns="http://www.w3.org/2000/svg" xmlns:xlink="http://www.w3.org/1999/xlink" x="0px" y="0px"
	 width="425.199px" height="425.199px" viewBox="0 0 425.199 425.199" enable-background="new 0 0 425.199 425.199"
	 xml:space="preserve">
<g>
	<g>
		<g>
			<path d="M181.351,244.33c-11.832,11.896-37.535,35.572-19.544,19.078c-1.073,0.984-2.05,2.072-3.906,3.963l51.334-0.271
				L93.982,404.114l-0.883-0.537l41.506-99.752l-70.338-1.021l34.572-58.478l-98.818-0.006L0,21.086l424.748,0.024l0.021,223.235
				L181.351,244.33z"/>
			<path fill="none" stroke="#000000" stroke-width="1.9105" stroke-miterlimit="3.8637" d="M181.351,244.33
				c-11.832,11.896-37.535,35.572-19.544,19.078c-1.073,0.984-2.05,2.072-3.906,3.963l51.334-0.271L93.982,404.114l-0.883-0.537
				l41.506-99.752l-70.338-1.021l34.572-58.478l-98.818-0.006L0,21.086l424.748,0.024l0.021,223.235L181.351,244.33z"/>
		</g>
	</g>
	<g>
		<g>
			<g>
				<path fill="#EB1C24" d="M11.066,72.082l403.111,0.023l0.021,162.231l-235.65-0.015c-15.781,16.017-39.822,40.549-41.295,42.049
					h50.53l-60.984,71.438l25.266-52.271H82.366l33.321-61.219l-104.604-0.006L11.066,72.082z"/>
			</g>
			<g>
				<g>
					<g>
						<g>
							<path fill="#FFFFFF" d="M353.162,109.29V84.458l-69.107,0.001l-11.364,82.961l-11.247-82.961h-24.921l2.791,22.137
								c-2.879-5.671-13.082-22.137-35.536-22.137c-0.148-0.011-24.956,0-24.956,0l-0.094,120.922L160.562,84.46l-32.64-0.02
								l-18.79,125.293L109.14,84.46H77.904l-11.261,70.377l-10.97-70.376H24.425l0.001,136.214l24.607-0.002l-0.001-65.654
								l11.193,65.652h13.082l11.035-65.652v65.652h47.438l2.878-20.959h19.099l2.869,20.959l46.573,0.028h0.038v-0.028h0.028h0.029
								v-44.216l5.709-0.831l11.821,45.075h0.029l24.03-0.002l0.027,0.002l-0.009-0.028h0.042h0.028l-15.512-52.831
								c7.861-5.814,16.736-20.578,14.374-34.702v-0.009c0.028,0.19,14.643,87.629,14.643,87.629l28.649-0.088l19.575-123.468
								l0.001,123.468h46.458l-0.001-24.499l-22.053,0.001l-0.001-31.24h22.054V140.06h-22.054v-30.771h22.054V109.29z
								 M137.558,178.112l6.756-58.233l7.016,58.233H137.558z M209.085,151.222c-1.894,0.918-3.868,1.377-5.791,1.377v-43.814
								c0.034,0,0.072-0.009,0.12-0.009c1.927-0.01,16.295,0.583,16.295,21.677C219.709,141.487,214.823,148.44,209.085,151.222z
								 M402.743,196.154v24.498h-45.319L357.422,84.44h24.401l0.001,111.714H402.743L402.743,196.154z"/>
						</g>
					</g>
				</g>
			</g>
			<g>
				<g>
					<g>
						<g>
							<path fill="#FFFFFF" d="M49.25,31.711c1.227,18.034,1.797,29.759,1.709,35.17l-9.014,1.471
								c-0.017-1.969-0.323-7.265-0.92-15.888c-0.08-2.304-0.16-3.698-0.239-4.185c0.063,0.017,0.096-0.012,0.096-0.084
								l-0.096-0.022c-1.761,4.335-4.3,10.076-7.616,17.226l-5.954-18.35c0.017-0.542-0.371,1.546-1.16,6.264
								s-1.362,9.078-1.721,13.079c-3.172,0.143-6.281-0.263-9.325-1.22c0.446-4.185,1.243-8.985,2.392-14.405
								c1.067-4.901,2.164-11.44,3.287-19.617c3.363-0.239,6.897-0.458,10.604-0.657c0.718,4.773,1.722,9.045,3.013,12.815
								c1.172-2.885,2.778-6.771,4.818-11.656C41.929,31.46,45.304,31.48,49.25,31.711z"/>
						</g>
						<g>
							<path fill="#FFFFFF" d="M64.139,31.352c4.663,2.471,5.276,5.559,1.842,9.265c-2.264,1.036-4.483,1.415-6.659,1.137
								c-1.211-0.199-2.359-0.944-3.443-2.235c-0.564-0.733-0.792-1.773-0.681-3.12c0.311-2.605,1.689-4.2,4.137-4.782
								C60.697,31.287,62.298,31.2,64.139,31.352z M67.463,43.968c-0.757,8.304-1.506,16.029-2.248,23.179
								c-2.216,0.526-4.183,0.791-5.899,0.795c-1.719,0.004-2.62-0.006-2.708-0.03c-0.566-5.14-0.905-12.989-1.018-23.55
								C57.864,43.669,61.821,43.537,67.463,43.968z"/>
						</g>
						<g>
							<path fill="#FFFFFF" d="M97.106,32.364c-0.04,1.89-0.573,4.68-1.603,8.369c-2.017-0.455-4.24-0.682-6.671-0.682
								c-2.821,0.056-4.894,0.539-6.216,1.449c-1.706,1.197-2.476,2.447-2.309,3.748c0.519,1.3,1.635,1.522,3.349,0.67
								c1.722-0.582,2.925-0.873,3.609-0.873c0.551-0.13,1.312-0.162,2.283-0.099c1.355,0.032,2.539,0.268,3.551,0.705
								c0.965,0.367,1.789,1.04,2.475,2.021c0.542,0.692,0.96,1.638,1.256,2.833c0.478,2.495,0.295,5.088-0.55,7.781
								c-3.556,8.241-11.246,11.273-23.073,9.099l-0.299-9.42c1.156,0.311,2.706,0.648,4.65,1.016
								c6.592,0.128,9.947-1.227,10.066-4.063c-0.152-1.81-1.279-2.332-3.384-1.566c-1.96,0.772-3.295,1.227-4.004,1.363
								c-1.476,0.136-2.63,0.09-3.467-0.138c-0.838-0.227-1.794-0.799-2.869-1.715c-0.287-0.215-0.586-0.609-0.897-1.184
								c-0.518-0.733-0.876-1.709-1.076-2.93c-0.263-7.226,2.771-12.372,9.099-15.439C85.768,31.244,91.128,30.93,97.106,32.364z"/>
						</g>
						<g>
							<path fill="#FFFFFF" d="M135.104,31.579l-0.454,14.25c-5.085-1.243-8.355-0.183-9.811,3.181
								c-1.455,3.362-1.276,6.104,0.532,8.225c0.358,0.247,0.825,0.526,1.397,0.837c1.698,0.686,3.663,0.431,5.895-0.765
								c0.781-0.566,1.407-0.964,1.877-1.195l1.147,10.878c-1.308,0.733-2.807,1.088-4.495,1.064
								c-9.708,0.534-15.555-3.718-17.539-12.755c-0.687-3.778-0.013-8.186,2.021-13.223c0.813-1.657,2.018-3.259,3.611-4.806
								c2.072-1.96,4.459-3.499,7.161-4.615c2.248-0.844,4.235-1.251,5.966-1.219C134.541,31.404,135.439,31.451,135.104,31.579z"/>
						</g>
						<g>
							<path fill="#FFFFFF" d="M162.125,35.679c1.889,2.503,3.26,5.428,4.113,8.774c0.445,2.032,0.646,4.058,0.598,6.073
								c-1.307,12.345-7.201,18.027-17.682,17.047c-2.997-0.638-5.372-2.502-7.125-5.595c-1.181-2.311-1.881-4.821-2.104-7.531
								c-0.215-2.917,0.072-5.896,0.861-8.94c0.757-2.472,1.506-4.355,2.248-5.654c0.176-0.502,0.825-1.463,1.949-2.882
								C151.134,30.253,156.848,29.822,162.125,35.679z M148.496,54.269c0.622,3.236,2.004,4.885,4.147,4.95
								c1.89,0.199,3.403-0.79,4.544-2.965c1.251-2.773,1.537-5.56,0.86-8.356c-0.925-3.555-2.304-5.3-4.137-5.236
								c-2.319,0.327-4.005,2.379-5.057,6.157C148.368,50.755,148.249,52.571,148.496,54.269z"/>
						</g>
						<g>
							<path fill="#FFFFFF" d="M182.094,30.209l-1.303,27.377c3.547-0.669,6.978-1.057,10.293-1.16
								c0.215,3.522,0.06,6.687-0.466,9.492c-5.005,0.939-11.588,1.646-19.75,2.115l0.239-12.157
								c0.375-11.183,0.502-19.148,0.383-23.898C175.284,31.007,178.82,30.417,182.094,30.209z"/>
						</g>
						<g>
							<path fill="#FFFFFF" d="M218.473,31.017c0.278,2.288,0.115,5.389-0.489,9.303c-5.037,0.112-9.521,0.482-13.45,1.112
								c-0.096,1.235-0.131,2.244-0.107,3.024c4.52-0.343,6.99-0.453,7.412-0.335l-0.106,7.092L205,51.919l-0.095,0.107
								c0.063,1.802,0.106,2.989,0.131,3.563l0.179,0.06c1.141-0.032,2.563-0.195,4.269-0.49c1.649-0.303,4.431-0.573,8.345-0.813
								c0.59,2.886,0.824,6.381,0.705,10.487c-2.407,0.15-9.755,0.925-22.045,2.319c0.032-0.702,0.047-2.77,0.047-6.206
								c0-3.436-0.191-9.032-0.574-16.789c-0.023-0.533-0.056-1.874-0.096-4.018c-0.334-4.504-0.458-7.144-0.371-7.916
								C203.984,31.898,211.643,31.495,218.473,31.017z"/>
						</g>
						<g>
							<path fill="#FFFFFF" d="M244.961,31.579l-0.453,14.25c-5.086-1.243-8.354-0.183-9.811,3.181
								c-1.454,3.362-1.276,6.104,0.533,8.225c0.357,0.247,0.823,0.526,1.397,0.837c1.697,0.686,3.662,0.431,5.895-0.765
								c0.78-0.566,1.406-0.964,1.878-1.195l1.146,10.878c-1.307,0.733-2.805,1.088-4.494,1.064
								c-9.708,0.534-15.555-3.718-17.539-12.755c-0.686-3.778-0.012-8.186,2.021-13.223c0.813-1.657,2.017-3.259,3.609-4.806
								c2.072-1.96,4.459-3.499,7.161-4.615c2.248-0.844,4.236-1.251,5.967-1.219C244.401,31.404,245.297,31.451,244.961,31.579z"/>
						</g>
						<g>
							<path fill="#FFFFFF" d="M271.541,31.579l-0.455,14.25c-5.084-1.243-8.354-0.183-9.809,3.181
								c-1.455,3.362-1.277,6.104,0.53,8.225c0.359,0.247,0.825,0.526,1.399,0.837c1.697,0.686,3.662,0.431,5.894-0.765
								c0.781-0.566,1.407-0.964,1.878-1.195l1.147,10.878c-1.308,0.733-2.806,1.088-4.496,1.064
								c-9.707,0.534-15.553-3.718-17.537-12.755c-0.686-3.778-0.013-8.186,2.021-13.223c0.813-1.657,2.017-3.259,3.61-4.806
								c2.072-1.96,4.459-3.499,7.16-4.615c2.248-0.844,4.236-1.251,5.966-1.219C270.979,31.404,271.875,31.451,271.541,31.579z"/>
						</g>
						<g>
							<path fill="#FFFFFF" d="M285.149,31.352c4.661,2.471,5.275,5.559,1.842,9.265c-2.265,1.036-4.484,1.415-6.66,1.137
								c-1.211-0.199-2.359-0.944-3.443-2.235c-0.564-0.733-0.793-1.773-0.682-3.12c0.312-2.605,1.69-4.2,4.137-4.782
								C281.705,31.287,283.306,31.2,285.149,31.352z M288.472,43.968c-0.758,8.304-1.507,16.029-2.248,23.179
								c-2.216,0.526-4.183,0.791-5.899,0.795s-2.62-0.006-2.707-0.03c-0.566-5.14-0.905-12.989-1.019-23.55
								C278.872,43.669,282.829,43.537,288.472,43.968z"/>
						</g>
						<g>
							<path fill="#FFFFFF" d="M314.894,35.679c1.89,2.503,3.261,5.428,4.113,8.774c0.446,2.032,0.646,4.058,0.598,6.073
								c-1.308,12.345-7.2,18.027-17.682,17.047c-2.997-0.638-5.373-2.502-7.126-5.595c-1.18-2.311-1.881-4.821-2.104-7.531
								c-0.216-2.917,0.071-5.896,0.86-8.94c0.757-2.472,1.506-4.355,2.248-5.654c0.175-0.502,0.824-1.463,1.948-2.882
								C303.905,30.253,309.619,29.822,314.894,35.679z M301.265,54.269c0.622,3.236,2.004,4.885,4.148,4.95
								c1.889,0.199,3.402-0.79,4.543-2.965c1.252-2.773,1.539-5.56,0.86-8.356c-0.925-3.555-2.304-5.3-4.137-5.236
								c-2.319,0.327-4.005,2.379-5.057,6.157C301.138,50.755,301.019,52.571,301.265,54.269z"/>
						</g>
						<g>
							<path fill="#FFFFFF" d="M354.219,30.539c-0.167,1.482-0.402,3.436-0.705,5.857l-3.252,30.448
								c-1.952,0.86-4.364,1.546-7.232,2.056c-1.978-5.388-4.918-12.034-8.822-19.939l-0.335,5.833l-0.789,11.082
								c-2.934,0.82-6.081,1.343-9.444,1.565c0.733-6.949,1.199-12.193,1.398-15.731c0.168-3.315,0.626-9.783,1.375-19.402
								l8.703-0.789c1.617,3.674,3.114,6.801,4.489,9.379c1.374,2.578,2.377,4.417,3.007,5.517
								c0.493-3.521,1.027-8.235,1.602-14.142C348.261,31.524,351.597,30.946,354.219,30.539z"/>
						</g>
						<g>
							<path fill="#FFFFFF" d="M381.245,31.017c0.278,2.288,0.115,5.389-0.49,9.303c-5.037,0.112-9.521,0.482-13.45,1.112
								c-0.096,1.235-0.131,2.244-0.106,3.024c4.52-0.343,6.989-0.453,7.411-0.335l-0.106,7.092l-6.73,0.706l-0.096,0.107
								c0.064,1.802,0.107,2.989,0.132,3.563l0.179,0.06c1.142-0.032,2.563-0.195,4.27-0.49c1.649-0.303,4.432-0.573,8.345-0.813
								c0.59,2.886,0.824,6.381,0.705,10.487c-2.406,0.15-9.756,0.925-22.045,2.319c0.031-0.702,0.047-2.77,0.047-6.206
								c0-3.436-0.189-9.032-0.573-16.789c-0.023-0.533-0.056-1.874-0.096-4.018c-0.335-4.504-0.458-7.144-0.37-7.916
								C366.756,31.898,374.414,31.495,381.245,31.017z"/>
						</g>
						<g>
							<path fill="#FFFFFF" d="M411.224,32.364c-0.04,1.89-0.574,4.68-1.602,8.369c-2.019-0.455-4.24-0.682-6.672-0.682
								c-2.821,0.056-4.895,0.539-6.218,1.449c-1.705,1.197-2.475,2.447-2.307,3.748c0.518,1.3,1.633,1.522,3.347,0.67
								c1.723-0.582,2.926-0.873,3.61-0.873c0.551-0.13,1.312-0.162,2.283-0.099c1.354,0.032,2.539,0.268,3.552,0.705
								c0.964,0.367,1.789,1.04,2.474,2.021c0.543,0.692,0.961,1.638,1.257,2.833c0.479,2.495,0.295,5.088-0.551,7.781
								c-3.555,8.241-11.245,11.273-23.072,9.099l-0.3-9.42c1.155,0.311,2.705,0.648,4.65,1.016
								c6.591,0.128,9.946-1.227,10.066-4.063c-0.152-1.81-1.279-2.332-3.385-1.566c-1.96,0.772-3.296,1.227-4.005,1.363
								c-1.475,0.136-2.631,0.09-3.467-0.138c-0.837-0.227-1.793-0.799-2.869-1.715c-0.287-0.215-0.586-0.609-0.896-1.184
								c-0.52-0.733-0.877-1.709-1.076-2.93c-0.264-7.226,2.77-12.372,9.098-15.439C399.886,31.244,405.246,30.93,411.224,32.364z"
								/>
						</g>
					</g>
				</g>
			</g>
		</g>
	</g>
</g>
</svg>
