<?xml version="1.0" encoding="utf-8"?>
<!-- Generator: Adobe Illustrator 16.0.3, SVG Export Plug-In . SVG Version: 6.00 Build 0)  -->
<!DOCTYPE svg PUBLIC "-//W3C//DTD SVG 1.1//EN" "http://www.w3.org/Graphics/SVG/1.1/DTD/svg11.dtd">
<svg version="1.1" id="Capa_1" xmlns="http://www.w3.org/2000/svg" xmlns:xlink="http://www.w3.org/1999/xlink" x="0px" y="0px"
	 width="425.2px" height="425.2px" viewBox="0 0 425.2 425.2" enable-background="new 0 0 425.2 425.2" xml:space="preserve">
<g>
	<g>
		<g>
			<g>
				<g>
					<g>
						<polygon points="1.249,324.17 1.229,101.985 423.979,102.011 423.999,324.195 						"/>
						<polygon fill="none" stroke="#000000" stroke-width="1.9016" stroke-miterlimit="3.8637" points="1.249,324.17 1.229,101.985 
							423.979,102.011 423.999,324.195 						"/>
					</g>
				</g>
				<g>
					<g>
						<g>
							<g>
								<polygon fill="#EB1C24" points="12.214,152.758 413.43,152.782 413.449,314.25 12.233,314.226 12.214,152.758 								"/>
								<path fill="#EB1C24" d="M212.832,233.504"/>
							</g>
						</g>
						<g>
							<g>
								<path fill="#FFFFFF" d="M352.73,189.775l-0.001-24.716l-68.782,0l-11.311,82.571l-11.195-82.571l-24.804,0l2.778,22.032
									c-2.865-5.644-13.021-22.032-35.369-22.032c-0.147-0.01-24.838,0-24.838,0l-0.094,120.354l-18.081-120.354l-32.485-0.019
									l-18.702,124.703l0.008-124.685h-31.09l-11.208,70.046l-10.918-70.045h-31.1l0.001,135.573h24.491l0-65.346l11.141,65.344
									h13.021l10.983-65.345l0.001,65.345l47.214-0.001l2.865-20.86h19.009l2.855,20.86l46.354,0.028h0.038v-0.029h0.029h0.029
									l0-44.006l5.683-0.828l11.765,44.863h0.029h23.919h0.028l-0.01-0.029h0.042h0.029l-15.438-52.582
									c7.823-5.785,16.656-20.48,14.305-34.538v-0.009c0.029,0.19,14.574,87.216,14.574,87.216l28.515-0.087l19.483-122.885
									l0.001,122.885h46.239v-24.383h-21.949v-31.092l21.949-0.001l-0.001-24.754h-21.948v-30.626H352.73z M138.14,258.272
									l6.724-57.96l6.982,57.959L138.14,258.272z M209.33,231.51c-1.885,0.913-3.85,1.371-5.763,1.371l0-43.609
									c0.033,0,0.072-0.008,0.12-0.008c1.918-0.01,16.218,0.58,16.218,21.574C219.904,221.82,215.041,228.74,209.33,231.51z
									 M402.078,276.229v24.383h-45.107l-0.001-135.571h24.286l0.002,111.188H402.078L402.078,276.229z"/>
							</g>
						</g>
					</g>
				</g>
				<g>
					<g>
						<g>
							<g>
								<path fill-rule="evenodd" clip-rule="evenodd" fill="#FFFFFF" d="M50.247,112.56c1.221,17.951,1.789,29.619,1.701,35.004
									l-8.972,1.464c-0.016-1.959-0.321-7.23-0.916-15.813c-0.08-2.292-0.159-3.68-0.238-4.164
									c0.063,0.016,0.095-0.012,0.095-0.083l-0.095-0.023c-1.753,4.315-4.28,10.03-7.58,17.145l-5.926-18.264
									c0.016-0.54-0.369,1.539-1.154,6.234c-0.785,4.696-1.356,9.035-1.713,13.017c-3.157,0.143-6.251-0.262-9.281-1.214
									c0.444-4.165,1.238-8.943,2.38-14.337c1.063-4.878,2.154-11.387,3.272-19.525c3.348-0.238,6.866-0.456,10.555-0.654
									c0.714,4.751,1.713,9.003,2.999,12.755c1.166-2.872,2.765-6.739,4.795-11.601C42.961,112.31,46.32,112.33,50.247,112.56z"/>
							</g>
							<g>
								<path fill-rule="evenodd" clip-rule="evenodd" fill="#FFFFFF" d="M65.066,112.203c4.64,2.459,5.251,5.533,1.833,9.221
									c-2.253,1.031-4.462,1.408-6.628,1.13c-1.206-0.198-2.348-0.94-3.427-2.225c-0.563-0.729-0.789-1.765-0.678-3.105
									c0.31-2.594,1.682-4.18,4.118-4.759C61.639,112.14,63.234,112.053,65.066,112.203z M68.375,124.76
									c-0.754,8.265-1.5,15.955-2.237,23.07c-2.205,0.523-4.163,0.787-5.873,0.792c-1.709,0.004-2.607-0.006-2.695-0.03
									c-0.563-5.116-0.9-12.929-1.012-23.439C58.819,124.462,62.758,124.331,68.375,124.76z"/>
							</g>
							<g>
								<path fill-rule="evenodd" clip-rule="evenodd" fill="#FFFFFF" d="M97.877,113.211c-0.04,1.88-0.571,4.656-1.594,8.33
									c-2.007-0.453-4.22-0.679-6.64-0.679c-2.808,0.056-4.871,0.536-6.188,1.442c-1.698,1.192-2.463,2.436-2.296,3.731
									c0.516,1.292,1.626,1.515,3.332,0.666c1.713-0.579,2.911-0.869,3.594-0.869c0.547-0.129,1.305-0.161,2.272-0.098
									c1.349,0.032,2.527,0.266,3.534,0.702c0.96,0.365,1.781,1.035,2.463,2.011c0.54,0.69,0.956,1.63,1.25,2.82
									c0.476,2.483,0.293,5.064-0.547,7.746c-3.538,8.202-11.193,11.22-22.965,9.055l-0.298-9.375
									c1.15,0.309,2.693,0.646,4.629,1.011c6.56,0.127,9.9-1.222,10.019-4.045c-0.151-1.801-1.273-2.32-3.368-1.559
									c-1.951,0.77-3.28,1.222-3.986,1.357c-1.468,0.135-2.618,0.089-3.451-0.137c-0.833-0.226-1.785-0.795-2.855-1.707
									c-0.286-0.214-0.583-0.607-0.893-1.178c-0.516-0.73-0.873-1.701-1.071-2.915c-0.262-7.191,2.757-12.314,9.055-15.368
									C86.593,112.096,91.928,111.783,97.877,113.211z"/>
							</g>
							<g>
								<path fill-rule="evenodd" clip-rule="evenodd" fill="#FFFFFF" d="M135.697,112.429l-0.452,14.183
									c-5.061-1.238-8.315-0.183-9.763,3.165c-1.448,3.348-1.271,6.076,0.53,8.186c0.356,0.246,0.821,0.523,1.392,0.833
									c1.69,0.682,3.645,0.428,5.866-0.762c0.778-0.563,1.4-0.96,1.869-1.189l1.142,10.827c-1.301,0.73-2.792,1.083-4.474,1.059
									c-9.662,0.531-15.48-3.7-17.456-12.695c-0.683-3.76-0.012-8.146,2.011-13.159c0.809-1.65,2.007-3.244,3.594-4.783
									c2.063-1.951,4.438-3.482,7.127-4.593c2.237-0.841,4.216-1.245,5.938-1.213C135.138,112.255,136.03,112.303,135.697,112.429
									z"/>
							</g>
							<g>
								<path fill-rule="evenodd" clip-rule="evenodd" fill="#FFFFFF" d="M162.591,116.51c1.88,2.491,3.244,5.402,4.093,8.733
									c0.444,2.023,0.643,4.038,0.595,6.044c-1.301,12.287-7.167,17.942-17.599,16.966c-2.983-0.634-5.347-2.491-7.092-5.568
									c-1.174-2.3-1.872-4.798-2.094-7.496c-0.214-2.903,0.071-5.87,0.856-8.9c0.754-2.459,1.5-4.335,2.237-5.627
									c0.174-0.5,0.821-1.456,1.939-2.868C151.652,111.108,157.34,110.68,162.591,116.51z M149.026,135.012
									c0.619,3.22,1.995,4.862,4.128,4.926c1.88,0.198,3.388-0.785,4.522-2.951c1.246-2.76,1.531-5.533,0.856-8.317
									c-0.92-3.538-2.292-5.275-4.117-5.211c-2.309,0.325-3.986,2.368-5.033,6.127
									C148.899,131.514,148.78,133.322,149.026,135.012z"/>
							</g>
							<g>
								<path fill-rule="evenodd" clip-rule="evenodd" fill="#FFFFFF" d="M182.467,111.065l-1.297,27.249
									c3.53-0.667,6.945-1.051,10.245-1.154c0.214,3.506,0.06,6.655-0.464,9.447c-4.982,0.936-11.534,1.638-19.657,2.106
									l0.238-12.101c0.373-11.129,0.5-19.058,0.381-23.786C175.688,111.859,179.207,111.272,182.467,111.065z"/>
							</g>
							<g>
								<path fill-rule="evenodd" clip-rule="evenodd" fill="#FFFFFF" d="M218.674,111.87c0.278,2.277,0.115,5.364-0.487,9.259
									c-5.013,0.111-9.476,0.48-13.387,1.107c-0.095,1.23-0.131,2.233-0.107,3.011c4.498-0.341,6.957-0.452,7.377-0.333
									l-0.107,7.057l-6.699,0.702l-0.095,0.107c0.063,1.793,0.107,2.975,0.131,3.546l0.179,0.06
									c1.134-0.032,2.55-0.194,4.248-0.488c1.642-0.301,4.41-0.571,8.305-0.809c0.588,2.872,0.822,6.351,0.703,10.438
									c-2.396,0.15-9.71,0.92-21.942,2.309c0.032-0.698,0.048-2.757,0.048-6.177c0-3.42-0.19-8.99-0.571-16.71
									c-0.024-0.531-0.056-1.864-0.095-3.999c-0.333-4.482-0.456-7.109-0.369-7.878
									C204.253,112.747,211.876,112.346,218.674,111.87z"/>
							</g>
							<g>
								<path fill-rule="evenodd" clip-rule="evenodd" fill="#FFFFFF" d="M245.038,112.429l-0.452,14.183
									c-5.061-1.238-8.315-0.183-9.764,3.165c-1.447,3.348-1.271,6.076,0.53,8.186c0.356,0.246,0.821,0.523,1.392,0.833
									c1.689,0.682,3.646,0.428,5.866-0.762c0.778-0.563,1.4-0.96,1.868-1.189l1.143,10.827c-1.301,0.73-2.792,1.083-4.474,1.059
									c-9.662,0.531-15.481-3.7-17.456-12.695c-0.683-3.76-0.012-8.146,2.011-13.159c0.81-1.65,2.007-3.244,3.594-4.783
									c2.063-1.951,4.438-3.482,7.127-4.593c2.237-0.841,4.217-1.245,5.938-1.213
									C244.479,112.255,245.371,112.303,245.038,112.429z"/>
							</g>
							<g>
								<path fill-rule="evenodd" clip-rule="evenodd" fill="#FFFFFF" d="M271.492,112.429l-0.452,14.183
									c-5.062-1.238-8.315-0.183-9.763,3.165c-1.448,3.348-1.271,6.076,0.529,8.186c0.357,0.246,0.82,0.523,1.392,0.833
									c1.69,0.682,3.646,0.428,5.866-0.762c0.777-0.563,1.4-0.96,1.869-1.189l1.142,10.827c-1.301,0.73-2.792,1.083-4.474,1.059
									c-9.662,0.531-15.48-3.7-17.456-12.695c-0.683-3.76-0.013-8.146,2.011-13.159c0.809-1.65,2.008-3.244,3.594-4.783
									c2.063-1.951,4.438-3.482,7.127-4.593c2.237-0.841,4.217-1.245,5.938-1.213
									C270.934,112.255,271.825,112.303,271.492,112.429z"/>
							</g>
							<g>
								<path fill-rule="evenodd" clip-rule="evenodd" fill="#FFFFFF" d="M285.036,112.203c4.64,2.459,5.251,5.533,1.833,9.221
									c-2.254,1.031-4.463,1.408-6.629,1.13c-1.205-0.198-2.348-0.94-3.427-2.225c-0.563-0.729-0.789-1.765-0.679-3.105
									c0.311-2.594,1.683-4.18,4.117-4.759C281.609,112.14,283.203,112.053,285.036,112.203z M288.344,124.76
									c-0.754,8.265-1.499,15.955-2.236,23.07c-2.206,0.523-4.163,0.787-5.873,0.792c-1.709,0.004-2.607-0.006-2.695-0.03
									c-0.563-5.116-0.9-12.929-1.012-23.439C278.789,124.462,282.728,124.331,288.344,124.76z"/>
							</g>
							<g>
								<path fill-rule="evenodd" clip-rule="evenodd" fill="#FFFFFF" d="M314.643,116.51c1.88,2.491,3.244,5.402,4.094,8.733
									c0.443,2.023,0.643,4.038,0.594,6.044c-1.301,12.287-7.166,17.942-17.598,16.966c-2.983-0.634-5.348-2.491-7.092-5.568
									c-1.175-2.3-1.873-4.798-2.095-7.496c-0.214-2.903,0.071-5.87,0.856-8.9c0.754-2.459,1.5-4.335,2.237-5.627
									c0.175-0.5,0.821-1.456,1.939-2.868C303.703,111.108,309.391,110.68,314.643,116.51z M301.078,135.012
									c0.618,3.22,1.994,4.862,4.129,4.926c1.879,0.198,3.387-0.785,4.521-2.951c1.245-2.76,1.531-5.533,0.855-8.317
									c-0.92-3.538-2.291-5.275-4.116-5.211c-2.309,0.325-3.986,2.368-5.033,6.127
									C300.951,131.514,300.832,133.322,301.078,135.012z"/>
							</g>
							<g>
								<path fill-rule="evenodd" clip-rule="evenodd" fill="#FFFFFF" d="M353.783,111.394c-0.167,1.476-0.401,3.418-0.703,5.83
									l-3.236,30.305c-1.943,0.857-4.343,1.539-7.199,2.046c-1.967-5.362-4.894-11.978-8.781-19.846l-0.332,5.807l-0.786,11.03
									c-2.919,0.817-6.052,1.336-9.399,1.559c0.729-6.917,1.193-12.136,1.392-15.658c0.167-3.3,0.622-9.736,1.368-19.311
									l8.662-0.786c1.611,3.657,3.1,6.769,4.469,9.334c1.368,2.566,2.365,4.396,2.992,5.491c0.492-3.506,1.023-8.198,1.595-14.076
									C347.854,112.374,351.173,111.799,353.783,111.394z"/>
							</g>
							<g>
								<path fill-rule="evenodd" clip-rule="evenodd" fill="#FFFFFF" d="M380.681,111.87c0.278,2.277,0.115,5.364-0.487,9.259
									c-5.014,0.111-9.477,0.48-13.387,1.107c-0.096,1.23-0.131,2.233-0.107,3.011c4.498-0.341,6.957-0.452,7.377-0.333
									l-0.106,7.057l-6.699,0.702l-0.095,0.107c0.063,1.793,0.107,2.975,0.131,3.546l0.178,0.06
									c1.135-0.032,2.551-0.194,4.248-0.488c1.643-0.301,4.41-0.571,8.306-0.809c0.587,2.872,0.821,6.351,0.702,10.438
									c-2.396,0.15-9.709,0.92-21.941,2.309c0.031-0.698,0.047-2.757,0.047-6.177c0-3.42-0.189-8.99-0.57-16.71
									c-0.024-0.531-0.057-1.864-0.096-3.999c-0.333-4.482-0.456-7.109-0.369-7.878
									C366.26,112.747,373.883,112.346,380.681,111.87z"/>
							</g>
							<g>
								<path fill-rule="evenodd" clip-rule="evenodd" fill="#FFFFFF" d="M410.52,113.211c-0.041,1.88-0.572,4.656-1.595,8.33
									c-2.007-0.453-4.22-0.679-6.64-0.679c-2.809,0.056-4.871,0.536-6.188,1.442c-1.697,1.192-2.463,2.436-2.297,3.731
									c0.516,1.292,1.627,1.515,3.332,0.666c1.713-0.579,2.911-0.869,3.594-0.869c0.547-0.129,1.305-0.161,2.271-0.098
									c1.35,0.032,2.527,0.266,3.535,0.702c0.959,0.365,1.78,1.035,2.463,2.011c0.539,0.69,0.955,1.63,1.25,2.82
									c0.475,2.483,0.293,5.064-0.549,7.746c-3.537,8.202-11.192,11.22-22.965,9.055l-0.297-9.375
									c1.15,0.309,2.693,0.646,4.629,1.011c6.561,0.127,9.899-1.222,10.019-4.045c-0.151-1.801-1.273-2.32-3.368-1.559
									c-1.951,0.77-3.279,1.222-3.985,1.357c-1.468,0.135-2.618,0.089-3.45-0.137c-0.834-0.226-1.785-0.795-2.856-1.707
									c-0.286-0.214-0.583-0.607-0.893-1.178c-0.516-0.73-0.872-1.701-1.071-2.915c-0.261-7.191,2.758-12.314,9.056-15.368
									C399.234,112.096,404.569,111.783,410.52,113.211z"/>
							</g>
						</g>
					</g>
				</g>
			</g>
		</g>
	</g>
</g>
</svg>
